<?xml version="1.0" standalone="no"?>
<!DOCTYPE svg PUBLIC "-//W3C//DTD SVG 1.1//EN" "http://www.w3.org/Graphics/SVG/1.1/DTD/svg11.dtd" >
<svg xmlns="http://www.w3.org/2000/svg" xmlns:xlink="http://www.w3.org/1999/xlink" version="1.1">
<metadata>
Created by FontForge 20170910 at Thu Feb 18 19:04:10 2016
 By Jimmy Wärting
Created by Fabian De Smet
</metadata>
<defs>
<font id="ButlerStencil-Bold" horiz-adv-x="278" >
  <font-face 
    font-family="Butler Stencil"
    font-weight="700"
    font-stretch="normal"
    units-per-em="1000"
    panose-1="2 7 8 3 8 7 6 2 3 3"
    ascent="735"
    descent="-265"
    x-height="462"
    cap-height="704"
    bbox="-146 -319 1107 986"
    underline-thickness="50"
    underline-position="-100"
    stemh="18"
    stemv="138"
    unicode-range="U+0020-FB02"
  />
<missing-glyph horiz-adv-x="507" 
d="M-1 704h508v-704h-508v704zM223 352l-174 268v-535zM86 654l167 -256l167 256h-334zM253 307l-167 -257h334zM283 352l174 -267v535z" />
    <glyph glyph-name="f_i" unicode="fi" horiz-adv-x="591" 
d="M512 113c0 -55 5 -96 41 -105v-8h-205v8c38 11 39 54 39 105v250c0 35 -13 82 -50 82h-129v-332c0 -55 6 -95 41 -105v-8h-205v8c38 12 40 54 40 105v332h-64l-2 17h66v23c0 182 83 254 247 259v-17c-42 -5 -123 -35 -123 -216v-49h130h174v-349zM411 698
c18 4 -1 23 -39 28v18c63 -6 108 -38 122 -62c13 -24 17 -58 5 -83c-17 -36 -61 -51 -97 -33s-51 61 -33 97c9 18 24 30 42 35z" />
    <glyph glyph-name="f_l" unicode="fl" horiz-adv-x="573" 
d="M520 113c0 -55 5 -87 41 -96v-17h-205v17c38 11 39 45 39 96v519c0 20 -3 50 -35 64c-38 16 -161 52 -161 -194v-40h107l-3 -17h-104v-332c0 -55 5 -86 41 -96v-17h-206v17c38 12 40 45 40 96v332h-64l-2 17h66v80c0 135 81 204 175 203c37 0 75 -10 111 -32l160 33v-633
z" />
    <glyph glyph-name=".notdef" horiz-adv-x="507" 
d="M-1 704h508v-704h-508v704zM223 352l-174 268v-535zM86 654l167 -256l167 256h-334zM253 307l-167 -257h334zM283 352l174 -267v535z" />
    <glyph glyph-name="space" unicode=" " horiz-adv-x="265" 
 />
    <glyph glyph-name="exclam" unicode="!" horiz-adv-x="334" 
d="M199 224h-65l-32 521h132zM242 67c0 42 -34 76 -76 76c-41 0 -75 -34 -75 -76s34 -76 75 -76c42 0 76 34 76 76z" />
    <glyph glyph-name="quotedbl" unicode="&#x22;" horiz-adv-x="532" 
d="M136 377l-35 327h131l-33 -327h-63zM343 377l-35 327h132l-34 -327h-63z" />
    <glyph glyph-name="numbersign" unicode="#" horiz-adv-x="714" 
d="M667 463h-132l-35 -149h104v-89h-124l-52 -225h-91l52 225h-136l-52 -225h-91l52 225h-118v89h139l34 149h-109v88h129l46 195h91l-45 -195h135l46 195h91l-46 -195h112v-88zM444 463h-136l-34 -149h135z" />
    <glyph glyph-name="dollar" unicode="$" horiz-adv-x="594" 
d="M54 245c17 -48 67 -178 162 -232v-17c-119 17 -170 57 -170 57v192h8zM528 497c-16 43 -65 157 -170 195v17c118 -11 178 -44 178 -44v-168h-8zM296 8c158 0 145 159 42 234l-42 26v-260zM416 377c132 -87 187 -195 112 -304c-41 -50 -91 -82 -232 -82v-122h-17v410
l-95 60c-142 89 -195 189 -112 298c0 0 49 76 207 76v122h17v-379zM279 467v229c-108 0 -147 -132 -17 -217z" />
    <glyph glyph-name="percent" unicode="%" horiz-adv-x="1011" 
d="M250 0l456 704h65l-456 -704h-65zM280 679c109 0 138 -84 138 -182c0 -99 -29 -176 -138 -176c-110 0 -139 77 -139 176c0 98 29 182 139 182zM280 338c45 0 50 23 50 159s-7 165 -50 165c-45 0 -51 -29 -51 -165s7 -159 51 -159zM741 383c109 0 138 -84 138 -182
c0 -99 -29 -176 -138 -176c-110 0 -139 77 -139 176c0 98 29 182 139 182zM741 42c45 0 50 23 50 159s-7 165 -50 165c-45 0 -51 -29 -51 -165s7 -159 51 -159z" />
    <glyph glyph-name="ampersand" unicode="&#x26;" horiz-adv-x="834" 
d="M580 286c0 16 -26 11 -49 -16l-10 14c34 49 71 65 93 70c23 5 53 4 73 -12c28 -23 31 -64 7 -92c-23 -27 -64 -31 -92 -7c-13 11 -21 26 -22 43zM676 83c40 0 77 10 88 48h18c0 -89 -64 -132 -129 -139c0 0 -112 -11 -153 49l-53 78c-42 -115 -250 -194 -346 -51
c-95 142 43 240 120 286l11 -16c-54 -42 -78 -131 -6 -223c46 -59 161 -72 208 21l-226 331c-88 126 -16 253 96 273c69 12 115 -6 146 -42l-16 -13c-28 29 -66 41 -98 30c-43 -15 -81 -89 -33 -160l287 -428c30 -45 86 -44 86 -44z" />
    <glyph glyph-name="quotesingle" unicode="'" 
d="M109 376l-34 328h131l-34 -328h-63z" />
    <glyph glyph-name="parenleft" unicode="(" horiz-adv-x="333" 
d="M318 745l14 -13c-130 -153 -130 -375 -130 -481c0 -107 0 -328 128 -444l-14 -13c-237 134 -237 353 -237 460c0 106 0 325 239 491z" />
    <glyph glyph-name="parenright" unicode=")" horiz-adv-x="333" 
d="M251 255c0 -107 0 -326 -237 -460l-14 13c128 116 128 337 128 444c0 106 0 328 -130 481l14 13c239 -166 239 -385 239 -491z" />
    <glyph glyph-name="asterisk" unicode="*" horiz-adv-x="556" 
d="M487 513l-180 -24l132 -125l-85 -62l-78 165l-79 -165l-84 62l132 125l-181 24l33 99l159 -87l-33 179h105l-33 -179l160 87z" />
    <glyph glyph-name="plus" unicode="+" horiz-adv-x="715" 
d="M657 356v-93h-254v-263h-93v263h-254v93h254v263h93v-263h254z" />
    <glyph glyph-name="comma" unicode="," horiz-adv-x="272" 
d="M180 -53c-14 -22 -38 -54 -84 -79l-11 14c57 44 70 109 54 111c-20 2 -40 8 -56 24c-33 31 -33 84 -1 117c32 32 85 32 117 0c50 -50 13 -139 -19 -187z" />
    <glyph glyph-name="hyphen" unicode="-" horiz-adv-x="444" 
d="M379 208h-315v93h315v-93z" />
    <glyph glyph-name="period" unicode="." horiz-adv-x="296" 
d="M232 79c0 -47 -38 -84 -84 -84c-47 0 -85 37 -85 84s38 85 85 85c46 0 84 -38 84 -85z" />
    <glyph glyph-name="slash" unicode="/" horiz-adv-x="430" 
d="M413 725l-308 -746h-91l308 746h91z" />
    <glyph glyph-name="zero" unicode="0" horiz-adv-x="630" 
d="M345 712c194 -15 248 -176 248 -366c0 -188 -54 -339 -248 -353v19c67 15 90 94 90 334s-27 328 -90 346v20zM34 346c0 189 53 350 248 366v-20c-66 -18 -90 -106 -90 -346c0 -238 25 -317 90 -334v-19c-195 15 -248 165 -248 353z" />
    <glyph glyph-name="one" unicode="1" horiz-adv-x="424" 
d="M284 95c0 -77 47 -78 82 -78v-17h-301v17c41 0 95 4 95 78v433c0 90 -93 24 -93 24l-10 16l195 145h32v-618z" />
    <glyph glyph-name="two" unicode="2" horiz-adv-x="493" 
d="M445 185h17l-51 -185h-372l88 128h227c34 0 69 17 91 57zM235 713c100 0 171 -76 171 -167c0 -66 -42 -128 -121 -228l-18 14c143 245 -134 347 -210 189l-16 4c23 187 194 188 194 188z" />
    <glyph glyph-name="three" unicode="3" horiz-adv-x="528" 
d="M334 400c88 -44 139 -107 143 -168c10 -161 -105 -227 -203 -239v19c74 17 90 96 83 169c-4 36 -35 145 -190 166v17c167 52 146 183 89 229c-45 37 -145 32 -183 -46l-16 4c22 162 178 162 178 162c141 0 268 -150 99 -313zM156 39c-9 -4 2 -24 56 -30v-17
c-62 4 -109 19 -149 49c-21 15 -32 48 -25 77c9 42 51 68 92 58c42 -10 68 -51 58 -93c-5 -21 -17 -35 -32 -44z" />
    <glyph glyph-name="four" unicode="4" horiz-adv-x="547" 
d="M510 196h-104v-51c0 -126 43 -128 85 -128v-17h-315v17c42 0 85 4 85 123v56h-232v17l65 98l16 -10c-18 -34 7 -35 24 -35h127v298l98 149l47 -9v-438h104v-70z" />
    <glyph glyph-name="five" unicode="5" horiz-adv-x="535" 
d="M169 35c-10 -7 -8 -20 31 -25v-18c-71 6 -106 31 -125 46c-20 17 -31 49 -25 78c10 41 52 67 94 57c41 -9 67 -51 57 -93c-4 -21 -18 -37 -32 -45zM471 704l-43 -131h-328l25 131h346zM74 433c353 59 410 -128 410 -213c0 -141 -98 -217 -222 -228v18
c111 14 139 101 119 168c-12 42 -79 170 -330 136z" />
    <glyph glyph-name="six" unicode="6" horiz-adv-x="584" 
d="M398 680c5 0 -1 8 -21 13v17c61 -10 95 -46 106 -63c13 -21 14 -54 -2 -78c-22 -36 -68 -46 -104 -24c-35 22 -45 69 -23 104c11 17 25 28 44 31zM358 438c142 0 187 -110 187 -220c0 -144 -93 -216 -217 -226v17c51 11 70 58 70 189s-38 198 -93 198
c-31 0 -89 -16 -105 -79c2 -183 16 -283 66 -308v-17c-149 15 -224 139 -224 326c0 229 127 374 272 392v-17c-60 -19 -113 -104 -114 -337c31 73 112 82 158 82z" />
    <glyph glyph-name="seven" unicode="7" horiz-adv-x="556" 
d="M181 0c0 148 57 338 217 512h17c-89 -198 -92 -422 -92 -512h-142zM46 517l24 187h451l-75 -129h-283c-34 0 -79 -18 -100 -58h-17z" />
    <glyph glyph-name="eight" unicode="8" horiz-adv-x="565" 
d="M363 415c93 -45 168 -130 168 -213c0 -142 -89 -202 -210 -210v17c47 12 80 54 80 122c0 82 -87 133 -148 165c-17 9 -23 12 -38 21c-25 -13 -69 -59 -69 -159c0 -75 38 -136 113 -149v-17c-132 6 -223 49 -223 160c0 86 89 163 156 178c-90 57 -131 129 -131 193
c0 117 80 179 183 189v-18c-37 -12 -62 -50 -62 -108c0 -63 46 -115 161 -160c40 19 51 63 51 128c0 92 -42 130 -88 140v18c105 -8 179 -58 179 -145c0 -60 -38 -133 -122 -152z" />
    <glyph glyph-name="nine" unicode="9" horiz-adv-x="577" 
d="M175 25c-5 0 5 -10 29 -14v-18c-75 9 -103 48 -113 65c-13 21 -14 54 2 78c22 36 68 46 104 24c35 -22 45 -69 23 -104c-11 -17 -26 -28 -45 -31zM316 712c148 -15 224 -138 224 -325c0 -233 -93 -379 -273 -394v18c97 12 114 91 115 340c-36 -77 -112 -84 -158 -84
c-142 0 -187 110 -187 220c0 144 93 215 217 225v-17c-52 -11 -70 -56 -70 -188c0 -131 38 -198 93 -198c31 0 89 21 105 84c-3 183 -17 278 -66 302v17z" />
    <glyph glyph-name="colon" unicode=":" 
d="M226 79c0 -48 -39 -86 -86 -86c-48 0 -86 38 -86 86s38 86 86 86c47 0 86 -38 86 -86zM226 385c0 -47 -39 -86 -86 -86c-48 0 -86 39 -86 86s38 86 86 86c47 0 86 -39 86 -86z" />
    <glyph glyph-name="semicolon" unicode=";" 
d="M226 385c0 -48 -38 -86 -86 -86s-86 38 -86 86c0 47 38 86 86 86s86 -39 86 -86zM184 -53c32 48 65 137 15 187c-32 32 -85 32 -117 0c-32 -33 -32 -86 1 -117c16 -16 36 -22 56 -24c16 -2 6 -71 -56 -108l11 -14c46 25 76 54 90 76z" />
    <glyph glyph-name="less" unicode="&#x3c;" horiz-adv-x="600" 
d="M195 266l358 -189v-93l-507 260v43l507 260v-94z" />
    <glyph glyph-name="equal" unicode="=" horiz-adv-x="613" 
d="M567 339h-511v80h511v-80zM567 114h-511v80h511v-80z" />
    <glyph glyph-name="greater" unicode="&#x3e;" horiz-adv-x="600" 
d="M47 77l358 189l-358 187v94l507 -260v-43l-507 -260v93z" />
    <glyph glyph-name="question" unicode="?" horiz-adv-x="593" 
d="M279 164c47 0 85 -37 85 -84s-38 -85 -85 -85s-84 38 -84 85s37 84 84 84zM200 625c21 -31 13 -73 -16 -95c-30 -21 -73 -12 -95 19c-15 21 -13 47 -7 69c6 26 32 68 80 90l6 -18c-23 -14 -22 -36 -10 -38c18 -3 31 -12 42 -27zM221 728c140 33 279 -32 285 -151
c6 -146 -86 -205 -144 -220c-54 -14 -87 -58 -82 -118l-26 -4c-6 39 -11 106 53 159c47 40 63 86 54 179c-7 90 -69 140 -135 138z" />
    <glyph glyph-name="at" unicode="@" horiz-adv-x="892" 
d="M528 624c172 -7 331 -136 311 -378c-19 -231 -189 -255 -267 -255c-47 0 -68 36 -63 65c-10 -13 -57 -65 -140 -65c-92 0 -111 110 -101 181c11 70 60 228 221 228c59 0 79 -41 80 -42c3 16 5 26 5 26l98 -2s-49 -263 -56 -299c-5 -20 -4 -48 26 -48c42 0 139 65 139 216
c0 111 -27 289 -243 305c-233 17 -355 -180 -378 -346c0 0 -64 -346 282 -375c118 -7 199 55 199 55l10 -15s-69 -78 -234 -78c-146 0 -388 67 -379 387c8 276 253 449 490 440zM514 87c5 25 20 94 33 161c3 16 22 129 -37 129c-63 0 -111 -83 -128 -166
c-22 -110 25 -155 66 -158c43 -4 66 34 66 34z" />
    <glyph glyph-name="A" unicode="A" horiz-adv-x="708" 
d="M610 90c34 -80 58 -71 84 -73v-17h-286v17c78 0 26 107 26 107l-30 73h-237s-62 -188 96 -180v-17h-246v17c24 2 48 -5 134 197h247l-127 311l68 179h17c245 -588 254 -614 254 -614z" />
    <glyph glyph-name="B" unicode="B" horiz-adv-x="642" 
d="M596 179c0 -167 -131 -178 -293 -179v17c78 1 146 13 146 167c0 141 -81 161 -146 164v19c50 7 107 41 107 169c0 126 -60 147 -107 150v18c130 0 246 -4 246 -170c0 -149 -159 -173 -179 -173c65 0 226 -11 226 -182zM37 696v8h204v-704h-204v9c43 0 58 60 58 128v429
c0 62 -14 130 -58 130z" />
    <glyph glyph-name="C" unicode="C" horiz-adv-x="687" 
d="M615 210h17l14 -157c-67 -44 -137 -59 -228 -61v18c103 15 173 101 197 200zM418 694v19c90 -3 171 -15 228 -61l-14 -157h-17c-51 122 -103 187 -197 199zM40 352c0 189 120 345 316 360v-18c-91 -14 -136 -95 -136 -342s47 -328 136 -342v-18
c-196 15 -316 171 -316 360z" />
    <glyph glyph-name="D" unicode="D" horiz-adv-x="768" 
d="M319 704c194 -4 401 -71 401 -355c0 -283 -207 -345 -401 -349v17c97 4 226 40 226 332c0 293 -129 334 -226 338v17zM37 687v17h220v-704h-220v17c43 0 75 52 75 120v429c0 62 -31 121 -75 121z" />
    <glyph glyph-name="E" unicode="E" horiz-adv-x="653" 
d="M590 218v-218h-298v18c68 7 247 38 281 200h17zM230 704v-704h-203v17c42 0 58 52 58 120v429c0 62 -14 121 -58 121v17h203zM560 514c-19 140 -199 167 -268 172v18h285v-190h-17zM292 366c45 5 122 23 136 102h17v-225h-17c-14 78 -91 97 -136 102v21z" />
    <glyph glyph-name="F" unicode="F" horiz-adv-x="602" 
d="M228 137c0 -113 43 -120 86 -120v-17h-289v17c43 0 58 52 58 120v429c0 62 -14 121 -58 121v17h203v-567zM290 366c45 5 132 23 145 102h17v-225h-17c-13 78 -100 97 -145 102v21zM290 686v18h296v-190h-17c-28 146 -209 169 -279 172z" />
    <glyph glyph-name="G" unicode="G" horiz-adv-x="745" 
d="M222 352c0 -249 46 -329 138 -342v-17c-199 14 -321 170 -321 359s121 344 318 360v-18c-92 -14 -135 -95 -135 -342zM438 280h282v-17c-56 0 -69 -19 -69 -230c-56 -21 -136 -38 -229 -41v17c88 4 101 26 101 113c0 136 -28 141 -85 141v17zM604 489
c-27 143 -84 198 -185 206v18c92 -2 170 -16 226 -53l-7 -171h-34z" />
    <glyph glyph-name="H" unicode="H" horiz-adv-x="658" 
d="M637 687c-47 -9 -44 -49 -44 -126v-425c0 -82 -8 -105 44 -119v-17h-208v17c27 10 24 37 24 119v191h-242v-191c0 -82 -4 -109 24 -119v-17h-209v17c53 14 45 37 45 119v425c0 77 3 117 -45 126v17h209v-17c-28 -9 -24 -49 -24 -126v-214h242v214c0 77 4 117 -24 126v17
h208v-17z" />
    <glyph glyph-name="I" unicode="I" horiz-adv-x="390" 
d="M39 704h315v-17c-43 0 -85 -27 -85 -89v-477c0 -68 43 -104 85 -104v-17h-315v17c43 0 85 36 85 104v477c0 62 -41 89 -85 89v17z" />
    <glyph glyph-name="J" unicode="J" horiz-adv-x="443" 
d="M86 704h318v-17c-45 0 -87 -28 -87 -92v-413c0 -241 -148 -325 -311 -349l-4 17c86 31 166 115 166 332v291c0 188 0 214 -82 214v17z" />
    <glyph glyph-name="K" unicode="K" horiz-adv-x="814" 
d="M34 704h302v-17c-44 0 -86 -16 -86 -89v-475c0 -68 32 -106 75 -106v-17h-291v17c42 0 71 38 71 106v475c0 62 -28 89 -71 89v17zM660 82c49 -65 114 -65 141 -65v-17h-158c-106 0 -130 29 -235 181c-58 82 -101 139 -101 139l138 167s172 196 -6 200v17h330v-17
c-67 0 -137 -2 -353 -279c234 -313 244 -326 244 -326z" />
    <glyph glyph-name="L" unicode="L" horiz-adv-x="667" 
d="M605 217v-217h-290v18c68 7 245 38 273 199h17zM253 598v-598h-216v17c43 0 71 44 71 112v469c0 61 -36 89 -79 89v17h317v-17c-43 0 -93 -17 -93 -89z" />
    <glyph glyph-name="M" unicode="M" horiz-adv-x="988" 
d="M177 253c0 0 -2 -236 136 -236v-17h-303v17c150 0 150 236 150 236h17zM884 121c0 -68 43 -104 86 -104v-17h-302v17c42 0 72 36 72 104v583h221v-17c-43 0 -77 -27 -77 -88v-478zM47 704h252l250 -526l-75 -187h-17l-297 627c-38 67 -88 67 -113 69v17z" />
    <glyph glyph-name="N" unicode="N" horiz-adv-x="840" 
d="M184 255c0 0 -1 -238 137 -238v-17h-304v17c151 0 150 238 150 238h17zM9 704h245l420 -518v-186h-53l-493 616c-64 80 -93 69 -119 71v17zM520 687v17h303v-17c-151 1 -149 -237 -149 -237h-17s1 238 -137 237z" />
    <glyph glyph-name="O" unicode="O" horiz-adv-x="776" 
d="M212 347c0 -249 45 -325 141 -338v-17c-199 15 -312 166 -312 355c0 188 113 348 312 364v-18c-96 -13 -141 -98 -141 -346zM731 347c0 -190 -114 -341 -315 -355v17c97 12 142 87 142 338c0 249 -45 333 -142 347v17c201 -15 315 -176 315 -364z" />
    <glyph glyph-name="P" unicode="P" horiz-adv-x="651" 
d="M454 502c0 162 -65 182 -150 185v17c185 -4 314 -43 314 -202s-129 -199 -314 -202v17c85 3 150 24 150 185zM242 704v-567c0 -113 75 -120 118 -120v-17h-329v17c42 0 66 52 66 120v435c0 62 -28 115 -72 115v17h217z" />
    <glyph glyph-name="Q" unicode="Q" horiz-adv-x="771" 
d="M731 347c0 -190 -114 -341 -315 -355v18c97 11 142 87 142 337c0 249 -45 334 -142 347v18c201 -15 315 -176 315 -365zM212 347c0 -249 45 -325 142 -337v-18c-200 15 -313 166 -313 355c0 188 113 349 313 364v-17c-97 -14 -142 -99 -142 -347zM615 -116
c79 -27 124 13 144 27l12 -13l-107 -92c-77 -66 -176 -39 -340 30l-86 36c-77 33 -113 -4 -134 -20l-13 13c180 152 353 77 353 77z" />
    <glyph glyph-name="R" unicode="R" horiz-adv-x="728" 
d="M604 115c20 -76 91 -96 117 -98v-17h-92c-178 1 -152 1 -222 218c-25 77 -82 96 -110 101v19c82 2 145 20 145 175s-63 172 -145 174v17c182 -3 308 -33 308 -191c0 -122 -76 -167 -195 -181c65 7 145 -37 194 -217zM235 704v-583c0 -68 32 -104 74 -104v-17h-291v17
c43 0 72 36 72 104v477c0 62 -28 89 -72 89v17h217z" />
    <glyph glyph-name="S" unicode="S" horiz-adv-x="616" 
d="M63 245c21 -57 72 -216 225 -235v-18c-171 6 -242 61 -242 61v192h17zM416 377c132 -87 187 -195 112 -304c0 0 -41 -71 -177 -81v17c81 25 96 153 -13 233l-154 97c-142 89 -195 189 -112 298c0 0 43 66 175 75v-17c-82 -23 -101 -140 15 -216zM519 497
c-18 49 -72 180 -209 197v18c150 -5 226 -47 226 -47v-168h-17z" />
    <glyph glyph-name="T" unicode="T" horiz-adv-x="698" 
d="M19 704h658v-201h-17c-8 179 -221 184 -221 184h-19v-566c0 -68 43 -104 85 -104v-17h-315v17c42 0 85 36 85 104v566h-19s-212 -5 -220 -184h-17v201z" />
    <glyph glyph-name="U" unicode="U" horiz-adv-x="752" 
d="M405 51c76 0 165 63 165 189h17c0 -214 -159 -249 -247 -249c-136 0 -248 92 -248 255v353c0 61 -36 88 -80 88v17h318v-17c-43 0 -93 -16 -93 -88v-360c0 -118 73 -188 168 -188zM434 687v17h302v-17c-151 1 -149 -150 -149 -150h-17s2 151 -136 150z" />
    <glyph glyph-name="V" unicode="V" horiz-adv-x="775" 
d="M331 687c-82 0 -44 -116 -44 -116l162 -402l-68 -169h-17c-245 589 -256 606 -256 606c-33 80 -69 81 -95 81v17h318v-17zM471 687v17h283v-17c-46 0 -92 0 -193 -239l-16 5s91 234 -74 234z" />
    <glyph glyph-name="W" unicode="W" horiz-adv-x="1122" 
d="M333 687c-88 0 -45 -116 -45 -116l153 -388l-67 -183h-17l-251 606c-32 81 -66 81 -92 81v17h319v-17zM695 687c-90 0 -45 -116 -45 -116l150 -390l-70 -181h-17l-245 606c-31 81 -66 81 -92 81v17h319v-17zM812 687v17h295v-17c-46 0 -112 -24 -204 -239l-16 5
s95 234 -75 234z" />
    <glyph glyph-name="X" unicode="X" horiz-adv-x="830" 
d="M322 203c0 0 -135 -186 32 -186v-17h-300v17c24 0 96 -9 254 202zM692 98c55 -72 93 -81 119 -81v-17h-330v17c68 18 2 112 2 112l-343 476c-60 78 -100 82 -126 82v17h353v-17c-45 0 -63 -48 -15 -115zM509 507c0 0 129 180 -42 180v17h328v-17c-26 0 -122 2 -273 -196z
" />
    <glyph glyph-name="Y" unicode="Y" horiz-adv-x="771" 
d="M456 121c0 -68 43 -104 85 -104v-17h-315v17c42 0 85 36 85 104v155c-147 260 -195 333 -195 333c-44 76 -82 79 -107 79v16h319v-16c-21 0 -91 1 -23 -114l151 -247v-206zM458 687v17h300v-17c-26 0 -124 -2 -236 -221l-12 15s92 206 -52 206z" />
    <glyph glyph-name="Z" unicode="Z" horiz-adv-x="617" 
d="M75 704h310l-11 -17c-133 0 -263 -84 -298 -185h-20zM271 17c153 0 266 155 288 216h18l-25 -233h-290zM594 704l-379 -704h-191l407 704h163z" />
    <glyph glyph-name="bracketleft" unicode="[" horiz-adv-x="333" 
d="M113 735h205v-17c-54 0 -106 -1 -106 -85v-686c0 -73 54 -76 106 -76v-17h-205v881z" />
    <glyph glyph-name="backslash" unicode="\" horiz-adv-x="434" 
d="M325 -20l-311 755h91l311 -755h-91z" />
    <glyph glyph-name="bracketright" unicode="]" horiz-adv-x="333" 
d="M11 735h205v-881h-205v17c52 0 106 3 106 76v686c0 84 -52 85 -106 85v17z" />
    <glyph glyph-name="asciicircum" unicode="^" horiz-adv-x="575" 
d="M295 704l185 -328h-45l-152 156l-149 -156h-45l183 328h23z" />
    <glyph glyph-name="underscore" unicode="_" horiz-adv-x="560" 
d="M0 -69h560v-61h-560v61z" />
    <glyph glyph-name="grave" unicode="`" horiz-adv-x="350" 
d="M116 720l169 -163h-37l-244 128z" />
    <glyph glyph-name="a" unicode="a" horiz-adv-x="527" 
d="M166 303c-26 -17 -61 -11 -79 15c-12 19 -13 43 -3 60c9 15 21 38 64 64l7 -16c-15 -12 -16 -22 -11 -22c15 -2 28 -9 37 -22c18 -26 11 -61 -15 -79zM474 52c0 0 21 0 27 17l17 -7c-8 -32 -54 -71 -117 -71c0 0 -101 0 -101 90v157c-98 -22 -131 -69 -131 -120
c0 0 0 -66 65 -66c11 0 21 1 29 5l12 -17c-27 -25 -70 -49 -119 -49c0 0 -115 0 -115 102c0 109 84 119 259 163v62c0 94 -48 145 -108 127l-7 15c38 13 74 11 74 11c131 0 167 -82 167 -200v-149s-1 -70 48 -70z" />
    <glyph glyph-name="b" unicode="b" horiz-adv-x="593" 
d="M343 471c112 0 212 -88 212 -246c0 -154 -96 -227 -226 -234v19c58 10 83 69 83 207c0 160 -37 212 -119 212c-68 0 -104 -56 -104 -127v-127c0 -112 48 -157 99 -166v-18c-52 4 -96 21 -125 51c-36 -31 -98 -53 -98 -37v623c0 34 -10 49 -51 64v17l175 37v-360
c32 60 106 85 154 85z" />
    <glyph glyph-name="c" unicode="c" horiz-adv-x="500" 
d="M357 433c7 3 -6 14 -32 19v18c58 -5 94 -30 110 -43c17 -15 27 -43 20 -67c-10 -35 -46 -58 -82 -48c-36 9 -57 46 -47 81c4 19 16 32 31 40zM450 129l14 -9c-14 -51 -74 -129 -199 -129c-131 0 -220 125 -220 242c0 110 81 227 238 237v-19c-43 -10 -112 -55 -112 -200
c0 -108 58 -156 127 -171c50 -11 129 16 152 49z" />
    <glyph glyph-name="d" unicode="d" horiz-adv-x="589" 
d="M523 97c0 -49 10 -61 51 -66v-17l-147 -22c-28 -4 -28 18 -28 18v62c-32 -59 -106 -81 -153 -81c-113 0 -213 89 -213 247c0 153 96 225 226 232v-18c-58 -11 -84 -69 -84 -205c0 -161 33 -221 114 -221c68 0 110 50 110 120v141c0 110 -48 155 -99 165v17
c38 -3 72 -13 99 -28v191c0 35 -10 45 -51 60v17l175 37v-649z" />
    <glyph glyph-name="e" unicode="e" horiz-adv-x="524" 
d="M290 76c54 -12 134 8 159 55l17 -9c-16 -52 -75 -131 -209 -131c-131 0 -221 121 -221 238c0 132 85 230 210 240v-16c-49 -19 -81 -111 -81 -196h196c0 107 -30 179 -74 196v17c133 -6 196 -81 196 -230h-318c8 -98 58 -149 125 -164z" />
    <glyph glyph-name="f" unicode="f" horiz-adv-x="334" 
d="M284 743c44 -7 76 -33 85 -48c12 -18 15 -47 5 -68c-15 -29 -51 -41 -80 -27c-30 15 -42 50 -27 80c7 15 20 24 35 27c12 2 4 14 -18 19v17zM243 727c-26 -22 -41 -100 -41 -265h107l-3 -17h-104v-332c0 -55 5 -86 41 -96v-17h-205v17c38 11 39 45 39 96v332h-64l-1 17
h65c0 218 58 277 166 282v-17z" />
    <glyph glyph-name="g" unicode="g" horiz-adv-x="572" 
d="M555 468c21 -23 19 -59 -5 -80c-23 -21 -59 -18 -80 5c-10 12 -14 26 -12 40c1 8 -23 3 -40 -18c24 -25 36 -58 36 -94c0 -77 -62 -142 -172 -150v19c34 7 55 37 55 131c0 92 -23 123 -55 130v19c55 -3 94 -19 123 -43c29 42 71 55 94 59c19 4 42 -2 56 -18zM104 -160
c51 -62 159 -87 250 -46l8 -15c-137 -66 -303 -54 -340 24c-29 59 8 121 54 157l12 -12c-38 -49 16 -108 16 -108zM327 92c69 0 185 -8 166 -159c0 0 -5 -76 -95 -134l-9 16c49 39 43 90 43 90s-9 53 -82 53h-136c-42 0 -159 6 -159 108c0 0 -1 91 96 128
c-50 22 -82 74 -82 127c0 76 62 142 172 149v-18c-37 -7 -55 -36 -55 -131c0 -94 22 -124 55 -131v-19c-29 2 -53 6 -72 15c-27 -12 -88 -94 18 -94h140z" />
    <glyph glyph-name="h" unicode="h" horiz-adv-x="539" 
d="M191 123c0 -55 5 -96 41 -105v-18h-206v18c38 11 40 54 40 105v504c0 35 -10 45 -50 60v17l175 42v-623zM482 123c0 -55 6 -97 41 -106v-17h-205v17c38 11 40 55 40 106v189c0 57 -26 84 -84 84c-16 0 -34 -7 -50 -20l-13 21c34 40 96 74 145 74c80 0 126 -35 126 -155
v-193z" />
    <glyph glyph-name="i" unicode="i" horiz-adv-x="282" 
d="M200 619c0 -38 -31 -68 -69 -68s-68 30 -68 68s30 68 68 68s69 -30 69 -68zM203 122c0 -56 5 -95 41 -105v-17h-205v17c38 12 40 54 40 105v222c0 34 -10 48 -51 70v17l175 40v-349z" />
    <glyph glyph-name="j" unicode="j" horiz-adv-x="281" 
d="M79 27v313c0 34 -9 52 -50 74v17l174 40v-421c0 -189 -86 -253 -185 -278v17c61 15 61 238 61 238zM201 619c0 -38 -31 -68 -69 -68c-37 0 -68 30 -68 68s31 68 68 68c38 0 69 -30 69 -68z" />
    <glyph glyph-name="k" unicode="k" horiz-adv-x="559" 
d="M185 121c0 -55 5 -95 41 -104v-17h-206v17c38 11 40 53 40 104v506c0 35 -10 50 -50 65v17l175 37v-625zM452 67c33 -46 78 -49 95 -50v-17h-141c-69 0 -78 18 -145 118c-30 44 -56 84 -56 84l94 102s143 145 13 141v17h243v-17c-18 -2 -120 -5 -253 -169
c148 -209 150 -209 150 -209z" />
    <glyph glyph-name="l" unicode="l" horiz-adv-x="265" 
d="M198 121c0 -55 5 -95 40 -104v-17h-205v17c38 11 40 53 40 104v506c0 35 -10 50 -50 65v17l175 37v-625z" />
    <glyph glyph-name="m" unicode="m" horiz-adv-x="795" 
d="M185 120c0 -55 6 -93 41 -103v-17h-205v17c38 11 39 52 39 103v219c0 35 -9 53 -50 75v17l175 40v-351zM739 122c0 -55 5 -96 41 -105v-17h-206v17c38 11 40 54 40 105v194c0 56 -28 83 -73 83c-15 0 -31 -8 -44 -19l-14 16c30 41 80 75 130 75c78 0 126 -31 126 -152
v-197zM462 122c0 -55 5 -96 41 -105v-17h-206v17c38 11 40 54 40 105v194c0 56 -27 83 -72 83c-15 0 -31 -8 -44 -19l-12 16c31 41 77 75 127 75c117 0 126 -88 126 -157v-192z" />
    <glyph glyph-name="n" unicode="n" horiz-adv-x="539" 
d="M185 120c0 -55 6 -93 41 -103v-17h-205v17c38 11 39 52 39 103v226c0 35 -9 46 -50 68v17l175 40v-351zM476 122c0 -55 5 -96 41 -105v-17h-206v17c38 11 40 54 40 105v194c0 48 -31 83 -81 83c-13 0 -27 -5 -40 -12l-12 20c35 36 86 64 132 64c78 0 126 -31 126 -152
v-197z" />
    <glyph glyph-name="o" unicode="o" horiz-adv-x="556" 
d="M517 231c0 -125 -78 -230 -218 -239v18c55 8 70 59 70 221s-15 213 -70 221v18c140 -9 218 -113 218 -239zM188 231c0 -162 15 -213 70 -221v-18c-139 9 -217 114 -217 239c0 126 78 230 217 239v-18c-55 -8 -70 -59 -70 -221z" />
    <glyph glyph-name="p" unicode="p" horiz-adv-x="603" 
d="M343 471c113 0 213 -87 213 -244c0 -154 -97 -229 -228 -236v18c59 11 85 72 85 209c0 161 -38 216 -119 216c-60 0 -96 -48 -103 -108v-183c7 -89 51 -125 96 -134v-17c-37 3 -71 13 -96 30v-173c0 -56 6 -88 41 -97v-17h-205v17c38 11 40 46 40 97v509
c0 34 -10 41 -50 56v17l174 40v-81c32 59 105 81 152 81z" />
    <glyph glyph-name="q" unicode="q" horiz-adv-x="591" 
d="M522 -152c0 -55 5 -87 41 -96v-17h-205v17c37 11 39 45 39 96v194c-37 -37 -93 -51 -131 -51c-113 0 -213 90 -213 248c0 149 91 221 217 231v-18c-60 -9 -86 -65 -86 -204c0 -161 32 -232 113 -232c68 0 100 51 100 121v150c0 108 -39 154 -86 164v19
c46 -1 87 -14 117 -36c38 30 94 43 94 28v-614z" />
    <glyph glyph-name="r" unicode="r" horiz-adv-x="425" 
d="M190 122c0 -56 5 -95 41 -105v-17h-207v17c39 12 40 53 40 105v222c0 34 -9 49 -50 70v17l176 40v-349zM308 466c21 9 59 5 81 -13c31 -27 34 -75 7 -105c-27 -31 -73 -35 -105 -8c-15 14 -23 31 -23 49c0 8 -22 8 -47 -15l-10 14c43 57 76 69 97 78z" />
    <glyph glyph-name="s" unicode="s" horiz-adv-x="444" 
d="M356 329c-12 32 -40 112 -126 123v18c99 -3 143 -29 143 -29v-112h-17zM303 259c89 -55 119 -142 69 -214c0 0 -33 -47 -119 -53v19c52 16 54 92 -14 137l-101 61c-97 59 -123 140 -68 212c0 0 33 43 118 49v-19c-50 -14 -63 -80 14 -129zM68 163
c14 -37 43 -141 143 -154v-18c-107 5 -160 46 -160 46v126h17z" />
    <glyph glyph-name="t" unicode="t" horiz-adv-x="354" 
d="M269 62c29 0 51 20 60 35l15 -9c-20 -47 -81 -97 -148 -97c-79 0 -126 32 -126 153v301h-50l-3 17h53v134l125 21v-155h119l-4 -17h-115v-298c0 -56 24 -85 74 -85z" />
    <glyph glyph-name="u" unicode="u" horiz-adv-x="561" 
d="M493 92c0 -48 9 -52 51 -57v-17l-148 -26c-27 -4 -28 19 -28 19v344c0 61 4 74 -47 80v17l172 19v-379zM331 81l12 -20c-36 -40 -97 -70 -144 -70c-79 0 -126 33 -126 153v214c0 60 2 69 -56 77v17l180 19v-324c0 -56 26 -83 84 -83c15 0 33 4 50 17z" />
    <glyph glyph-name="v" unicode="v" horiz-adv-x="522" 
d="M327 462h195v-17c-23 0 -66 -1 -130 -155l-16 9c9 25 48 146 -49 146v17zM239 445c-56 0 -19 -75 -19 -75l110 -236l-57 -143h-16c-177 384 -186 401 -186 401c-24 53 -50 53 -68 53v17h236v-17z" />
    <glyph glyph-name="w" unicode="w" horiz-adv-x="814" 
d="M252 445c-59 0 -25 -65 -25 -65l115 -242l-55 -147h-17c-177 384 -191 411 -191 411c-22 43 -47 43 -63 43v17h236v-17zM610 462h196v-17c-18 0 -68 -2 -124 -155l-16 13c11 34 38 142 -56 142v17zM534 445c-63 0 -26 -65 -26 -65l115 -243l-56 -146h-16l-190 411
c-23 43 -47 43 -64 43v17h237v-17z" />
    <glyph glyph-name="x" unicode="x" horiz-adv-x="547" 
d="M331 340c0 0 69 105 -40 105v17h226v-17c-14 -2 -75 8 -176 -118zM194 122c0 0 -68 -105 55 -105v-17h-226v17c15 0 68 0 158 120zM452 59c29 -42 73 -42 88 -42v-17h-244v17c49 0 -1 70 -1 70l-214 323c-35 42 -54 33 -69 35v17h239v-17c-24 0 -44 -15 -11 -62z" />
    <glyph glyph-name="y" unicode="y" horiz-adv-x="541" 
d="M330 462h196v-17c-21 0 -67 -2 -131 -156l-12 14c13 33 45 143 -53 142v17zM337 136l-55 -145h-19l-189 415c-16 39 -48 39 -63 39v17h236v-17c-52 0 -26 -61 -26 -61zM242 -114h-18c-16 -42 -39 -47 -43 -35c-5 17 -16 33 -34 41c-35 16 -76 0 -92 -35
c-15 -35 0 -76 35 -92c24 -11 59 -5 77 10c19 15 49 43 75 111z" />
    <glyph glyph-name="z" unicode="z" horiz-adv-x="463" 
d="M65 462h192l-10 -19c-104 -9 -150 -54 -170 -113h-17zM430 462l-253 -462h-148l269 462h132zM228 20c116 16 150 96 163 132h17l-9 -152h-181z" />
    <glyph glyph-name="braceleft" unicode="{" horiz-adv-x="333" 
d="M218 3c0 -104 18 -136 59 -150v-17c-79 11 -149 52 -149 167v117c0 148 -42 144 -79 151v17c36 9 79 5 79 163v117c0 115 70 156 149 167v-17c-41 -15 -59 -46 -59 -150v-144c0 -110 -59 -144 -132 -144c73 0 132 -24 132 -133v-144z" />
    <glyph glyph-name="bar" unicode="|" horiz-adv-x="222" 
d="M73 -164v899h76v-899h-76z" />
    <glyph glyph-name="braceright" unicode="}" horiz-adv-x="333" 
d="M112 3v144c0 109 59 133 132 133c-73 0 -132 34 -132 144v144c0 104 -18 135 -59 150v17c79 -11 149 -52 149 -167v-117c0 -158 43 -154 79 -163v-17c-37 -7 -79 -3 -79 -151v-117c0 -115 -70 -156 -149 -167v17c41 14 59 46 59 150z" />
    <glyph glyph-name="asciitilde" unicode="~" horiz-adv-x="600" 
d="M348 196l-120 43c-34 12 -127 8 -153 -47l-16 7c72 174 196 132 196 132l120 -43c34 -13 124 -7 150 48l15 -6c-72 -174 -192 -134 -192 -134z" />
    <glyph glyph-name="uni007F" horiz-adv-x="0" 
 />
    <glyph glyph-name="uni00A0" unicode="&#xa0;" horiz-adv-x="265" 
 />
    <glyph glyph-name="exclamdown" unicode="&#xa1;" horiz-adv-x="319" 
d="M130 339h64l32 -514h-130zM88 495c0 41 33 74 75 74c41 0 74 -33 74 -74c0 -42 -33 -75 -74 -75c-42 0 -75 33 -75 75z" />
    <glyph glyph-name="cent" unicode="&#xa2;" horiz-adv-x="533" 
d="M317 82v371c-43 -9 -116 -53 -116 -202c0 -103 52 -151 116 -169zM480 129l14 -9c-13 -46 -62 -116 -160 -129v-109h-17v109c-169 0 -242 125 -242 242c0 111 82 230 242 238v122h17v-515c50 -7 124 19 146 51zM465 427c17 -15 27 -43 20 -67c-10 -35 -46 -58 -82 -48
c-36 9 -57 46 -47 81c4 19 16 32 31 40c7 3 -4 13 -26 18v18c55 -6 89 -29 104 -42z" />
    <glyph glyph-name="sterling" unicode="&#xa3;" horiz-adv-x="670" 
d="M609 141l17 -4c1 -112 -103 -141 -103 -141c-60 -18 -131 17 -201 57c-46 -49 -106 -62 -179 -62v17c66 1 108 31 134 73c-37 22 -65 38 -94 51c-92 39 -140 -19 -128 -63l-19 -5c-15 46 17 168 216 104l37 -12c0 35 -20 76 -48 119c-16 25 -42 63 -55 87h-93v17h86
c-123 284 100 396 237 356l-3 -15c-141 26 -224 -78 -76 -341h181v-17h-171l27 -37c42 -66 38 -138 5 -198l74 -23c75 -24 146 1 156 37zM443 709l7 13c52 -25 69 -51 81 -78c8 -23 2 -54 -18 -74c-27 -29 -73 -29 -102 -1s-29 74 -1 102c14 15 32 18 50 18
c14 0 -1 13 -17 20z" />
    <glyph glyph-name="currency" unicode="&#xa4;" horiz-adv-x="612" 
d="M545 345c0 -52 -16 -99 -44 -139l89 -88l-58 -59l-89 89c-39 -28 -88 -44 -139 -44c-52 0 -100 16 -140 44l-88 -89l-58 59l88 88c-27 40 -44 87 -44 139s17 101 44 140l-88 88l58 58l88 -88c40 28 88 44 140 44c51 0 100 -16 139 -44l89 88l58 -58l-89 -88
c28 -39 44 -88 44 -140zM304 190c86 0 155 70 155 155c0 86 -69 156 -155 156s-156 -70 -156 -156c0 -85 70 -155 156 -155z" />
    <glyph glyph-name="yen" unicode="&#xa5;" horiz-adv-x="702" 
d="M269 574l151 -247h165v-17h-165v-72h165v-17h-165v-100c0 -68 43 -104 85 -104v-17h-315v17c42 0 85 36 85 104v100h-186v17h186v38l-20 34h-166v17h157c-125 218 -166 282 -166 282c-44 76 -82 79 -107 79v16h319v-16c-21 0 -91 1 -23 -114zM422 704h300v-17
c-26 0 -124 -2 -236 -221l-9 17s89 204 -55 204v17z" />
    <glyph glyph-name="brokenbar" unicode="&#xa6;" horiz-adv-x="222" 
d="M152 735v-375h-81v375h81zM152 186v-377h-81v377h81z" />
    <glyph glyph-name="section" unicode="&#xa7;" horiz-adv-x="556" 
d="M191 -224c-6 -2 9 -8 35 -11v-17c-55 6 -92 31 -104 45c-14 17 -18 45 -7 67c14 32 52 46 85 31c32 -15 46 -53 31 -85c-8 -16 -24 -25 -40 -30zM356 687c6 2 1 9 -23 13v18c53 -6 90 -31 102 -46c14 -17 18 -45 8 -67c-16 -32 -53 -46 -86 -31c-32 15 -46 53 -31 85
c8 16 15 23 30 28zM343 101c13 -7 24 -16 35 -25c142 106 27 167 -44 214c-45 30 -120 75 -120 75c-9 6 -18 13 -25 19c-147 -99 -37 -162 34 -210c46 -30 120 -73 120 -73zM395 404c116 -73 182 -222 -2 -342c41 -39 71 -104 64 -165c-11 -118 -98 -147 -169 -151v17
c40 11 64 48 68 91c5 46 -6 85 -70 127l-124 80c-114 74 -179 212 11 337c-51 47 -71 107 -65 170c11 119 94 148 162 152v-17c-44 -11 -73 -47 -77 -92c-5 -46 14 -89 78 -129z" />
    <glyph glyph-name="dieresis" unicode="&#xa8;" horiz-adv-x="292" 
d="M110 646c0 -33 -27 -60 -59 -60c-33 0 -60 27 -60 60c0 32 27 58 60 58c32 0 59 -26 59 -58zM298 646c0 -33 -27 -60 -59 -60c-33 0 -59 27 -59 60c0 32 26 58 59 58c32 0 59 -26 59 -58z" />
    <glyph glyph-name="copyright" unicode="&#xa9;" horiz-adv-x="815" 
d="M407 746c208 0 377 -169 377 -377s-169 -377 -377 -377c-209 0 -377 169 -377 377s168 377 377 377zM407 68c164 0 299 136 299 301s-135 302 -299 302c-165 0 -300 -137 -300 -302s135 -301 300 -301zM525 276h17l5 -85c-42 -28 -83 -35 -143 -35
c-121 0 -196 91 -196 203c0 113 75 204 196 204c58 0 108 -6 143 -34l-5 -86h-17c-16 88 -72 103 -121 103c-48 0 -94 -32 -94 -187s48 -186 94 -186c53 0 105 15 121 103z" />
    <glyph glyph-name="ordfeminine" unicode="&#xaa;" horiz-adv-x="319" 
d="M156 513v64c-51 -12 -69 -30 -69 -57c0 0 0 -32 35 -32c18 0 29 13 34 25zM247 486c0 0 8 0 10 10l13 -5c-3 -18 -23 -37 -60 -37c0 0 -48 0 -53 37c-7 -20 -39 -37 -76 -37c0 0 -60 0 -60 53c0 58 43 64 135 87v31c0 54 -32 72 -69 56c-14 -6 -16 -12 -13 -12
c9 0 16 -4 20 -11c9 -13 5 -32 -8 -40c-13 -10 -32 -6 -41 7c-7 9 -6 22 -2 31c5 11 14 26 39 39c24 13 53 10 53 10c69 0 87 -43 87 -104v-78s0 -39 25 -37z" />
    <glyph glyph-name="guillemotleft" unicode="&#xab;" horiz-adv-x="610" 
d="M318 505v-39l-123 -200l123 -194v-39l-231 233zM522 505v-39l-122 -200l122 -194v-39l-231 233z" />
    <glyph glyph-name="logicalnot" unicode="&#xac;" horiz-adv-x="653" 
d="M41 399h566v-320h-83v238h-483v82z" />
    <glyph glyph-name="uni00AD" unicode="&#xad;" horiz-adv-x="444" 
d="M379 208h-315v93h315v-93z" />
    <glyph glyph-name="registered" unicode="&#xae;" horiz-adv-x="819" 
d="M408 746c208 0 377 -169 377 -377s-169 -377 -377 -377s-377 169 -377 377s169 377 377 377zM408 70c165 0 299 134 299 299s-134 300 -299 300s-299 -135 -299 -300s134 -299 299 -299zM557 247c11 -41 48 -43 63 -43v-17h-50c-95 1 -80 1 -118 117
c-17 52 -67 52 -67 52h-26v-96c0 -37 17 -56 40 -56v-17h-156v17c23 0 39 19 39 56v247c0 34 -15 40 -39 40v17h133c107 0 182 -12 182 -102c0 -65 -41 -89 -105 -97c35 4 78 -22 104 -118zM376 373c52 0 94 0 94 89c0 85 -42 85 -94 85h-17v-174h17z" />
    <glyph glyph-name="macron" unicode="&#xaf;" horiz-adv-x="360" 
d="M377 587h-393v69h393v-69z" />
    <glyph glyph-name="degree" unicode="&#xb0;" horiz-adv-x="381" 
d="M187 737c71 0 130 -58 130 -130c0 -71 -59 -128 -130 -128s-130 57 -130 128c0 72 59 130 130 130zM277 607c0 49 -40 89 -89 89c-50 0 -91 -40 -91 -89c0 -50 41 -89 91 -89c49 0 89 39 89 89z" />
    <glyph glyph-name="plusminus" unicode="&#xb1;" horiz-adv-x="608" 
d="M340 378h220v-81h-220v-157h-80v157h-219v81h219v157h80v-157zM41 0v80h519v-80h-519z" />
    <glyph glyph-name="twosuperior" unicode="&#xb2;" horiz-adv-x="270" 
d="M207 464h17l-23 -85h-170l104 152c66 112 -56 157 -90 85l-16 3c10 86 92 85 92 85c46 0 78 -34 78 -75c0 -30 -13 -59 -50 -104c-22 -30 -60 -87 -60 -87h77c15 0 31 8 41 26z" />
    <glyph glyph-name="threesuperior" unicode="&#xb3;" horiz-adv-x="276" 
d="M236 485c4 -82 -68 -113 -109 -113c-33 0 -60 10 -80 26c-10 7 -15 22 -12 35c4 19 23 31 42 27c19 -5 31 -24 27 -43c-3 -9 -7 -16 -17 -20c-5 -2 4 -9 40 -9c40 0 59 43 52 76c-3 16 -14 59 -85 68v18c76 23 67 78 40 99c-22 17 -58 15 -75 -21l-17 2c9 74 82 74 82 74
c65 0 123 -69 47 -143c43 -15 63 -49 65 -76z" />
    <glyph glyph-name="acute" unicode="&#xb4;" horiz-adv-x="372" 
d="M87 558l169 163l112 -35l-244 -128h-37z" />
    <glyph glyph-name="mu" unicode="&#xb5;" horiz-adv-x="557" 
d="M336 64c-29 -51 -94 -73 -145 -73v-148c0 -49 10 -60 52 -64v-17l-147 -26c-29 -5 -29 19 -29 19v603c0 60 2 69 -56 77v17l180 19v-324c0 -56 26 -83 84 -83c14 0 33 4 50 17zM487 92c0 -48 9 -52 51 -57v-17l-148 -26c-27 -4 -28 19 -28 19v344c0 61 4 74 -47 80v17
l172 19v-379z" />
    <glyph glyph-name="paragraph" unicode="&#xb6;" horiz-adv-x="657" 
d="M581 687c-50 0 -82 -72 -82 -142v-646c0 -78 27 -147 75 -147v-17h-145v969h152v-17zM288 704h70v-969h-205v17c48 0 134 17 134 147v401c-136 0 -250 34 -250 200c0 165 130 203 250 204h1z" />
    <glyph glyph-name="periodcentered" unicode="&#xb7;" 
d="M198 299c0 -33 -27 -60 -60 -60s-60 27 -60 60s27 60 60 60s60 -27 60 -60z" />
    <glyph glyph-name="cedilla" unicode="&#xb8;" 
d="M98 -66c106 32 150 -32 144 -83c-9 -67 -72 -83 -105 -83c-37 0 -63 14 -71 21c-8 6 -13 19 -11 31c4 17 21 27 38 23s27 -19 24 -37c-1 -7 -4 -11 -8 -14c-2 -2 0 -8 28 -8c32 0 51 23 50 54c0 18 -22 81 -98 69z" />
    <glyph glyph-name="onesuperior" unicode="&#xb9;" horiz-adv-x="232" 
d="M150 435c0 -35 23 -38 40 -38v-17h-147v17c20 0 46 4 46 38v174c0 37 -38 13 -38 13l-12 17l95 65h16v-269z" />
    <glyph glyph-name="ordmasculine" unicode="&#xba;" horiz-adv-x="329" 
d="M164 707c102 0 129 -77 129 -170c0 -92 -27 -164 -129 -164c-103 0 -130 72 -130 164c0 93 27 170 130 170zM164 390c36 0 56 20 56 147c0 128 -22 153 -56 153c-36 0 -57 -25 -57 -153c0 -127 22 -147 57 -147z" />
    <glyph glyph-name="guillemotright" unicode="&#xbb;" horiz-adv-x="609" 
d="M288 466v39l231 -239l-231 -233v39l123 194zM84 466v39l231 -239l-231 -233v39l122 194z" />
    <glyph glyph-name="onequarter" unicode="&#xbc;" horiz-adv-x="654" 
d="M120 644c0 39 -40 11 -40 11l-11 16l97 75h17v-314c0 -40 23 -40 40 -40v-17h-150v17c21 0 47 2 47 40v212zM583 103h-54v-20c0 -65 22 -66 44 -66v-17h-164v17c22 0 44 2 44 64v22h-121v9l170 255l27 -3v-225h54v-36zM453 139v122l-63 -94c-17 -28 -3 -28 7 -28h56z
M570 708h65l-557 -672h-64z" />
    <glyph glyph-name="onehalf" unicode="&#xbd;" horiz-adv-x="655" 
d="M596 97h17l-27 -97h-193l118 174c75 127 -63 177 -101 95l-16 5c11 98 101 98 101 98c53 0 89 -40 89 -87c0 -34 -17 -67 -59 -118c-25 -34 -69 -99 -69 -99h89c17 0 40 9 51 29zM570 708h65l-557 -672h-64zM120 644c0 39 -40 11 -40 11l-11 16l97 75h17v-314
c0 -40 23 -40 40 -40v-17h-150v17c21 0 47 2 47 40v212z" />
    <glyph glyph-name="threequarters" unicode="&#xbe;" horiz-adv-x="656" 
d="M570 708h65l-557 -672h-64zM271 499c0 -98 -76 -127 -122 -127c-40 0 -69 10 -92 28c-11 8 -16 25 -13 39c4 22 26 35 47 31c22 -6 35 -27 31 -49c-4 -10 -7 -17 -14 -20c-5 -2 0 -12 41 -12c53 0 63 47 57 87c-4 18 -15 72 -96 82v15c86 26 76 88 46 111
c-24 17 -65 13 -84 -27l-18 6c10 83 90 83 90 83c74 0 139 -78 53 -161c48 -14 71 -55 74 -86zM583 103h-54v-20c0 -65 22 -66 44 -66v-17h-164v17c22 0 44 2 44 64v22h-121v9l170 255l27 -3v-225h54v-36zM453 139v122l-63 -94c-17 -28 -3 -28 7 -28h56z" />
    <glyph glyph-name="questiondown" unicode="&#xbf;" horiz-adv-x="605" 
d="M328 306c-47 0 -85 37 -85 84s38 85 85 85s84 -38 84 -85s-37 -84 -84 -84zM407 -154c-21 31 -13 73 16 95c30 21 73 12 95 -19c15 -21 13 -47 7 -69c-6 -25 -32 -68 -80 -90l-6 18c23 14 22 37 10 38c-18 3 -31 12 -42 27zM386 -257c-140 -33 -279 32 -285 151
c-6 146 86 204 144 219c54 14 87 58 82 118l26 4c6 -39 11 -106 -53 -159c-47 -40 -63 -85 -54 -178c7 -90 69 -139 135 -137z" />
    <glyph glyph-name="Agrave" unicode="&#xc0;" horiz-adv-x="708" 
d="M610 90c34 -80 58 -71 84 -73v-17h-286v17c78 0 26 107 26 107l-30 73h-237s-62 -188 96 -180v-17h-246v17c24 2 48 -5 134 197h247l-127 311l68 179h17c245 -588 254 -614 254 -614zM316 898l169 -163h-37l-244 128z" />
    <glyph glyph-name="Aacute" unicode="&#xc1;" horiz-adv-x="708" 
d="M610 90c34 -80 58 -71 84 -73v-17h-286v17c78 0 26 107 26 107l-30 73h-237s-62 -188 96 -180v-17h-246v17c24 2 48 -5 134 197h247l-127 311l68 179h17c245 -588 254 -614 254 -614zM223 735l169 163l112 -35l-244 -128h-37z" />
    <glyph glyph-name="Acircumflex" unicode="&#xc2;" horiz-adv-x="708" 
d="M610 90c34 -80 58 -71 84 -73v-17h-286v17c78 0 26 107 26 107l-30 73h-237s-62 -188 96 -180v-17h-246v17c24 2 48 -5 134 197h247l-127 311l68 179h17c245 -588 254 -614 254 -614zM229 735h-36l155 187l155 -187h-37l-118 77z" />
    <glyph glyph-name="Atilde" unicode="&#xc3;" horiz-adv-x="708" 
d="M395 750l-120 43c-34 12 -124 7 -150 -48l-15 6c71 174 192 134 192 134l119 -44c35 -12 125 -3 151 51l15 -8c-72 -174 -192 -134 -192 -134zM610 90c34 -80 58 -71 84 -73v-17h-286v17c78 0 26 107 26 107l-30 73h-237s-62 -188 96 -180v-17h-246v17
c24 2 48 -5 134 197h247l-127 311l68 179h17c245 -588 254 -614 254 -614z" />
    <glyph glyph-name="Adieresis" unicode="&#xc4;" horiz-adv-x="708" 
d="M256 774c-32 0 -59 26 -59 59c0 32 27 59 59 59c33 0 59 -27 59 -59c0 -33 -26 -59 -59 -59zM444 774c-32 0 -59 26 -59 59c0 32 27 59 59 59c33 0 60 -27 60 -59c0 -33 -27 -59 -60 -59zM610 90c34 -80 58 -71 84 -73v-17h-286v17c78 0 26 107 26 107l-30 73h-237
s-62 -188 96 -180v-17h-246v17c24 2 48 -5 134 197h247l-127 311l68 179h17c245 -588 254 -614 254 -614z" />
    <glyph glyph-name="Aring" unicode="&#xc5;" horiz-adv-x="708" 
d="M350 775c-58 0 -105 47 -105 105s47 106 105 106s106 -48 106 -106s-48 -105 -106 -105zM350 940c-33 0 -60 -27 -60 -60s27 -60 60 -60c34 0 60 27 60 60s-26 60 -60 60zM610 90c34 -80 58 -71 84 -73v-17h-286v17c78 0 26 107 26 107l-30 73h-237s-62 -188 96 -180v-17
h-246v17c24 2 48 -5 134 197h247l-127 311l68 179h17c245 -588 254 -614 254 -614z" />
    <glyph glyph-name="AE" unicode="&#xc6;" horiz-adv-x="996" 
d="M903 513c-18 139 -182 167 -247 173v18h264v-191h-17zM594 704v-704h-222v17c43 0 76 15 76 119v106h-214c-125 -233 -5 -225 35 -225v-17h-257v17c25 2 79 23 207 242h229v307c0 92 -30 121 -92 121v17h238zM934 216v-216h-278v19c65 6 230 38 261 197h17zM772 242
c-8 76 -77 98 -116 103v18c39 5 108 27 116 103h17v-224h-17z" />
    <glyph glyph-name="Ccedilla" unicode="&#xc7;" horiz-adv-x="689" 
d="M615 210h17l14 -157c-67 -44 -137 -59 -228 -61v18c103 15 173 101 197 200zM418 694v19c90 -3 171 -15 228 -61l-14 -157h-17c-51 122 -103 187 -197 199zM40 352c0 189 120 345 316 360v-18c-91 -14 -136 -95 -136 -342s47 -328 136 -342v-18
c-196 15 -316 171 -316 360zM349 -68c106 32 150 -32 144 -83c-9 -67 -72 -83 -105 -83c-37 0 -63 14 -71 21c-8 6 -13 19 -11 31c4 17 21 27 38 23s27 -19 24 -37c-1 -7 -4 -11 -8 -14c-2 -2 0 -8 28 -8c32 0 51 23 50 54c0 18 -22 81 -98 69z" />
    <glyph glyph-name="Egrave" unicode="&#xc8;" horiz-adv-x="648" 
d="M590 218v-218h-298v18c68 7 247 38 281 200h17zM230 704v-704h-203v17c42 0 58 52 58 120v429c0 62 -14 121 -58 121v17h203zM560 514c-19 140 -199 167 -268 172v18h285v-190h-17zM292 366c45 5 122 23 136 102h17v-225h-17c-14 78 -91 97 -136 102v21zM275 898
l169 -163h-37l-244 128z" />
    <glyph glyph-name="Eacute" unicode="&#xc9;" horiz-adv-x="648" 
d="M590 218v-218h-298v18c68 7 247 38 281 200h17zM230 704v-704h-203v17c42 0 58 52 58 120v429c0 62 -14 121 -58 121v17h203zM560 514c-19 140 -199 167 -268 172v18h285v-190h-17zM292 366c45 5 122 23 136 102h17v-225h-17c-14 78 -91 97 -136 102v21zM163 735l169 163
l112 -35l-244 -128h-37z" />
    <glyph glyph-name="Ecircumflex" unicode="&#xca;" horiz-adv-x="648" 
d="M590 218v-218h-298v18c68 7 247 38 281 200h17zM230 704v-704h-203v17c42 0 58 52 58 120v429c0 62 -14 121 -58 121v17h203zM560 514c-19 140 -199 167 -268 172v18h285v-190h-17zM292 366c45 5 122 23 136 102h17v-225h-17c-14 78 -91 97 -136 102v21zM189 735h-36
l155 187l155 -187h-37l-118 77z" />
    <glyph glyph-name="Edieresis" unicode="&#xcb;" horiz-adv-x="648" 
d="M210 774c-32 0 -59 26 -59 59c0 32 27 59 59 59c33 0 59 -27 59 -59c0 -33 -26 -59 -59 -59zM398 774c-32 0 -59 26 -59 59c0 32 27 59 59 59c33 0 60 -27 60 -59c0 -33 -27 -59 -60 -59zM590 218v-218h-298v18c68 7 247 38 281 200h17zM230 704v-704h-203v17
c42 0 58 52 58 120v429c0 62 -14 121 -58 121v17h203zM560 514c-19 140 -199 167 -268 172v18h285v-190h-17zM292 366c45 5 122 23 136 102h17v-225h-17c-14 78 -91 97 -136 102v21z" />
    <glyph glyph-name="Igrave" unicode="&#xcc;" horiz-adv-x="388" 
d="M37 704h315v-17c-43 0 -85 -27 -85 -89v-476c0 -69 43 -105 85 -105v-17h-315v17c42 0 85 36 85 105v476c0 62 -41 89 -85 89v17zM156 898l169 -163h-37l-244 128z" />
    <glyph glyph-name="Iacute" unicode="&#xcd;" horiz-adv-x="388" 
d="M352 704h-315v-17c44 0 85 -27 85 -89v-476c0 -69 -43 -105 -85 -105v-17h315v17c-42 0 -85 36 -85 105v476c0 62 42 89 85 89v17zM53 735l169 163l112 -35l-244 -128h-37z" />
    <glyph glyph-name="Icircumflex" unicode="&#xce;" horiz-adv-x="388" 
d="M37 704h315v-17c-43 0 -85 -27 -85 -89v-476c0 -69 43 -105 85 -105v-17h-315v17c42 0 85 36 85 105v476c0 62 -41 89 -85 89v17zM76 735h-36l155 187l155 -187h-37l-118 77z" />
    <glyph glyph-name="Idieresis" unicode="&#xcf;" horiz-adv-x="388" 
d="M101 774c-32 0 -59 26 -59 59c0 32 27 59 59 59c33 0 59 -27 59 -59c0 -33 -26 -59 -59 -59zM289 774c-32 0 -59 26 -59 59c0 32 27 59 59 59c33 0 60 -27 60 -59c0 -33 -27 -59 -60 -59zM352 704h-315v-17c44 0 85 -27 85 -89v-476c0 -69 -43 -105 -85 -105v-17h315v17
c-42 0 -85 36 -85 105v476c0 62 42 89 85 89v17z" />
    <glyph glyph-name="Eth" unicode="&#xd0;" horiz-adv-x="764" 
d="M257 343v-343h-220v17c43 0 75 52 75 120v206h-74v18h74v205c0 62 -31 121 -75 121v17h220v-343h146v-18h-146zM720 349c0 -283 -207 -345 -401 -349v17c97 4 226 40 226 332c0 293 -129 334 -226 338v17c194 -4 401 -71 401 -355z" />
    <glyph glyph-name="Ntilde" unicode="&#xd1;" horiz-adv-x="840" 
d="M468 750l-120 43c-34 12 -124 7 -150 -48l-15 6c71 174 192 134 192 134l119 -44c35 -12 125 -3 151 51l15 -8c-72 -174 -192 -134 -192 -134zM184 255c0 0 -1 -238 137 -238v-17h-304v17c151 0 150 238 150 238h17zM9 704h245l420 -518v-186h-53l-493 616
c-64 80 -93 69 -119 71v17zM520 687v17h303v-17c-151 1 -149 -237 -149 -237h-17s1 238 -137 237z" />
    <glyph glyph-name="Ograve" unicode="&#xd2;" horiz-adv-x="776" 
d="M212 347c0 -249 45 -325 141 -338v-17c-199 15 -312 166 -312 355c0 188 113 348 312 364v-18c-96 -13 -141 -98 -141 -346zM731 347c0 -190 -114 -341 -315 -355v17c97 12 142 87 142 338c0 249 -45 333 -142 347v17c201 -15 315 -176 315 -364zM352 898l169 -163h-37
l-244 128z" />
    <glyph glyph-name="Oacute" unicode="&#xd3;" horiz-adv-x="776" 
d="M212 347c0 -249 45 -325 141 -338v-17c-199 15 -312 166 -312 355c0 188 113 348 312 364v-18c-96 -13 -141 -98 -141 -346zM731 347c0 -190 -114 -341 -315 -355v17c97 12 142 87 142 338c0 249 -45 333 -142 347v17c201 -15 315 -176 315 -364zM246 735l169 163
l112 -35l-244 -128h-37z" />
    <glyph glyph-name="Ocircumflex" unicode="&#xd4;" horiz-adv-x="776" 
d="M212 347c0 -249 45 -325 141 -338v-17c-199 15 -312 166 -312 355c0 188 113 348 312 364v-18c-96 -13 -141 -98 -141 -346zM731 347c0 -190 -114 -341 -315 -355v17c97 12 142 87 142 338c0 249 -45 333 -142 347v17c201 -15 315 -176 315 -364zM271 735h-36l155 187
l155 -187h-37l-118 77z" />
    <glyph glyph-name="Otilde" unicode="&#xd5;" horiz-adv-x="776" 
d="M437 750l-120 43c-34 12 -124 7 -150 -48l-15 6c71 174 192 134 192 134l119 -44c35 -12 125 -3 151 51l15 -8c-72 -174 -192 -134 -192 -134zM212 347c0 -249 45 -325 141 -338v-17c-199 15 -312 166 -312 355c0 188 113 348 312 364v-18c-96 -13 -141 -98 -141 -346z
M731 347c0 -190 -114 -341 -315 -355v17c97 12 142 87 142 338c0 249 -45 333 -142 347v17c201 -15 315 -176 315 -364z" />
    <glyph glyph-name="Odieresis" unicode="&#xd6;" horiz-adv-x="776" 
d="M293 774c-32 0 -59 26 -59 59c0 32 27 59 59 59c33 0 59 -27 59 -59c0 -33 -26 -59 -59 -59zM481 774c-32 0 -59 26 -59 59c0 32 27 59 59 59c33 0 60 -27 60 -59c0 -33 -27 -59 -60 -59zM212 347c0 -249 45 -325 141 -338v-17c-199 15 -312 166 -312 355
c0 188 113 348 312 364v-18c-96 -13 -141 -98 -141 -346zM731 347c0 -190 -114 -341 -315 -355v17c97 12 142 87 142 338c0 249 -45 333 -142 347v17c201 -15 315 -176 315 -364z" />
    <glyph glyph-name="multiply" unicode="&#xd7;" horiz-adv-x="600" 
d="M540 432l-178 -178l178 -178l-62 -63l-178 178l-178 -178l-63 63l178 178l-178 178l63 63l178 -178l178 178z" />
    <glyph glyph-name="Oslash" unicode="&#xd8;" horiz-adv-x="777" 
d="M731 347c0 -190 -114 -341 -314 -355v18c96 11 141 87 141 337c0 103 -8 178 -24 232l-292 -480c23 -59 60 -83 112 -89v-18c-57 4 -108 19 -150 44l-43 -71h-21l49 80c-96 63 -148 173 -148 302c0 188 113 349 313 364v-17c-97 -14 -142 -98 -142 -347
c0 -102 7 -175 23 -226l292 480c-24 59 -60 85 -110 92v18c57 -4 106 -20 149 -45l48 79h21l-54 -88c97 -66 150 -182 150 -310z" />
    <glyph glyph-name="Ugrave" unicode="&#xd9;" horiz-adv-x="752" 
d="M340 898l169 -163h-37l-244 128zM405 51c76 0 165 63 165 189h17c0 -214 -159 -249 -247 -249c-136 0 -248 92 -248 255v353c0 61 -36 88 -80 88v17h318v-17c-43 0 -93 -16 -93 -88v-360c0 -118 73 -188 168 -188zM434 687v17h302v-17c-151 1 -149 -150 -149 -150h-17
s2 151 -136 150z" />
    <glyph glyph-name="Uacute" unicode="&#xda;" horiz-adv-x="752" 
d="M405 51c76 0 165 63 165 189h17c0 -214 -159 -249 -247 -249c-136 0 -248 92 -248 255v353c0 61 -36 88 -80 88v17h318v-17c-43 0 -93 -16 -93 -88v-360c0 -118 73 -188 168 -188zM434 687v17h302v-17c-151 1 -149 -150 -149 -150h-17s2 151 -136 150zM246 735l169 163
l112 -35l-244 -128h-37z" />
    <glyph glyph-name="Ucircumflex" unicode="&#xdb;" horiz-adv-x="752" 
d="M261 735h-36l155 187l155 -187h-37l-118 77zM405 51c76 0 165 63 165 189h17c0 -214 -159 -249 -247 -249c-136 0 -248 92 -248 255v353c0 61 -36 88 -80 88v17h318v-17c-43 0 -93 -16 -93 -88v-360c0 -118 73 -188 168 -188zM434 687v17h302v-17
c-151 1 -149 -150 -149 -150h-17s2 151 -136 150z" />
    <glyph glyph-name="Udieresis" unicode="&#xdc;" horiz-adv-x="752" 
d="M282 774c-32 0 -59 26 -59 59c0 32 27 59 59 59c33 0 59 -27 59 -59c0 -33 -26 -59 -59 -59zM470 774c-32 0 -59 26 -59 59c0 32 27 59 59 59c33 0 60 -27 60 -59c0 -33 -27 -59 -60 -59zM405 51c76 0 165 63 165 189h17c0 -214 -159 -249 -247 -249
c-136 0 -248 92 -248 255v353c0 61 -36 88 -80 88v17h318v-17c-43 0 -93 -16 -93 -88v-360c0 -118 73 -188 168 -188zM434 687v17h302v-17c-151 1 -149 -150 -149 -150h-17s2 151 -136 150z" />
    <glyph glyph-name="Yacute" unicode="&#xdd;" horiz-adv-x="771" 
d="M456 121c0 -68 43 -104 85 -104v-17h-315v17c42 0 85 36 85 104v155c-147 260 -195 333 -195 333c-44 76 -82 79 -107 79v16h319v-16c-21 0 -91 1 -23 -114l151 -247v-206zM458 687v17h300v-17c-26 0 -124 -2 -236 -221l-12 15s92 206 -52 206zM275 735l169 163l112 -35
l-244 -128h-37z" />
    <glyph glyph-name="Thorn" unicode="&#xde;" horiz-adv-x="665" 
d="M258 598v-477c0 -68 42 -104 84 -104v-17h-315v17c42 0 85 36 85 104v477c0 62 -41 89 -85 89v17h315v-17c-43 0 -84 -27 -84 -89zM470 374c0 162 -65 182 -150 185v17c185 -4 314 -43 314 -202s-129 -196 -314 -199v17c85 2 150 21 150 182z" />
    <glyph glyph-name="germandbls" unicode="&#xdf;" horiz-adv-x="624" 
d="M68 488c0 144 62 247 192 257v-17c-71 -32 -68 -216 -68 -216v-512h-164v17c38 12 40 54 40 105v366zM326 23c-6 -3 -4 -11 14 -14v-17c-46 4 -72 20 -83 34c-15 16 -22 43 -16 65c9 32 42 50 74 40c31 -9 49 -42 40 -73c-5 -16 -16 -29 -29 -35zM601 203
c0 -102 -50 -195 -199 -210v17c56 30 58 133 58 205c0 123 -109 193 -175 193v17c53 0 103 24 103 157c0 97 -35 135 -65 146v17c89 -5 178 -36 178 -169c0 -127 -110 -156 -130 -156c64 0 230 -54 230 -217z" />
    <glyph glyph-name="agrave" unicode="&#xe0;" horiz-adv-x="526" 
d="M166 303c-26 -17 -61 -11 -79 15c-12 19 -13 43 -3 60c9 15 21 38 64 64l7 -16c-15 -12 -16 -22 -11 -22c15 -2 28 -9 37 -22c18 -26 11 -61 -15 -79zM474 52c0 0 21 0 27 17l17 -7c-8 -32 -54 -71 -117 -71c0 0 -101 0 -101 90v157c-98 -22 -131 -69 -131 -120
c0 0 0 -66 65 -66c11 0 21 1 29 5l12 -17c-27 -25 -70 -49 -119 -49c0 0 -115 0 -115 102c0 109 84 119 259 163v62c0 94 -48 145 -108 127l-7 15c38 13 74 11 74 11c131 0 167 -82 167 -200v-149s-1 -70 48 -70zM232 704l169 -163h-37l-244 128z" />
    <glyph glyph-name="aacute" unicode="&#xe1;" horiz-adv-x="526" 
d="M166 303c-26 -17 -61 -11 -79 15c-12 19 -13 43 -3 60c9 15 21 38 64 64l7 -16c-15 -12 -16 -22 -11 -22c15 -2 28 -9 37 -22c18 -26 11 -61 -15 -79zM474 52c0 0 21 0 27 17l17 -7c-8 -32 -54 -71 -117 -71c0 0 -101 0 -101 90v157c-98 -22 -131 -69 -131 -120
c0 0 0 -66 65 -66c11 0 21 1 29 5l12 -17c-27 -25 -70 -49 -119 -49c0 0 -115 0 -115 102c0 109 84 119 259 163v62c0 94 -48 145 -108 127l-7 15c38 13 74 11 74 11c131 0 167 -82 167 -200v-149s-1 -70 48 -70zM141 541l169 163l112 -35l-244 -128h-37z" />
    <glyph glyph-name="acircumflex" unicode="&#xe2;" horiz-adv-x="526" 
d="M166 303c-26 -17 -61 -11 -79 15c-12 19 -13 43 -3 60c9 15 21 38 64 64l7 -16c-15 -12 -16 -22 -11 -22c15 -2 28 -9 37 -22c18 -26 11 -61 -15 -79zM474 52c0 0 21 0 27 17l17 -7c-8 -32 -54 -71 -117 -71c0 0 -101 0 -101 90v157c-98 -22 -131 -69 -131 -120
c0 0 0 -66 65 -66c11 0 21 1 29 5l12 -17c-27 -25 -70 -49 -119 -49c0 0 -115 0 -115 102c0 109 84 119 259 163v62c0 94 -48 145 -108 127l-7 15c38 13 74 11 74 11c131 0 167 -82 167 -200v-149s-1 -70 48 -70zM156 517h-36l155 187l155 -187h-37l-118 77z" />
    <glyph glyph-name="atilde" unicode="&#xe3;" horiz-adv-x="526" 
d="M316 547l-120 43c-34 12 -124 7 -150 -48l-15 6c71 174 192 134 192 134l119 -44c35 -12 125 -3 151 51l15 -8c-72 -174 -192 -134 -192 -134zM166 303c-26 -17 -61 -11 -79 15c-12 19 -13 43 -3 60c9 15 21 38 64 64l7 -16c-15 -12 -16 -22 -11 -22c15 -2 28 -9 37 -22
c18 -26 11 -61 -15 -79zM474 52c0 0 21 0 27 17l17 -7c-8 -32 -54 -71 -117 -71c0 0 -101 0 -101 90v157c-98 -22 -131 -69 -131 -120c0 0 0 -66 65 -66c11 0 21 1 29 5l12 -17c-27 -25 -70 -49 -119 -49c0 0 -115 0 -115 102c0 109 84 119 259 163v62
c0 94 -48 145 -108 127l-7 15c38 13 74 11 74 11c131 0 167 -82 167 -200v-149s-1 -70 48 -70z" />
    <glyph glyph-name="adieresis" unicode="&#xe4;" horiz-adv-x="526" 
d="M236 616c0 -33 -26 -60 -59 -60s-59 27 -59 60c0 32 26 59 59 59s59 -27 59 -59zM424 616c0 -33 -26 -60 -59 -60s-59 27 -59 60c0 32 26 59 59 59s59 -27 59 -59zM166 303c-26 -17 -61 -11 -79 15c-12 19 -13 43 -3 60c9 15 21 38 64 64l7 -16c-15 -12 -16 -22 -11 -22
c15 -2 28 -9 37 -22c18 -26 11 -61 -15 -79zM474 52c0 0 21 0 27 17l17 -7c-8 -32 -54 -71 -117 -71c0 0 -101 0 -101 90v157c-98 -22 -131 -69 -131 -120c0 0 0 -66 65 -66c11 0 21 1 29 5l12 -17c-27 -25 -70 -49 -119 -49c0 0 -115 0 -115 102c0 109 84 119 259 163v62
c0 94 -48 145 -108 127l-7 15c38 13 74 11 74 11c131 0 167 -82 167 -200v-149s-1 -70 48 -70z" />
    <glyph glyph-name="aring" unicode="&#xe5;" horiz-adv-x="526" 
d="M266 533c-58 0 -105 47 -105 105s47 105 105 105s105 -47 105 -105s-47 -105 -105 -105zM266 698c-33 0 -60 -27 -60 -60s27 -60 60 -60s60 27 60 60s-27 60 -60 60zM166 303c-26 -17 -61 -11 -79 15c-12 19 -13 43 -3 60c9 15 21 38 64 64l7 -16
c-15 -12 -16 -22 -11 -22c15 -2 28 -9 37 -22c18 -26 11 -61 -15 -79zM474 52c0 0 21 0 27 17l17 -7c-8 -32 -54 -71 -117 -71c0 0 -101 0 -101 90v157c-98 -22 -131 -69 -131 -120c0 0 0 -66 65 -66c11 0 21 1 29 5l12 -17c-27 -25 -70 -49 -119 -49c0 0 -115 0 -115 102
c0 109 84 119 259 163v62c0 94 -48 145 -108 127l-7 15c38 13 74 11 74 11c131 0 167 -82 167 -200v-149s-1 -70 48 -70z" />
    <glyph glyph-name="ae" unicode="&#xe6;" horiz-adv-x="739" 
d="M81 378c9 15 21 39 65 65l9 -14c-18 -13 -18 -23 -12 -23c15 -2 26 -11 35 -24c18 -26 11 -61 -15 -79c-26 -17 -61 -11 -79 15c-12 19 -13 43 -3 60zM526 76c54 -12 114 18 138 55l18 -9c-16 -52 -51 -131 -183 -131c-82 0 -199 64 -207 206c-1 25 -1 44 -1 44
c-25 -7 -122 -38 -122 -123c0 0 -4 -66 61 -66c26 0 48 9 62 23l11 -18c-28 -36 -79 -66 -147 -66c0 0 -115 0 -115 102c0 104 77 120 250 166v59c0 91 -42 142 -99 128l-8 15c35 11 64 10 64 10c57 0 96 -27 119 -67c36 35 72 60 118 65v-17c-47 -19 -70 -111 -70 -195h170
c0 109 -16 180 -58 195v18c128 -7 170 -82 170 -230h-282c6 -98 44 -149 111 -164z" />
    <glyph glyph-name="ccedilla" unicode="&#xe7;" horiz-adv-x="499" 
d="M357 433c7 3 -6 14 -32 19v18c58 -5 94 -30 110 -43c17 -15 27 -43 20 -67c-10 -35 -46 -58 -82 -48c-36 9 -57 46 -47 81c4 19 16 32 31 40zM450 129l14 -9c-14 -51 -74 -129 -199 -129c-131 0 -220 125 -220 242c0 110 81 227 238 237v-19c-43 -10 -112 -55 -112 -200
c0 -108 58 -156 127 -171c50 -11 129 16 152 49zM213 -67c106 32 150 -32 144 -83c-9 -67 -72 -83 -105 -83c-37 0 -63 14 -71 21c-8 6 -13 19 -11 31c4 17 21 27 38 23s27 -19 24 -37c-1 -7 -4 -11 -8 -14c-2 -2 0 -8 28 -8c32 0 51 23 50 54c0 18 -22 81 -98 69z" />
    <glyph glyph-name="egrave" unicode="&#xe8;" horiz-adv-x="524" 
d="M290 76c54 -12 134 8 159 55l17 -9c-16 -52 -75 -131 -209 -131c-131 0 -221 121 -221 238c0 132 85 230 210 240v-16c-49 -19 -81 -111 -81 -196h196c0 107 -30 179 -74 196v17c133 -6 196 -81 196 -230h-318c8 -98 58 -149 125 -164zM228 704l169 -163h-37l-244 128z
" />
    <glyph glyph-name="eacute" unicode="&#xe9;" horiz-adv-x="524" 
d="M290 76c54 -12 134 8 159 55l17 -9c-16 -52 -75 -131 -209 -131c-131 0 -221 121 -221 238c0 132 85 230 210 240v-16c-49 -19 -81 -111 -81 -196h196c0 107 -30 179 -74 196v17c133 -6 196 -81 196 -230h-318c8 -98 58 -149 125 -164zM127 541l169 163l112 -35
l-244 -128h-37z" />
    <glyph glyph-name="ecircumflex" unicode="&#xea;" horiz-adv-x="524" 
d="M290 76c54 -12 134 8 159 55l17 -9c-16 -52 -75 -131 -209 -131c-131 0 -221 121 -221 238c0 132 85 230 210 240v-16c-49 -19 -81 -111 -81 -196h196c0 107 -30 179 -74 196v17c133 -6 196 -81 196 -230h-318c8 -98 58 -149 125 -164zM138 517h-36l155 187l155 -187h-37
l-118 77z" />
    <glyph glyph-name="edieresis" unicode="&#xeb;" horiz-adv-x="524" 
d="M226 616c0 -33 -26 -60 -59 -60s-59 27 -59 60c0 32 26 59 59 59s59 -27 59 -59zM414 616c0 -33 -26 -60 -59 -60s-59 27 -59 60c0 32 26 59 59 59s59 -27 59 -59zM290 76c54 -12 134 8 159 55l17 -9c-16 -52 -75 -131 -209 -131c-131 0 -221 121 -221 238
c0 132 85 230 210 240v-16c-49 -19 -81 -111 -81 -196h196c0 107 -30 179 -74 196v17c133 -6 196 -81 196 -230h-318c8 -98 58 -149 125 -164z" />
    <glyph glyph-name="igrave" unicode="&#xec;" horiz-adv-x="282" 
d="M203 122c0 -56 5 -95 41 -105v-17h-205v17c38 12 40 54 40 105v222c0 34 -10 48 -51 70v17l175 40v-349zM108 704l169 -163h-37l-244 128z" />
    <glyph glyph-name="iacute" unicode="&#xed;" horiz-adv-x="282" 
d="M203 122c0 -56 5 -95 41 -105v-17h-205v17c38 12 40 54 40 105v222c0 34 -10 48 -51 70v17l175 40v-349zM9 541l169 163l112 -35l-244 -128h-37z" />
    <glyph glyph-name="icircumflex" unicode="&#xee;" horiz-adv-x="282" 
d="M203 122c0 -56 5 -95 41 -105v-17h-205v17c38 12 40 54 40 105v222c0 34 -10 48 -51 70v17l175 40v-349zM34 517h-36l155 187l155 -187h-37l-118 77z" />
    <glyph glyph-name="idieresis" unicode="&#xef;" horiz-adv-x="282" 
d="M102 616c0 -33 -26 -60 -59 -60s-59 27 -59 60c0 32 26 59 59 59s59 -27 59 -59zM290 616c0 -33 -26 -60 -59 -60s-59 27 -59 60c0 32 26 59 59 59s59 -27 59 -59zM203 122c0 -56 5 -95 41 -105v-17h-205v17c38 12 40 54 40 105v222c0 34 -10 48 -51 70v17l175 40v-349z
" />
    <glyph glyph-name="eth" unicode="&#xf0;" horiz-adv-x="579" 
d="M417 642c74 -63 124 -172 124 -324c0 -187 -76 -311 -223 -326v19c49 25 65 125 65 321c-32 57 -75 75 -104 75c-56 0 -94 -79 -94 -209s23 -175 70 -187v-19c-120 11 -217 83 -217 226c0 110 50 219 192 219c46 0 117 -9 153 -69c-2 104 -16 182 -41 235l-170 -86
l-13 14l174 90c-36 56 -95 75 -150 75v17c81 0 161 -22 217 -58l103 53l15 -14z" />
    <glyph glyph-name="ntilde" unicode="&#xf1;" horiz-adv-x="539" 
d="M312 547l-120 43c-34 12 -124 7 -150 -48l-15 6c71 174 192 134 192 134l119 -44c35 -12 125 -3 151 51l15 -8c-72 -174 -192 -134 -192 -134zM185 120c0 -55 6 -93 41 -103v-17h-205v17c38 11 39 52 39 103v226c0 35 -9 46 -50 68v17l175 40v-351zM476 122
c0 -55 5 -96 41 -105v-17h-206v17c38 11 40 54 40 105v194c0 48 -31 83 -81 83c-13 0 -27 -5 -40 -12l-12 20c35 36 86 64 132 64c78 0 126 -31 126 -152v-197z" />
    <glyph glyph-name="ograve" unicode="&#xf2;" horiz-adv-x="555" 
d="M517 231c0 -125 -78 -230 -218 -239v18c55 8 70 59 70 221s-15 213 -70 221v18c140 -9 218 -113 218 -239zM188 231c0 -162 15 -213 70 -221v-18c-139 9 -217 114 -217 239c0 126 78 230 217 239v-18c-55 -8 -70 -59 -70 -221zM242 704l169 -163h-37l-244 128z" />
    <glyph glyph-name="oacute" unicode="&#xf3;" horiz-adv-x="555" 
d="M517 231c0 -125 -78 -230 -218 -239v18c55 8 70 59 70 221s-15 213 -70 221v18c140 -9 218 -113 218 -239zM188 231c0 -162 15 -213 70 -221v-18c-139 9 -217 114 -217 239c0 126 78 230 217 239v-18c-55 -8 -70 -59 -70 -221zM149 541l169 163l112 -35l-244 -128h-37z
" />
    <glyph glyph-name="ocircumflex" unicode="&#xf4;" horiz-adv-x="555" 
d="M517 231c0 -125 -78 -230 -218 -239v18c55 8 70 59 70 221s-15 213 -70 221v18c140 -9 218 -113 218 -239zM188 231c0 -162 15 -213 70 -221v-18c-139 9 -217 114 -217 239c0 126 78 230 217 239v-18c-55 -8 -70 -59 -70 -221zM165 517h-36l155 187l155 -187h-37l-118 77
z" />
    <glyph glyph-name="otilde" unicode="&#xf5;" horiz-adv-x="555" 
d="M321 547l-120 43c-34 12 -124 7 -150 -48l-15 6c71 174 192 134 192 134l119 -44c35 -12 125 -3 151 51l15 -8c-72 -174 -192 -134 -192 -134zM517 231c0 -125 -78 -230 -218 -239v18c55 8 70 59 70 221s-15 213 -70 221v18c140 -9 218 -113 218 -239zM188 231
c0 -162 15 -213 70 -221v-18c-139 9 -217 114 -217 239c0 126 78 230 217 239v-18c-55 -8 -70 -59 -70 -221z" />
    <glyph glyph-name="odieresis" unicode="&#xf6;" horiz-adv-x="555" 
d="M244 616c0 -33 -26 -60 -59 -60s-59 27 -59 60c0 32 26 59 59 59s59 -27 59 -59zM432 616c0 -33 -26 -60 -59 -60s-59 27 -59 60c0 32 26 59 59 59s59 -27 59 -59zM517 231c0 -125 -78 -230 -218 -239v18c55 8 70 59 70 221s-15 213 -70 221v18c140 -9 218 -113 218 -239
zM188 231c0 -162 15 -213 70 -221v-18c-139 9 -217 114 -217 239c0 126 78 230 217 239v-18c-55 -8 -70 -59 -70 -221z" />
    <glyph glyph-name="divide" unicode="&#xf7;" horiz-adv-x="625" 
d="M581 230h-536v93h536v-93zM380 493c0 -37 -30 -68 -68 -68c-37 0 -67 31 -67 68s30 68 67 68c38 0 68 -31 68 -68zM380 60c0 -38 -30 -68 -68 -68c-37 0 -67 30 -67 68c0 37 30 67 67 67c38 0 68 -30 68 -67z" />
    <glyph glyph-name="oslash" unicode="&#xf8;" horiz-adv-x="557" 
d="M517 231c0 -125 -78 -230 -218 -239v17c55 9 70 59 70 222c0 51 -2 92 -6 123l-166 -270c10 -50 28 -70 61 -75v-17c-38 2 -72 11 -101 27l-53 -86h-17l58 94c-68 42 -104 118 -104 204c0 125 78 229 217 239v-18c-55 -9 -70 -59 -70 -221c0 -53 1 -94 5 -125l167 270
c-10 50 -28 70 -61 76v17c39 -2 73 -12 102 -27l51 83h17l-56 -90c68 -43 104 -118 104 -204z" />
    <glyph glyph-name="ugrave" unicode="&#xf9;" horiz-adv-x="559" 
d="M493 92c0 -48 9 -52 51 -57v-17l-148 -26c-27 -4 -28 19 -28 19v344c0 61 4 74 -47 80v17l172 19v-379zM331 81l12 -20c-36 -40 -97 -70 -144 -70c-79 0 -126 33 -126 153v214c0 60 2 69 -56 77v17l180 19v-324c0 -56 26 -83 84 -83c15 0 33 4 50 17zM242 704l169 -163
h-37l-244 128z" />
    <glyph glyph-name="uacute" unicode="&#xfa;" horiz-adv-x="559" 
d="M493 92c0 -48 9 -52 51 -57v-17l-148 -26c-27 -4 -28 19 -28 19v344c0 61 4 74 -47 80v17l172 19v-379zM331 81l12 -20c-36 -40 -97 -70 -144 -70c-79 0 -126 33 -126 153v214c0 60 2 69 -56 77v17l180 19v-324c0 -56 26 -83 84 -83c15 0 33 4 50 17zM149 541l169 163
l112 -35l-244 -128h-37z" />
    <glyph glyph-name="ucircumflex" unicode="&#xfb;" horiz-adv-x="559" 
d="M493 92c0 -48 9 -52 51 -57v-17l-148 -26c-27 -4 -28 19 -28 19v344c0 61 4 74 -47 80v17l172 19v-379zM331 81l12 -20c-36 -40 -97 -70 -144 -70c-79 0 -126 33 -126 153v214c0 60 2 69 -56 77v17l180 19v-324c0 -56 26 -83 84 -83c15 0 33 4 50 17zM158 517h-36
l155 187l155 -187h-37l-118 77z" />
    <glyph glyph-name="udieresis" unicode="&#xfc;" horiz-adv-x="559" 
d="M242 616c0 -33 -26 -60 -59 -60s-59 27 -59 60c0 32 26 59 59 59s59 -27 59 -59zM430 616c0 -33 -26 -60 -59 -60s-59 27 -59 60c0 32 26 59 59 59s59 -27 59 -59zM493 92c0 -48 9 -52 51 -57v-17l-148 -26c-27 -4 -28 19 -28 19v344c0 61 4 74 -47 80v17l172 19v-379z
M331 81l12 -20c-36 -40 -97 -70 -144 -70c-79 0 -126 33 -126 153v214c0 60 2 69 -56 77v17l180 19v-324c0 -56 26 -83 84 -83c15 0 33 4 50 17z" />
    <glyph glyph-name="yacute" unicode="&#xfd;" horiz-adv-x="541" 
d="M330 462h196v-17c-21 0 -67 -2 -131 -156l-12 14c13 33 45 143 -53 142v17zM337 136l-55 -145h-19l-189 415c-16 39 -48 39 -63 39v17h236v-17c-52 0 -26 -61 -26 -61zM242 -114h-18c-16 -42 -39 -47 -43 -35c-5 17 -16 33 -34 41c-35 16 -76 0 -92 -35
c-15 -35 0 -76 35 -92c24 -11 59 -5 77 10c19 15 49 43 75 111zM130 541l169 163l112 -35l-244 -128h-37z" />
    <glyph glyph-name="thorn" unicode="&#xfe;" horiz-adv-x="600" 
d="M556 227c0 -154 -97 -228 -227 -235v17c58 11 84 73 84 209c0 161 -38 216 -119 216c-60 0 -96 -48 -103 -108v-183c8 -89 52 -126 97 -134v-17c-37 3 -71 13 -97 30v-173c0 -56 6 -88 41 -97v-17h-205v17c38 11 40 46 40 97v769c0 34 -10 41 -50 56v17l174 40v-341
c32 59 105 81 152 81c113 0 213 -87 213 -244z" />
    <glyph glyph-name="ydieresis" unicode="&#xff;" horiz-adv-x="541" 
d="M235 616c0 -33 -26 -60 -59 -60s-59 27 -59 60c0 32 26 59 59 59s59 -27 59 -59zM423 616c0 -33 -26 -60 -59 -60s-59 27 -59 60c0 32 26 59 59 59s59 -27 59 -59zM330 462h196v-17c-21 0 -67 -2 -131 -156l-12 14c13 33 45 143 -53 142v17zM337 136l-55 -145h-19
l-189 415c-16 39 -48 39 -63 39v17h236v-17c-52 0 -26 -61 -26 -61zM242 -114h-18c-16 -42 -39 -47 -43 -35c-5 17 -16 33 -34 41c-35 16 -76 0 -92 -35c-15 -35 0 -76 35 -92c24 -11 59 -5 77 10c19 15 49 43 75 111z" />
    <glyph glyph-name="Abreve" unicode="&#x102;" horiz-adv-x="708" 
d="M610 90c34 -80 58 -71 84 -73v-17h-286v17c78 0 26 107 26 107l-30 73h-237s-62 -188 96 -180v-17h-246v17c24 2 48 -5 134 197h247l-127 311l68 179h17c245 -588 254 -614 254 -614zM349 841c92 0 116 36 116 73h17c0 -76 -38 -148 -133 -148c-97 0 -136 72 -136 148h17
c0 -37 24 -73 119 -73z" />
    <glyph glyph-name="abreve" unicode="&#x103;" horiz-adv-x="527" 
d="M166 303c-26 -17 -61 -11 -79 15c-12 19 -13 43 -3 60c9 15 21 38 64 64l7 -16c-15 -12 -16 -22 -11 -22c15 -2 28 -9 37 -22c18 -26 11 -61 -15 -79zM474 52c0 0 21 0 27 17l17 -7c-8 -32 -54 -71 -117 -71c0 0 -101 0 -101 90v157c-98 -22 -131 -69 -131 -120
c0 0 0 -66 65 -66c11 0 21 1 29 5l12 -17c-27 -25 -70 -49 -119 -49c0 0 -115 0 -115 102c0 109 84 119 259 163v62c0 94 -48 145 -108 127l-7 15c38 13 74 11 74 11c131 0 167 -82 167 -200v-149s-1 -70 48 -70zM265 631c92 0 116 36 116 73h17c0 -76 -38 -148 -133 -148
c-97 0 -136 72 -136 148h17c0 -37 24 -73 119 -73z" />
    <glyph glyph-name="Aogonek" unicode="&#x104;" horiz-adv-x="708" 
d="M641 0c-61 -33 -87 -74 -78 -112c12 -43 62 -35 62 -35c18 3 30 16 30 35h17c0 -31 -3 -68 -61 -79c-94 -14 -110 48 -110 48c-18 70 27 113 96 143h-189v17c78 0 26 107 26 107l-30 73h-237s-62 -188 96 -180v-17h-246v17c24 2 48 -5 134 197h247l-127 311l68 179h17
c245 -588 254 -614 254 -614c34 -80 58 -71 84 -73v-17h-53z" />
    <glyph glyph-name="aogonek" unicode="&#x105;" horiz-adv-x="527" 
d="M166 303c-26 -17 -61 -11 -79 15c-12 19 -13 43 -3 60c9 15 21 38 64 64l7 -16c-15 -12 -16 -22 -11 -22c15 -2 28 -9 37 -22c18 -26 11 -61 -15 -79zM442 -3c-57 -33 -81 -72 -72 -109c12 -43 62 -35 62 -35c18 3 30 16 30 35h17c0 -31 -3 -68 -61 -79
c-94 -14 -110 48 -110 48c-17 64 20 105 79 135c-28 4 -87 20 -87 89v157c-98 -22 -131 -69 -131 -120c0 0 0 -66 65 -66c11 0 21 1 29 5l12 -17c-27 -25 -70 -49 -119 -49c0 0 -115 0 -115 102c0 109 84 119 259 163v62c0 94 -48 145 -108 127l-7 15c38 13 74 11 74 11
c131 0 167 -82 167 -200v-149s-1 -70 48 -70c0 0 21 0 27 17l17 -7c-6 -25 -35 -53 -76 -65z" />
    <glyph glyph-name="Cacute" unicode="&#x106;" horiz-adv-x="687" 
d="M615 210h17l14 -157c-67 -44 -137 -59 -228 -61v18c103 15 173 101 197 200zM418 694v19c90 -3 171 -15 228 -61l-14 -157h-17c-51 122 -103 187 -197 199zM40 352c0 189 120 345 316 360v-18c-91 -14 -136 -95 -136 -342s47 -328 136 -342v-18
c-196 15 -316 171 -316 360zM223 735l169 163l112 -35l-244 -128h-37z" />
    <glyph glyph-name="cacute" unicode="&#x107;" horiz-adv-x="500" 
d="M357 433c7 3 -6 14 -32 19v18c58 -5 94 -30 110 -43c17 -15 27 -43 20 -67c-10 -35 -46 -58 -82 -48c-36 9 -57 46 -47 81c4 19 16 32 31 40zM450 129l14 -9c-14 -51 -74 -129 -199 -129c-131 0 -220 125 -220 242c0 110 81 227 238 237v-19c-43 -10 -112 -55 -112 -200
c0 -108 58 -156 127 -171c50 -11 129 16 152 49zM141 541l169 163l112 -35l-244 -128h-37z" />
    <glyph glyph-name="Ccaron" unicode="&#x10c;" horiz-adv-x="687" 
d="M615 210h17l14 -157c-67 -44 -137 -59 -228 -61v18c103 15 173 101 197 200zM418 694v19c90 -3 171 -15 228 -61l-14 -157h-17c-51 122 -103 187 -197 199zM40 352c0 189 120 345 316 360v-18c-91 -14 -136 -95 -136 -342s47 -328 136 -342v-18
c-196 15 -316 171 -316 360zM226 922h36l119 -77l118 77h37l-155 -187z" />
    <glyph glyph-name="ccaron" unicode="&#x10d;" horiz-adv-x="500" 
d="M357 433c7 3 -6 14 -32 19v18c58 -5 94 -30 110 -43c17 -15 27 -43 20 -67c-10 -35 -46 -58 -82 -48c-36 9 -57 46 -47 81c4 19 16 32 31 40zM450 129l14 -9c-14 -51 -74 -129 -199 -129c-131 0 -220 125 -220 242c0 110 81 227 238 237v-19c-43 -10 -112 -55 -112 -200
c0 -108 58 -156 127 -171c50 -11 129 16 152 49zM128 704h36l119 -77l118 77h37l-155 -187z" />
    <glyph glyph-name="Dcaron" unicode="&#x10e;" horiz-adv-x="768" 
d="M319 704c194 -4 401 -71 401 -355c0 -283 -207 -345 -401 -349v17c97 4 226 40 226 332c0 293 -129 334 -226 338v17zM37 687v17h220v-704h-220v17c43 0 75 52 75 120v429c0 62 -31 121 -75 121zM171 922h36l119 -77l118 77h37l-155 -187z" />
    <glyph glyph-name="dcaron" unicode="&#x10f;" horiz-adv-x="729" 
d="M599 704h97c0 -136 -132 -209 -132 -209l-13 15s48 39 48 194zM523 97c0 -49 10 -61 51 -66v-17l-147 -22c-28 -4 -28 18 -28 18v62c-32 -59 -106 -81 -153 -81c-113 0 -213 89 -213 247c0 153 96 225 226 232v-18c-58 -11 -84 -69 -84 -205c0 -161 33 -221 114 -221
c68 0 110 50 110 120v141c0 110 -48 155 -99 165v17c38 -3 72 -13 99 -28v191c0 35 -10 45 -51 60v17l175 37v-649z" />
    <glyph glyph-name="Dcroat" unicode="&#x110;" horiz-adv-x="768" 
d="M257 343v-343h-220v17c43 0 75 52 75 120v206h-74v18h74v205c0 62 -31 121 -75 121v17h220v-343h146v-18h-146zM720 349c0 -283 -207 -345 -401 -349v17c97 4 226 40 226 332c0 293 -129 334 -226 338v17c194 -4 401 -71 401 -355z" />
    <glyph glyph-name="dcroat" unicode="&#x111;" horiz-adv-x="611" 
d="M297 568v17h102v47c0 35 -10 45 -51 60v17l175 37v-161h89v-17h-89v-471c0 -49 10 -61 51 -66v-17l-147 -22c-28 -4 -28 18 -28 18v62c-32 -59 -106 -81 -153 -81c-113 0 -213 89 -213 247c0 153 96 225 226 232v-18c-58 -11 -84 -69 -84 -205c0 -161 33 -221 114 -221
c68 0 110 50 110 120v141c0 110 -48 155 -99 165v17c38 -3 72 -13 99 -28v127h-102z" />
    <glyph glyph-name="Eogonek" unicode="&#x118;" horiz-adv-x="653" 
d="M428 243c-14 78 -91 97 -136 102v21c45 5 122 23 136 102h17v-225h-17zM560 514c-19 140 -199 167 -268 172v18h285v-190h-17zM27 687v17h203v-704h-203v17c42 0 58 52 58 120v429c0 62 -14 121 -58 121zM557 0c-61 -33 -87 -74 -78 -112c12 -43 62 -35 62 -35
c18 3 30 16 30 35h17c0 -31 -3 -68 -61 -79c-94 -14 -110 48 -110 48c-18 70 27 113 96 143h-221v18c68 7 247 38 281 200h17v-218h-33z" />
    <glyph glyph-name="eogonek" unicode="&#x119;" horiz-adv-x="524" 
d="M290 76c54 -12 134 8 159 55l17 -9c-15 -47 -64 -116 -173 -129c-52 -31 -74 -69 -66 -105c12 -43 62 -35 62 -35c18 3 30 16 30 35h17c0 -31 -3 -68 -61 -79c-94 -14 -110 48 -110 48c-17 64 19 105 78 135c-124 8 -207 125 -207 237c0 132 85 230 210 240v-16
c-49 -19 -81 -111 -81 -196h196c0 107 -30 179 -74 196v17c133 -6 196 -81 196 -230h-318c8 -98 58 -149 125 -164z" />
    <glyph glyph-name="Ecaron" unicode="&#x11a;" horiz-adv-x="653" 
d="M590 218v-218h-298v18c68 7 247 38 281 200h17zM230 704v-704h-203v17c42 0 58 52 58 120v429c0 62 -14 121 -58 121v17h203zM560 514c-19 140 -199 167 -268 172v18h285v-190h-17zM292 366c45 5 122 23 136 102h17v-225h-17c-14 78 -91 97 -136 102v21zM171 922h36
l119 -77l118 77h37l-155 -187z" />
    <glyph glyph-name="ecaron" unicode="&#x11b;" horiz-adv-x="524" 
d="M290 76c54 -12 134 8 159 55l17 -9c-16 -52 -75 -131 -209 -131c-131 0 -221 121 -221 238c0 132 85 230 210 240v-16c-49 -19 -81 -111 -81 -196h196c0 107 -30 179 -74 196v17c133 -6 196 -81 196 -230h-318c8 -98 58 -149 125 -164zM108 704h36l119 -77l118 77h37
l-155 -187z" />
    <glyph glyph-name="dotlessi" unicode="&#x131;" horiz-adv-x="282" 
d="M203 122c0 -56 5 -95 41 -105v-17h-205v17c38 12 40 54 40 105v222c0 34 -10 48 -51 70v17l175 40v-349z" />
    <glyph glyph-name="Lacute" unicode="&#x139;" horiz-adv-x="667" 
d="M605 217v-217h-290v18c68 7 245 38 273 199h17zM253 598v-598h-216v17c43 0 71 44 71 112v469c0 61 -36 89 -79 89v17h317v-17c-43 0 -93 -17 -93 -89zM162 735l169 163l112 -35l-244 -128h-37z" />
    <glyph glyph-name="lacute" unicode="&#x13a;" horiz-adv-x="265" 
d="M198 121c0 -55 5 -95 40 -104v-17h-205v17c38 11 40 53 40 104v506c0 35 -10 50 -50 65v17l175 37v-625zM-8 764l169 163l112 -35l-244 -128h-37z" />
    <glyph glyph-name="Lcaron" unicode="&#x13d;" horiz-adv-x="667" 
d="M378 704h97c0 -136 -132 -209 -132 -209l-13 15s48 39 48 194zM605 217v-217h-290v18c68 7 245 38 273 199h17zM253 598v-598h-216v17c43 0 71 44 71 112v469c0 61 -36 89 -79 89v17h317v-17c-43 0 -93 -17 -93 -89z" />
    <glyph glyph-name="lcaron" unicode="&#x13e;" horiz-adv-x="422" 
d="M269 704h97c0 -136 -132 -209 -132 -209l-13 15s48 39 48 194zM198 121c0 -55 5 -95 40 -104v-17h-205v17c38 11 40 53 40 104v506c0 35 -10 50 -50 65v17l175 37v-625z" />
    <glyph glyph-name="Lslash" unicode="&#x141;" horiz-adv-x="676" 
d="M631 218v-218h-290v18c249 12 273 200 273 200h17zM279 361v-361h-217v17c42 0 71 53 71 121v141l-120 -67v20l120 67v299c0 62 -36 89 -79 89v17h318v-17c-44 0 -93 -16 -93 -89v-217l194 110v-20z" />
    <glyph glyph-name="lslash" unicode="&#x142;" horiz-adv-x="331" 
d="M11 270v20l90 58v279c0 35 -10 50 -50 65v17l175 37v-317l89 58v-20l-89 -58v-288c0 -55 5 -95 40 -104v-17h-205v17c38 11 40 53 40 104v207z" />
    <glyph glyph-name="Nacute" unicode="&#x143;" horiz-adv-x="840" 
d="M184 255c0 0 -1 -238 137 -238v-17h-304v17c151 0 150 238 150 238h17zM9 704h245l420 -518v-186h-53l-493 616c-64 80 -93 69 -119 71v17zM520 687v17h303v-17c-151 1 -149 -237 -149 -237h-17s1 238 -137 237zM284 735l169 163l112 -35l-244 -128h-37z" />
    <glyph glyph-name="nacute" unicode="&#x144;" horiz-adv-x="539" 
d="M185 120c0 -55 6 -93 41 -103v-17h-205v17c38 11 39 52 39 103v226c0 35 -9 46 -50 68v17l175 40v-351zM476 122c0 -55 5 -96 41 -105v-17h-206v17c38 11 40 54 40 105v194c0 48 -31 83 -81 83c-13 0 -27 -5 -40 -12l-12 20c35 36 86 64 132 64c78 0 126 -31 126 -152
v-197zM154 541l169 163l112 -35l-244 -128h-37z" />
    <glyph glyph-name="Ncaron" unicode="&#x147;" horiz-adv-x="840" 
d="M184 255c0 0 -1 -238 137 -238v-17h-304v17c151 0 150 238 150 238h17zM9 704h245l420 -518v-186h-53l-493 616c-64 80 -93 69 -119 71v17zM520 687v17h303v-17c-151 1 -149 -237 -149 -237h-17s1 238 -137 237zM268 922h36l119 -77l118 77h37l-155 -187z" />
    <glyph glyph-name="ncaron" unicode="&#x148;" horiz-adv-x="539" 
d="M185 120c0 -55 6 -93 41 -103v-17h-205v17c38 11 39 52 39 103v226c0 35 -9 46 -50 68v17l175 40v-351zM476 122c0 -55 5 -96 41 -105v-17h-206v17c38 11 40 54 40 105v194c0 48 -31 83 -81 83c-13 0 -27 -5 -40 -12l-12 20c35 36 86 64 132 64c78 0 126 -31 126 -152
v-197zM132 704h36l119 -77l118 77h37l-155 -187z" />
    <glyph glyph-name="Ohungarumlaut" unicode="&#x150;" horiz-adv-x="775" 
d="M212 347c0 -249 45 -325 141 -338v-17c-199 15 -312 166 -312 355c0 188 113 348 312 364v-18c-96 -13 -141 -98 -141 -346zM731 347c0 -190 -114 -341 -315 -355v17c97 12 142 87 142 338c0 249 -45 333 -142 347v17c201 -15 315 -176 315 -364zM235 735l169 163
l112 -35l-244 -128h-37zM415 735l169 163l112 -35l-244 -128h-37z" />
    <glyph glyph-name="ohungarumlaut" unicode="&#x151;" horiz-adv-x="556" 
d="M517 231c0 -125 -78 -230 -218 -239v18c55 8 70 59 70 221s-15 213 -70 221v18c140 -9 218 -113 218 -239zM188 231c0 -162 15 -213 70 -221v-18c-139 9 -217 114 -217 239c0 126 78 230 217 239v-18c-55 -8 -70 -59 -70 -221zM112 541l169 163l112 -35l-244 -128h-37z
M292 541l169 163l112 -35l-244 -128h-37z" />
    <glyph glyph-name="OE" unicode="&#x152;" horiz-adv-x="1004" 
d="M214 347c0 -250 29 -325 124 -337v-17c-200 13 -295 165 -295 354s95 350 295 365v-18c-95 -13 -124 -97 -124 -347zM941 218v-218h-258v19c62 6 211 39 241 199h17zM779 243c-7 74 -62 97 -96 104v18c34 6 89 30 96 103h17v-225h-17zM911 514c-28 141 -168 167 -228 172
v18h245v-190h-17zM621 704v-704h-178c-16 -3 -29 -5 -43 -7v17c39 4 76 26 76 127v429c0 103 -36 124 -76 129v17c13 -2 25 -4 40 -8h181z" />
    <glyph glyph-name="oe" unicode="&#x153;" horiz-adv-x="783" 
d="M188 229c0 -159 4 -210 50 -219v-18c-137 9 -197 112 -197 237s60 231 197 241v-19c-45 -10 -50 -64 -50 -222zM572 76c54 -12 113 20 138 55l19 -10c-16 -52 -51 -130 -177 -130c-58 0 -104 27 -143 65c-34 -38 -73 -60 -130 -65v19c44 9 50 59 50 219
c0 158 -8 212 -50 222v19c57 -5 102 -32 131 -68c36 36 76 62 120 68v-17c-47 -21 -64 -114 -64 -198h163c0 108 -20 181 -58 198v17c121 -8 170 -84 170 -232h-275c4 -99 39 -147 106 -162z" />
    <glyph glyph-name="Racute" unicode="&#x154;" horiz-adv-x="728" 
d="M604 115c20 -76 91 -96 117 -98v-17h-92c-178 1 -152 1 -222 218c-25 77 -82 96 -110 101v19c82 2 145 20 145 175s-63 172 -145 174v17c182 -3 308 -33 308 -191c0 -122 -76 -167 -195 -181c65 7 145 -37 194 -217zM235 704v-583c0 -68 32 -104 74 -104v-17h-291v17
c43 0 72 36 72 104v477c0 62 -28 89 -72 89v17h217zM183 735l169 163l112 -35l-244 -128h-37z" />
    <glyph glyph-name="racute" unicode="&#x155;" horiz-adv-x="425" 
d="M190 122c0 -56 5 -95 41 -105v-17h-207v17c39 12 40 53 40 105v222c0 34 -9 49 -50 70v17l176 40v-349zM308 466c21 9 59 5 81 -13c31 -27 34 -75 7 -105c-27 -31 -73 -35 -105 -8c-15 14 -23 31 -23 49c0 8 -22 8 -47 -15l-10 14c43 57 76 69 97 78zM82 541l169 163
l112 -35l-244 -128h-37z" />
    <glyph glyph-name="Rcaron" unicode="&#x158;" horiz-adv-x="728" 
d="M604 115c20 -76 91 -96 117 -98v-17h-92c-178 1 -152 1 -222 218c-25 77 -82 96 -110 101v19c82 2 145 20 145 175s-63 172 -145 174v17c182 -3 308 -33 308 -191c0 -122 -76 -167 -195 -181c65 7 145 -37 194 -217zM235 704v-583c0 -68 32 -104 74 -104v-17h-291v17
c43 0 72 36 72 104v477c0 62 -28 89 -72 89v17h217zM150 922h36l119 -77l118 77h37l-155 -187z" />
    <glyph glyph-name="rcaron" unicode="&#x159;" horiz-adv-x="425" 
d="M190 122c0 -56 5 -95 41 -105v-17h-207v17c39 12 40 53 40 105v222c0 34 -9 49 -50 70v17l176 40v-349zM308 466c21 9 59 5 81 -13c31 -27 34 -75 7 -105c-27 -31 -73 -35 -105 -8c-15 14 -23 31 -23 49c0 8 -22 8 -47 -15l-10 14c43 57 76 69 97 78zM45 705h36l119 -77
l118 77h37l-155 -187z" />
    <glyph glyph-name="Sacute" unicode="&#x15a;" horiz-adv-x="616" 
d="M63 245c21 -57 72 -216 225 -235v-18c-171 6 -242 61 -242 61v192h17zM416 377c132 -87 187 -195 112 -304c0 0 -41 -71 -177 -81v17c81 25 96 153 -13 233l-154 97c-142 89 -195 189 -112 298c0 0 43 66 175 75v-17c-82 -23 -101 -140 15 -216zM519 497
c-18 49 -72 180 -209 197v18c150 -5 226 -47 226 -47v-168h-17zM166 735l169 163l112 -35l-244 -128h-37z" />
    <glyph glyph-name="sacute" unicode="&#x15b;" horiz-adv-x="444" 
d="M356 329c-12 32 -40 112 -126 123v18c99 -3 143 -29 143 -29v-112h-17zM303 259c89 -55 119 -142 69 -214c0 0 -33 -47 -119 -53v19c52 16 54 92 -14 137l-101 61c-97 59 -123 140 -68 212c0 0 33 43 118 49v-19c-50 -14 -63 -80 14 -129zM68 163
c14 -37 43 -141 143 -154v-18c-107 5 -160 46 -160 46v126h17zM99 541l169 163l112 -35l-244 -128h-37z" />
    <glyph glyph-name="Scedilla" unicode="&#x15e;" horiz-adv-x="616" 
d="M63 245c21 -57 72 -216 225 -235v-18c-171 6 -242 61 -242 61v192h17zM416 377c132 -87 187 -195 112 -304c0 0 -41 -71 -177 -81v17c81 25 96 153 -13 233l-154 97c-142 89 -195 189 -112 298c0 0 43 66 175 75v-17c-82 -23 -101 -140 15 -216zM519 497
c-18 49 -72 180 -209 197v18c150 -5 226 -47 226 -47v-168h-17zM264 -66c106 32 150 -32 144 -83c-9 -67 -72 -83 -105 -83c-37 0 -63 14 -71 21c-8 6 -13 19 -11 31c4 17 21 27 38 23s27 -19 24 -37c-1 -7 -4 -11 -8 -14c-2 -2 0 -8 28 -8c32 0 51 23 50 54
c0 18 -22 81 -98 69z" />
    <glyph glyph-name="scedilla" unicode="&#x15f;" horiz-adv-x="444" 
d="M356 329c-12 32 -40 112 -126 123v18c99 -3 143 -29 143 -29v-112h-17zM303 259c89 -55 119 -142 69 -214c0 0 -33 -47 -119 -53v19c52 16 54 92 -14 137l-101 61c-97 59 -123 140 -68 212c0 0 33 43 118 49v-19c-50 -14 -63 -80 14 -129zM68 163
c14 -37 43 -141 143 -154v-18c-107 5 -160 46 -160 46v126h17zM188 -66c106 32 150 -32 144 -83c-9 -67 -72 -83 -105 -83c-37 0 -63 14 -71 21c-8 6 -13 19 -11 31c4 17 21 27 38 23s27 -19 24 -37c-1 -7 -4 -11 -8 -14c-2 -2 0 -8 28 -8c32 0 51 23 50 54
c0 18 -22 81 -98 69z" />
    <glyph glyph-name="Scaron" unicode="&#x160;" horiz-adv-x="616" 
d="M63 245c21 -57 72 -216 225 -235v-18c-171 6 -242 61 -242 61v192h17zM416 377c132 -87 187 -195 112 -304c0 0 -41 -71 -177 -81v17c81 25 96 153 -13 233l-154 97c-142 89 -195 189 -112 298c0 0 43 66 175 75v-17c-82 -23 -101 -140 15 -216zM519 497
c-18 49 -72 180 -209 197v18c150 -5 226 -47 226 -47v-168h-17zM137 922h36l119 -77l118 77h37l-155 -187z" />
    <glyph glyph-name="scaron" unicode="&#x161;" horiz-adv-x="444" 
d="M64 682h36l119 -77l118 77h37l-155 -187zM356 329c-12 32 -40 112 -126 123v18c99 -3 143 -29 143 -29v-112h-17zM303 259c89 -55 119 -142 69 -214c0 0 -33 -47 -119 -53v19c52 16 54 92 -14 137l-101 61c-97 59 -123 140 -68 212c0 0 33 43 118 49v-19
c-50 -14 -63 -80 14 -129zM68 163c14 -37 43 -141 143 -154v-18c-107 5 -160 46 -160 46v126h17z" />
    <glyph glyph-name="uni0162" unicode="&#x162;" horiz-adv-x="698" 
d="M19 704h658v-201h-17c-8 179 -221 184 -221 184h-19v-566c0 -68 43 -104 85 -104v-17h-315v17c42 0 85 36 85 104v566h-19s-212 -5 -220 -184h-17v201zM304 -61c106 32 150 -32 144 -83c-9 -67 -72 -83 -105 -83c-37 0 -63 14 -71 21c-8 6 -13 19 -11 31
c4 17 21 27 38 23s27 -19 24 -37c-1 -7 -4 -11 -8 -14c-2 -2 0 -8 28 -8c32 0 51 23 50 54c0 18 -22 81 -98 69z" />
    <glyph glyph-name="uni0163" unicode="&#x163;" horiz-adv-x="354" 
d="M269 62c29 0 51 20 60 35l15 -9c-20 -47 -81 -97 -148 -97c-79 0 -126 32 -126 153v301h-50l-3 17h53v134l125 21v-155h119l-4 -17h-115v-298c0 -56 24 -85 74 -85zM128 -61c106 32 150 -32 144 -83c-9 -67 -72 -83 -105 -83c-37 0 -63 14 -71 21c-8 6 -13 19 -11 31
c4 17 21 27 38 23s27 -19 24 -37c-1 -7 -4 -11 -8 -14c-2 -2 0 -8 28 -8c32 0 51 23 50 54c0 18 -22 81 -98 69z" />
    <glyph glyph-name="Tcaron" unicode="&#x164;" horiz-adv-x="698" 
d="M19 704h658v-201h-17c-8 179 -221 184 -221 184h-19v-566c0 -68 43 -104 85 -104v-17h-315v17c42 0 85 36 85 104v566h-19s-212 -5 -220 -184h-17v201zM194 922h36l119 -77l118 77h37l-155 -187z" />
    <glyph glyph-name="tcaron" unicode="&#x165;" horiz-adv-x="386" 
d="M268 704h97c0 -136 -132 -209 -132 -209l-13 15s48 39 48 194zM269 62c29 0 51 20 60 35l15 -9c-20 -47 -81 -97 -148 -97c-79 0 -126 32 -126 153v301h-50l-3 17h53v134l125 21v-155h119l-4 -17h-115v-298c0 -56 24 -85 74 -85z" />
    <glyph glyph-name="Uring" unicode="&#x16e;" horiz-adv-x="752" 
d="M405 51c76 0 165 63 165 189h17c0 -214 -159 -249 -247 -249c-136 0 -248 92 -248 255v353c0 61 -36 88 -80 88v17h318v-17c-43 0 -93 -16 -93 -88v-360c0 -118 73 -188 168 -188zM434 687v17h302v-17c-151 1 -149 -150 -149 -150h-17s2 151 -136 150zM365 935
c-30 0 -54 -24 -54 -55c0 -30 24 -55 54 -55c31 0 55 25 55 55c0 31 -24 55 -55 55zM365 975c53 0 96 -42 96 -95c0 -52 -43 -95 -96 -95c-52 0 -96 43 -96 95c0 53 44 95 96 95z" />
    <glyph glyph-name="uring" unicode="&#x16f;" horiz-adv-x="561" 
d="M493 92c0 -48 9 -52 51 -57v-17l-148 -26c-27 -4 -28 19 -28 19v344c0 61 4 74 -47 80v17l172 19v-379zM331 81l12 -20c-36 -40 -97 -70 -144 -70c-79 0 -126 33 -126 153v214c0 60 2 69 -56 77v17l180 19v-324c0 -56 26 -83 84 -83c15 0 33 4 50 17zM294 670
c-30 0 -54 -24 -54 -55c0 -30 24 -55 54 -55c31 0 55 25 55 55c0 31 -24 55 -55 55zM294 710c53 0 96 -42 96 -95c0 -52 -43 -95 -96 -95c-52 0 -96 43 -96 95c0 53 44 95 96 95z" />
    <glyph glyph-name="Uhungarumlaut" unicode="&#x170;" horiz-adv-x="752" 
d="M405 51c76 0 165 63 165 189h17c0 -214 -159 -249 -247 -249c-136 0 -248 92 -248 255v353c0 61 -36 88 -80 88v17h318v-17c-43 0 -93 -16 -93 -88v-360c0 -118 73 -188 168 -188zM434 687v17h302v-17c-151 1 -149 -150 -149 -150h-17s2 151 -136 150zM233 735l169 163
l112 -35l-244 -128h-37zM413 735l169 163l112 -35l-244 -128h-37z" />
    <glyph glyph-name="uhungarumlaut" unicode="&#x171;" horiz-adv-x="561" 
d="M493 92c0 -48 9 -52 51 -57v-17l-148 -26c-27 -4 -28 19 -28 19v344c0 61 4 74 -47 80v17l172 19v-379zM331 81l12 -20c-36 -40 -97 -70 -144 -70c-79 0 -126 33 -126 153v214c0 60 2 69 -56 77v17l180 19v-324c0 -56 26 -83 84 -83c15 0 33 4 50 17zM123 541l169 163
l112 -35l-244 -128h-37zM303 541l169 163l112 -35l-244 -128h-37z" />
    <glyph glyph-name="Ydieresis" unicode="&#x178;" horiz-adv-x="771" 
d="M290 774c-32 0 -59 26 -59 59c0 32 27 59 59 59c33 0 59 -27 59 -59c0 -33 -26 -59 -59 -59zM478 774c-32 0 -59 26 -59 59c0 32 27 59 59 59c33 0 60 -27 60 -59c0 -33 -27 -59 -60 -59zM456 121c0 -68 43 -104 85 -104v-17h-315v17c42 0 85 36 85 104v155
c-147 260 -195 333 -195 333c-44 76 -82 79 -107 79v16h319v-16c-21 0 -91 1 -23 -114l151 -247v-206zM458 687v17h300v-17c-26 0 -124 -2 -236 -221l-12 15s92 206 -52 206z" />
    <glyph glyph-name="Zacute" unicode="&#x179;" horiz-adv-x="617" 
d="M75 704h310l-11 -17c-133 0 -263 -84 -298 -185h-20zM271 17c153 0 266 155 288 216h18l-25 -233h-290zM594 704l-379 -704h-191l407 704h163zM187 735l169 163l112 -35l-244 -128h-37z" />
    <glyph glyph-name="zacute" unicode="&#x17a;" horiz-adv-x="463" 
d="M65 462h192l-10 -19c-104 -9 -150 -54 -170 -113h-17zM430 462l-253 -462h-148l269 462h132zM228 20c116 16 150 96 163 132h17l-9 -152h-181zM145 541l169 163l112 -35l-244 -128h-37z" />
    <glyph glyph-name="Zdotaccent" unicode="&#x17b;" horiz-adv-x="617" 
d="M75 704h310l-11 -17c-133 0 -263 -84 -298 -185h-20zM271 17c153 0 266 155 288 216h18l-25 -233h-290zM594 704l-379 -704h-191l407 704h163zM392 847c0 -33 -27 -60 -59 -60c-33 0 -60 27 -60 60c0 32 27 58 60 58c32 0 59 -26 59 -58z" />
    <glyph glyph-name="zdotaccent" unicode="&#x17c;" horiz-adv-x="463" 
d="M65 462h192l-10 -19c-104 -9 -150 -54 -170 -113h-17zM430 462l-253 -462h-148l269 462h132zM228 20c116 16 150 96 163 132h17l-9 -152h-181zM301 627c0 -33 -27 -60 -59 -60c-33 0 -60 27 -60 60c0 32 27 58 60 58c32 0 59 -26 59 -58z" />
    <glyph glyph-name="Zcaron" unicode="&#x17d;" horiz-adv-x="617" 
d="M75 704h310l-11 -17c-133 0 -263 -84 -298 -185h-20zM271 17c153 0 266 155 288 216h18l-25 -233h-290zM594 704l-379 -704h-191l407 704h163zM187 922h36l119 -77l118 77h37l-155 -187z" />
    <glyph glyph-name="zcaron" unicode="&#x17e;" horiz-adv-x="466" 
d="M84 682h36l119 -77l118 77h37l-155 -187zM65 462h192l-10 -19c-104 -9 -150 -54 -170 -113h-17zM430 462l-253 -462h-148l269 462h132zM228 20c116 16 150 96 163 132h17l-9 -152h-181z" />
    <glyph glyph-name="florin" unicode="&#x192;" horiz-adv-x="695" 
d="M294 385c23 184 108 335 231 349v-17c-54 -38 -85 -219 -85 -219l-15 -113h122l-6 -17h-118l-37 -270c-31 -230 -99 -328 -223 -336v17c51 39 83 218 83 218l47 371h-76l2 17h75zM103 -203c-7 -1 -9 -13 18 -17v-17c-48 6 -78 33 -87 48c-11 18 -14 47 -4 68
c15 30 51 42 81 28c29 -15 42 -51 27 -81c-7 -15 -21 -25 -35 -29zM651 684c11 -18 14 -47 4 -68c-15 -30 -51 -42 -80 -28c-30 15 -43 51 -28 81c7 15 19 25 34 29c5 2 7 14 -15 18v17c43 -7 75 -33 85 -49z" />
    <glyph glyph-name="circumflex" unicode="&#x2c6;" horiz-adv-x="310" 
d="M310 531h-36l-119 77l-119 -77h-36l155 188z" />
    <glyph glyph-name="caron" unicode="&#x2c7;" horiz-adv-x="312" 
d="M0 720h36l119 -77l118 77h37l-155 -187z" />
    <glyph glyph-name="uni02C9" unicode="&#x2c9;" horiz-adv-x="305" 
d="M330 583h-355v76h355v-76z" />
    <glyph glyph-name="breve" unicode="&#x2d8;" horiz-adv-x="267" 
d="M135 631c92 0 116 36 116 73h17c0 -76 -38 -148 -133 -148c-97 0 -136 72 -136 148h17c0 -37 24 -73 119 -73z" />
    <glyph glyph-name="dotaccent" unicode="&#x2d9;" 
d="M199 646c0 -33 -27 -60 -59 -60c-33 0 -60 27 -60 60c0 32 27 58 60 58c32 0 59 -26 59 -58z" />
    <glyph glyph-name="ring" unicode="&#x2da;" 
d="M141 692c-30 0 -54 -24 -54 -55c0 -30 24 -55 54 -55c31 0 55 25 55 55c0 31 -24 55 -55 55zM141 732c53 0 96 -42 96 -95c0 -52 -43 -95 -96 -95c-52 0 -96 43 -96 95c0 53 44 95 96 95z" />
    <glyph glyph-name="ogonek" unicode="&#x2db;" 
d="M247 -12c-61 -33 -87 -74 -78 -112c12 -43 62 -35 62 -35c18 3 30 16 30 35h17c0 -31 -3 -68 -61 -79c-94 -14 -110 48 -110 48c-22 84 48 129 140 160v-17z" />
    <glyph glyph-name="tilde" unicode="&#x2dc;" horiz-adv-x="445" 
d="M266 550l-120 43c-34 12 -124 7 -150 -48l-15 6c71 174 192 134 192 134l119 -44c35 -12 125 -3 151 51l15 -8c-72 -174 -192 -134 -192 -134z" />
    <glyph glyph-name="hungarumlaut" unicode="&#x2dd;" horiz-adv-x="550" 
d="M87 557l169 163l112 -35l-244 -128h-37zM267 557l169 163l112 -35l-244 -128h-37z" />
    <glyph glyph-name="uni03A9" unicode="&#x3a9;" horiz-adv-x="738" 
d="M692 175h17l-31 -175h-269c16 86 103 200 103 445c0 216 -50 262 -112 271v17c176 -13 263 -135 263 -283c0 -89 -23 -168 -107 -257c-34 -36 -71 -53 -79 -74h113c31 0 83 9 102 56zM75 450c0 148 87 270 263 283v-17c-61 -9 -112 -55 -112 -271
c0 -245 87 -359 103 -445h-269l-31 175h17c19 -47 71 -56 102 -56h113c-8 21 -45 38 -79 74c-84 89 -107 168 -107 257z" />
    <glyph glyph-name="uni03BC" unicode="&#x3bc;" horiz-adv-x="557" 
d="M336 64c-29 -51 -94 -73 -145 -73v-148c0 -49 10 -60 52 -64v-17l-147 -26c-29 -5 -29 19 -29 19v603c0 60 2 69 -56 77v17l180 19v-324c0 -56 26 -83 84 -83c14 0 33 4 50 17zM487 92c0 -48 9 -52 51 -57v-17l-148 -26c-27 -4 -28 19 -28 19v344c0 61 4 74 -47 80v17
l172 19v-379z" />
    <glyph glyph-name="pi" unicode="&#x3c0;" horiz-adv-x="582" 
d="M525 66l16 -9c-6 -36 -35 -66 -94 -66c-88 0 -88 99 -88 99v282h-115l-13 -197c-5 -120 -164 -219 -164 -219l-10 13c62 48 105 150 109 212l13 191v0c-37 -2 -108 -15 -155 -75l-16 10s49 151 168 155h257c73 0 110 6 116 63h17c0 -85 -13 -153 -114 -153v0v-257
c0 -68 40 -70 40 -70c26 0 33 21 33 21z" />
    <glyph glyph-name="uni2010" unicode="&#x2010;" horiz-adv-x="447" 
d="M379 208h-315v93h315v-93z" />
    <glyph glyph-name="endash" unicode="&#x2013;" horiz-adv-x="561" 
d="M0 286h561v-68h-561v68z" />
    <glyph glyph-name="emdash" unicode="&#x2014;" horiz-adv-x="1055" 
d="M0 286h1055v-68h-1055v68z" />
    <glyph glyph-name="quoteleft" unicode="&#x2018;" horiz-adv-x="268" 
d="M103 653c14 22 38 54 84 79l11 -14c-57 -44 -70 -109 -54 -111c20 -2 40 -8 56 -24c33 -31 33 -84 1 -117c-32 -32 -85 -32 -117 0c-50 50 -13 139 19 187z" />
    <glyph glyph-name="quoteright" unicode="&#x2019;" horiz-adv-x="273" 
d="M177 522c-14 -22 -38 -54 -84 -79l-11 14c57 44 70 109 54 111c-20 2 -40 8 -56 24c-33 31 -33 84 -1 117c32 32 85 32 117 0c50 -50 13 -139 -19 -187z" />
    <glyph glyph-name="quotesinglbase" unicode="&#x201a;" 
d="M180 -53c-14 -22 -38 -54 -84 -79l-11 14c57 44 70 109 54 111c-20 2 -40 8 -56 24c-33 31 -33 84 -1 117c32 32 85 32 117 0c50 -50 13 -139 -19 -187z" />
    <glyph glyph-name="quotedblleft" unicode="&#x201c;" horiz-adv-x="529" 
d="M94 658c14 22 38 54 84 79l11 -14c-57 -44 -70 -109 -54 -111c20 -2 40 -8 56 -24c33 -31 33 -84 1 -117c-32 -32 -85 -32 -117 0c-50 50 -13 139 19 187zM344 658c14 22 38 54 84 79l11 -14c-57 -44 -70 -109 -54 -111c20 -2 40 -8 56 -24c33 -31 33 -84 1 -117
c-32 -32 -85 -32 -117 0c-50 50 -13 139 19 187z" />
    <glyph glyph-name="quotedblright" unicode="&#x201d;" horiz-adv-x="521" 
d="M177 522c-14 -22 -38 -54 -84 -79l-11 14c57 44 70 109 54 111c-20 2 -40 8 -56 24c-33 31 -33 84 -1 117c32 32 85 32 117 0c50 -50 13 -139 -19 -187zM427 522c-14 -22 -38 -54 -84 -79l-11 14c57 44 70 109 54 111c-20 2 -40 8 -56 24c-33 31 -33 84 -1 117
c32 32 85 32 117 0c50 -50 13 -139 -19 -187z" />
    <glyph glyph-name="quotedblbase" unicode="&#x201e;" horiz-adv-x="521" 
d="M175 -53c-14 -22 -38 -54 -84 -79l-11 14c57 44 70 109 54 111c-20 2 -40 8 -56 24c-33 31 -33 84 -1 117c32 32 85 32 117 0c50 -50 13 -139 -19 -187zM425 -53c-14 -22 -38 -54 -84 -79l-11 14c57 44 70 109 54 111c-20 2 -40 8 -56 24c-33 31 -33 84 -1 117
c32 32 85 32 117 0c50 -50 13 -139 -19 -187z" />
    <glyph glyph-name="dagger" unicode="&#x2020;" horiz-adv-x="425" 
d="M212 645c-27 0 -49 22 -49 49c0 26 22 48 49 48c26 0 48 -22 48 -48c0 -27 -22 -49 -48 -49zM122 454c10 -7 25 -21 39 -44l-5 -4c-21 27 -56 34 -57 27c-1 -10 -4 -20 -12 -28c-16 -17 -42 -17 -59 -1c-16 17 -17 43 0 59c25 26 69 8 94 -9zM221 403c0 0 -2 -56 44 -111
c-50 -256 -48 -557 -48 -557h-9s1 301 -49 557c46 58 44 111 44 111c0 53 -23 89 -23 142c0 0 0 61 32 61s32 -61 32 -61c0 -53 -23 -86 -23 -142zM395 463c17 -16 17 -42 0 -59c-16 -16 -42 -16 -59 1c-8 8 -11 18 -12 28c-1 7 -36 0 -57 -27l-5 4c14 23 29 37 40 44
c25 17 68 35 93 9z" />
    <glyph glyph-name="daggerdbl" unicode="&#x2021;" horiz-adv-x="541" 
d="M333 246c-56 -39 -55 -103 -55 -103c0 -65 30 -76 30 -141c0 0 0 -75 -39 -75c-40 0 -40 75 -40 75c0 65 30 72 30 141c0 0 1 69 -56 103c57 39 56 104 56 104c0 64 -30 75 -30 141c0 0 0 75 40 75c39 0 39 -75 39 -75c0 -66 -30 -73 -30 -141c0 0 -1 -69 55 -104z
M407 422c-1 9 -44 0 -71 -32l-5 4c16 28 35 45 48 54c30 21 84 43 115 11c20 -20 20 -52 0 -72c-21 -20 -53 -20 -73 0c-10 10 -14 23 -14 35zM269 616c-33 0 -60 26 -60 59s27 60 60 60c32 0 59 -27 59 -60s-27 -59 -59 -59zM269 -121c32 0 59 -27 59 -59
c0 -34 -27 -60 -59 -60c-33 0 -60 26 -60 60c0 32 27 59 60 59zM116 387c-20 -20 -52 -20 -73 0c-20 20 -20 52 0 72c31 32 85 10 115 -11c13 -9 31 -26 48 -54l-6 -4c-26 32 -68 41 -69 32c-1 -12 -5 -25 -15 -35zM421 110c20 21 52 21 73 0c20 -20 20 -52 0 -72
c-31 -31 -85 -9 -115 11c-13 10 -32 26 -48 55l5 4c27 -33 70 -41 71 -33c0 13 4 25 14 35zM131 75c0 -8 43 0 69 33l6 -4c-17 -29 -35 -45 -48 -55c-30 -20 -84 -42 -115 -11c-20 20 -20 52 0 72c20 21 53 21 73 0c10 -10 14 -22 15 -35z" />
    <glyph glyph-name="bullet" unicode="&#x2022;" horiz-adv-x="500" 
d="M250 220c-67 0 -122 54 -122 121c0 68 55 122 122 122c68 0 122 -54 122 -122c0 -67 -54 -121 -122 -121z" />
    <glyph glyph-name="ellipsis" unicode="&#x2026;" horiz-adv-x="866" 
d="M255 76c0 -47 -38 -84 -85 -84c-46 0 -84 37 -84 84s38 85 84 85c47 0 85 -38 85 -85zM520 76c0 -47 -38 -84 -84 -84c-47 0 -85 37 -85 84s38 85 85 85c46 0 84 -38 84 -85zM786 76c0 -47 -38 -84 -85 -84s-85 37 -85 84s38 85 85 85s85 -38 85 -85z" />
    <glyph glyph-name="perthousand" unicode="&#x2030;" horiz-adv-x="1131" 
d="M127 0l456 704h65l-456 -704h-65zM157 679c109 0 138 -84 138 -182c0 -99 -29 -176 -138 -176c-110 0 -139 77 -139 176c0 98 29 182 139 182zM157 338c45 0 50 23 50 159s-7 165 -50 165c-45 0 -51 -29 -51 -165s7 -159 51 -159zM618 383c109 0 138 -84 138 -182
c0 -99 -29 -176 -138 -176c-110 0 -139 77 -139 176c0 98 29 182 139 182zM618 42c45 0 50 23 50 159s-7 165 -50 165c-45 0 -51 -29 -51 -165s7 -159 51 -159zM957 383c109 0 138 -84 138 -182c0 -99 -29 -176 -138 -176c-110 0 -139 77 -139 176c0 98 29 182 139 182z
M957 42c45 0 50 23 50 159s-7 165 -50 165c-45 0 -51 -29 -51 -165s7 -159 51 -159z" />
    <glyph glyph-name="guilsinglleft" unicode="&#x2039;" horiz-adv-x="339" 
d="M281 505v-39l-123 -200l123 -194v-39l-231 233z" />
    <glyph glyph-name="guilsinglright" unicode="&#x203a;" horiz-adv-x="339" 
d="M48 466v39l231 -239l-231 -233v39l123 194z" />
    <glyph glyph-name="fraction" unicode="&#x2044;" horiz-adv-x="351" 
d="M458 734h65l-605 -734h-64z" />
    <glyph glyph-name="Euro" unicode="&#x20ac;" horiz-adv-x="623" 
d="M124 422c18 149 83 275 249 289v-18c-78 -14 -102 -87 -108 -271h226l-13 -17h-214v-53v-52h210l-12 -17h-197c6 -185 30 -258 108 -273v-18c-166 14 -231 140 -249 291h-102l12 17h88c-2 17 -3 39 -3 52s1 33 3 53h-100l12 17h90zM547 540c0 76 -38 139 -111 153v19
c63 -2 93 -13 128 -39v-133h-17zM564 31c-35 -26 -71 -37 -128 -40v20c71 13 111 77 111 153h17v-133z" />
    <glyph glyph-name="afii61289" unicode="&#x2113;" horiz-adv-x="359" 
d="M281 48c18 4 38 17 48 48l16 -5c-4 -58 -60 -100 -106 -100c-77 0 -154 30 -154 198v32l-63 -48v52l63 50v205c0 256 131 299 199 227l-10 -14c-3 4 -65 91 -65 -190v-152l26 25c58 56 74 135 70 202c9 1 17 2 25 3c8 -85 -16 -185 -72 -238l-50 -47l-2 -113
c-7 -102 25 -141 75 -135z" />
    <glyph glyph-name="trademark" unicode="&#x2122;" horiz-adv-x="720" 
d="M13 704h268v-82h-17c0 65 -80 65 -80 65h-7v-210c0 -28 17 -43 34 -43v-17h-128v17c17 0 34 15 34 43v210h-7s-80 0 -80 -65h-17v82zM662 476c0 -28 18 -42 36 -42v-17h-123v17c17 0 29 14 29 42v177l-100 -239h-17l-106 238v-123s-6 -95 50 -95v-17h-123v17
c61 0 56 95 56 95v144c-10 14 -32 14 -42 14v17h103l95 -205l84 205h90v-17c-17 0 -32 -10 -32 -36v-175z" />
    <glyph glyph-name="Omega" unicode="&#x2126;" horiz-adv-x="739" 
d="M692 175h17l-31 -175h-269c16 86 103 200 103 445c0 216 -50 262 -112 271v17c176 -13 263 -135 263 -283c0 -89 -23 -168 -107 -257c-34 -36 -71 -53 -79 -74h113c31 0 83 9 102 56zM75 450c0 148 87 270 263 283v-17c-61 -9 -112 -55 -112 -271
c0 -245 87 -359 103 -445h-269l-31 175h17c19 -47 71 -56 102 -56h113c-8 21 -45 38 -79 74c-84 89 -107 168 -107 257z" />
    <glyph glyph-name="estimated" unicode="&#x212e;" horiz-adv-x="892" 
d="M180 605v-207h536v202c-69 62 -165 101 -271 101c-103 0 -197 -37 -265 -96zM445 735c228 0 413 -165 413 -368h-678v-238c68 -59 162 -95 265 -95c109 0 207 41 276 106h48c-76 -86 -192 -140 -324 -140c-228 0 -413 164 -413 367s185 368 413 368z" />
    <glyph glyph-name="partialdiff" unicode="&#x2202;" horiz-adv-x="572" 
d="M61 668c35 41 95 69 171 74v-20c-67 -18 -118 -92 -117 -154l-20 -7zM294 742c156 -18 255 -170 235 -410c-16 -195 -91 -324 -240 -340v19c49 31 78 142 94 319c-14 48 -67 83 -97 83c-55 0 -98 -70 -110 -207c-11 -134 5 -182 51 -195v-19c-122 11 -198 86 -186 235
c10 115 55 235 195 235c46 0 132 -26 151 -97c20 252 -22 340 -93 358v19z" />
    <glyph glyph-name="Delta" unicode="&#x2206;" horiz-adv-x="714" 
d="M375 738l294 -706l-15 -32h-616l-6 26l1 2l287 692zM87 44h422l-211 483z" />
    <glyph glyph-name="product" unicode="&#x220f;" horiz-adv-x="839" 
d="M809 687c-49 0 -96 -30 -96 -99v-539c0 -77 48 -117 96 -117v-17h-355v17c48 0 96 40 96 117v537c0 70 -47 101 -96 101h-74c-48 0 -95 -31 -95 -101v-537c0 -77 48 -117 95 -117v-17h-354v17c48 0 95 40 95 117v539c0 69 -45 99 -95 99v17h783v-17z" />
    <glyph glyph-name="summation" unicode="&#x2211;" horiz-adv-x="680" 
d="M271 687c-3 5 -6 11 -9 17h343l22 -231h-17c-40 113 -194 211 -339 214zM158 -98h-88l193 338l-248 464h191l209 -364zM628 168h16l-27 -266h-398c2 5 5 11 8 17h9c289 0 366 179 392 249z" />
    <glyph glyph-name="minus" unicode="&#x2212;" horiz-adv-x="626" 
d="M581 208h-533v93h533v-93z" />
    <glyph glyph-name="uni2215" unicode="&#x2215;" horiz-adv-x="352" 
d="M458 734h65l-605 -734h-64z" />
    <glyph glyph-name="uni2219" unicode="&#x2219;" 
d="M203 298c0 -34 -28 -62 -63 -62s-62 28 -62 62c0 35 27 63 62 63s63 -28 63 -63z" />
    <glyph glyph-name="radical" unicode="&#x221a;" horiz-adv-x="565" 
d="M352 78l137 789l54 -15l-180 -1031l-18 -7l-192 450c-22 52 -63 86 -101 71l-6 15l159 69z" />
    <glyph glyph-name="infinity" unicode="&#x221e;" horiz-adv-x="799" 
d="M626 235c15 15 23 35 23 56c0 22 -8 42 -23 57s-35 23 -57 23s-42 -8 -56 -23l-57 -57l57 -56c15 -15 35 -24 56 -24s41 9 57 24zM275 235l56 57l-57 56c-14 15 -34 23 -56 23s-42 -8 -57 -23s-23 -35 -23 -57c0 -21 8 -41 23 -56c16 -15 36 -24 57 -24s41 9 57 24z
M688 410c66 -65 66 -172 0 -237c-32 -32 -74 -50 -119 -50s-86 17 -119 50l-56 56l-57 -56c-32 -32 -74 -50 -119 -50c-46 0 -90 19 -121 50c-64 64 -61 172 0 238c31 31 75 49 121 49c45 0 87 -18 119 -50l57 -56l56 56c33 33 74 50 119 50s87 -18 119 -50z" />
    <glyph glyph-name="integral" unicode="&#x222b;" horiz-adv-x="406" 
d="M96 -178c-5 -2 1 -8 11 -11v-19c-36 5 -65 23 -74 36c-11 16 -16 41 -9 60c10 28 42 42 69 30c28 -10 42 -42 31 -69c-5 -13 -16 -24 -28 -27zM135 446c-20 235 29 362 126 378v-19c-18 -15 -37 -63 -26 -194l35 -441c20 -235 -27 -362 -125 -378v19c17 15 37 66 25 195z
M373 788c12 -15 15 -42 8 -60c-10 -28 -42 -42 -69 -30c-28 11 -41 41 -31 69c6 14 17 25 30 28c3 0 -3 6 -12 10v19c35 -5 64 -24 74 -36z" />
    <glyph glyph-name="approxequal" unicode="&#x2248;" horiz-adv-x="532" 
d="M312 305l-120 43c-34 12 -124 7 -150 -48l-15 6c71 174 192 134 192 134l119 -44c35 -12 125 -3 151 51l15 -8c-72 -174 -192 -134 -192 -134zM312 123l-120 43c-34 12 -124 7 -150 -48l-15 6c71 174 192 134 192 134l119 -44c35 -12 125 -3 151 51l15 -8
c-72 -174 -192 -134 -192 -134z" />
    <glyph glyph-name="notequal" unicode="&#x2260;" horiz-adv-x="527" 
d="M480 344h-148l-56 -123h204v-68h-237l-57 -124l-62 28l44 96h-122v68h154l56 123h-210v68h243l62 135l61 -29l-48 -106h116v-68z" />
    <glyph glyph-name="lessequal" unicode="&#x2264;" horiz-adv-x="532" 
d="M47 67h432v-87h-432v87zM220 344l259 -136v-103l-423 216v47l423 217v-105z" />
    <glyph glyph-name="greaterequal" unicode="&#x2265;" horiz-adv-x="532" 
d="M55 67h432v-87h-432v87zM55 208l259 136l-259 136v105l423 -217v-47l-423 -216v103z" />
    <glyph glyph-name="lozenge" unicode="&#x25ca;" horiz-adv-x="559" 
d="M301 733l208 -406v0l-208 -406h-45l-208 406v0l208 406h45zM418 327l-140 269l-140 -269v0l140 -269z" />
    <glyph glyph-name="zero.taboldstyle" unicode="&#xf643;" horiz-adv-x="580" 
d="M203 229c0 -155 7 -206 60 -218v-19c-133 10 -207 88 -207 237c0 144 74 229 207 240v-19c-53 -12 -60 -66 -60 -221zM535 229c0 -151 -75 -228 -209 -237v18c52 12 60 64 60 219c0 156 -8 209 -60 221v19c134 -10 209 -89 209 -240z" />
    <glyph glyph-name="one.taboldstyle" unicode="&#xf644;" horiz-adv-x="513" 
d="M204 95v270c0 50 -24 53 -75 53v17l200 36v0v-376c0 -77 46 -78 81 -78v-17h-300v17c40 0 94 3 94 78z" />
    <glyph glyph-name="two.taboldstyle" unicode="&#xf645;" horiz-adv-x="537" 
d="M85 371c4 13 17 39 58 68l5 -14c-18 -12 -15 -19 -10 -19c14 1 29 -4 40 -15c22 -22 21 -58 -1 -79c-22 -22 -58 -21 -79 1c-15 16 -19 39 -13 58zM445 174h17l-48 -174h-342l105 111c121 111 141 177 131 237c-9 53 -55 96 -101 100l-6 16c78 16 220 9 231 -101
c17 -164 -188 -209 -231 -251l153 5c34 0 70 17 91 57z" />
    <glyph glyph-name="three.taboldstyle" unicode="&#xf646;" horiz-adv-x="554" 
d="M182 -216c-9 -4 6 -24 56 -30v-19c-65 4 -107 17 -142 49c-19 17 -32 48 -25 77c9 43 51 69 92 59c42 -10 66 -51 56 -94c-5 -20 -19 -32 -37 -42zM510 -12c10 -163 -120 -239 -209 -251v17c79 17 96 108 89 183c-4 36 -35 137 -190 158v17c167 52 146 193 89 239
c-45 37 -144 28 -182 -50l-17 4c23 166 178 166 178 166c141 0 268 -157 99 -320c90 -36 139 -102 143 -163z" />
    <glyph glyph-name="four.taboldstyle" unicode="&#xf647;" horiz-adv-x="582" 
d="M527 -48h-104v-72c0 -127 43 -128 85 -128v-17h-315v17c42 0 85 4 85 123v77h-229v17l63 96l14 -7c-19 -36 5 -36 23 -36h129v295l101 154l44 -9v-440h104v-70z" />
    <glyph glyph-name="five.taboldstyle" unicode="&#xf648;" horiz-adv-x="553" 
d="M491 462l-43 -131h-327l24 131h346zM93 179c329 66 411 -117 411 -215c0 -141 -98 -217 -222 -228v17c111 14 139 101 119 169c-12 42 -79 174 -330 140zM187 -223c-10 -6 -6 -19 32 -24v-17c-67 6 -105 31 -124 45c-20 18 -31 50 -25 79c10 41 52 67 94 57
c41 -10 67 -51 57 -93c-5 -22 -17 -37 -34 -47z" />
    <glyph glyph-name="six.taboldstyle" unicode="&#xf649;" horiz-adv-x="592" 
d="M407 680c4 0 -4 8 -27 13v17c60 -9 92 -45 102 -60c12 -19 13 -49 -1 -71c-20 -33 -62 -42 -95 -22c-32 20 -41 63 -21 95c10 15 25 25 42 28zM548 232c0 -144 -93 -228 -217 -240v19c51 14 70 70 70 201s-38 217 -93 217c-31 0 -89 -31 -105 -94c2 -184 16 -295 66 -324
v-19c-149 14 -224 134 -224 321c0 229 127 378 272 397v-17c-60 -15 -113 -83 -114 -316c31 81 112 94 158 94c142 0 187 -129 187 -239z" />
    <glyph glyph-name="seven.taboldstyle" unicode="&#xf64a;" horiz-adv-x="556" 
d="M457 333h-290c-34 0 -72 -18 -93 -58h-17l24 187h451zM194 -257c0 165 45 334 214 527h17c-87 -190 -89 -373 -89 -527h-142z" />
    <glyph glyph-name="eight.taboldstyle" unicode="&#xf64b;" horiz-adv-x="574" 
d="M539 202c0 -144 -90 -202 -210 -210v19c47 12 80 51 80 120c0 82 -87 132 -148 164c-17 9 -27 14 -42 23c-25 -13 -65 -60 -65 -160c0 -75 38 -135 112 -148v-19c-131 6 -222 49 -222 161c0 86 81 159 157 177c-93 57 -132 130 -132 194c0 117 80 178 184 188v-21
c-37 -12 -63 -47 -63 -104c0 -63 45 -114 160 -159c40 19 52 62 52 127c0 91 -42 128 -87 138v19c104 -8 178 -58 178 -144c0 -60 -41 -130 -125 -149c94 -47 171 -133 171 -216z" />
    <glyph glyph-name="nine.taboldstyle" unicode="&#xf64c;" horiz-adv-x="574" 
d="M541 139c0 -233 -92 -386 -272 -403v17c96 10 113 72 114 321c-30 -76 -112 -83 -158 -83c-142 0 -187 125 -187 235c0 161 92 233 216 243v-20c-51 -15 -69 -73 -69 -203c0 -131 38 -213 93 -213c31 0 89 22 105 85c0 169 -16 298 -67 331v20c149 -15 225 -144 225 -330
zM173 -232c-6 0 7 -10 34 -14v-18c-76 8 -105 48 -115 65c-13 21 -14 55 2 79c22 36 68 46 104 24c35 -23 45 -69 23 -105c-11 -17 -29 -28 -48 -31z" />
    <glyph glyph-name="dollar.taboldstyle" unicode="&#xf653;" horiz-adv-x="594" 
d="M296 8c158 0 145 159 42 234l-42 26v-260zM279 467v229c-108 0 -147 -132 -17 -217zM416 377c132 -87 187 -195 112 -304c-41 -50 -91 -82 -232 -82v-122h-17v122c-164 8 -233 62 -233 62v192h8c20 -56 78 -210 225 -236v270l-95 60c-142 89 -195 189 -112 298
c0 0 49 76 207 76v122h17v-122c159 -3 240 -48 240 -48v-168h-8c-19 51 -84 189 -232 199v-240z" />
    <glyph glyph-name="cent.taboldstyle" unicode="&#xf654;" horiz-adv-x="533" 
d="M317 82v371c-43 -9 -116 -53 -116 -202c0 -103 52 -151 116 -169zM480 129l14 -9c-13 -46 -62 -116 -160 -129v-109h-17v109c-169 0 -242 125 -242 242c0 111 82 230 242 238v122h17v-515c50 -7 124 19 146 51zM465 427c17 -15 27 -43 20 -67c-10 -35 -46 -58 -82 -48
c-36 9 -57 46 -47 81c4 19 16 32 31 40c7 3 -4 13 -26 18v18c55 -6 89 -29 104 -42z" />
    <glyph glyph-name="dollar.oldstyle" unicode="&#xf724;" horiz-adv-x="594" 
d="M296 8c158 0 145 159 42 234l-42 26v-260zM279 467v229c-108 0 -147 -132 -17 -217zM416 377c132 -87 187 -195 112 -304c-41 -50 -91 -82 -232 -82v-122h-17v122c-164 8 -233 62 -233 62v192h8c20 -56 78 -210 225 -236v270l-95 60c-142 89 -195 189 -112 298
c0 0 49 76 207 76v122h17v-122c159 -3 240 -48 240 -48v-168h-8c-19 51 -84 189 -232 199v-240z" />
    <glyph glyph-name="zero.oldstyle" unicode="&#xf730;" horiz-adv-x="580" 
d="M203 229c0 -155 7 -206 60 -218v-19c-133 10 -207 88 -207 237c0 144 74 229 207 240v-19c-53 -12 -60 -66 -60 -221zM535 229c0 -151 -75 -228 -209 -237v18c52 12 60 64 60 219c0 156 -8 209 -60 221v19c134 -10 209 -89 209 -240z" />
    <glyph glyph-name="one.oldstyle" unicode="&#xf731;" horiz-adv-x="513" 
d="M204 95v270c0 50 -24 53 -75 53v17l200 36v0v-376c0 -77 46 -78 81 -78v-17h-300v17c40 0 94 3 94 78z" />
    <glyph glyph-name="two.oldstyle" unicode="&#xf732;" horiz-adv-x="537" 
d="M85 371c4 13 17 39 58 68l5 -14c-18 -12 -15 -19 -10 -19c14 1 29 -4 40 -15c22 -22 21 -58 -1 -79c-22 -22 -58 -21 -79 1c-15 16 -19 39 -13 58zM445 174h17l-48 -174h-342l105 111c121 111 141 177 131 237c-9 53 -55 96 -101 100l-6 16c78 16 220 9 231 -101
c17 -164 -188 -209 -231 -251l153 5c34 0 70 17 91 57z" />
    <glyph glyph-name="three.oldstyle" unicode="&#xf733;" horiz-adv-x="554" 
d="M182 -216c-9 -4 6 -24 56 -30v-19c-65 4 -107 17 -142 49c-19 17 -32 48 -25 77c9 43 51 69 92 59c42 -10 66 -51 56 -94c-5 -20 -19 -32 -37 -42zM510 -12c10 -163 -120 -239 -209 -251v17c79 17 96 108 89 183c-4 36 -35 137 -190 158v17c167 52 146 193 89 239
c-45 37 -144 28 -182 -50l-17 4c23 166 178 166 178 166c141 0 268 -157 99 -320c90 -36 139 -102 143 -163z" />
    <glyph glyph-name="four.oldstyle" unicode="&#xf734;" horiz-adv-x="582" 
d="M527 -48h-104v-72c0 -127 43 -128 85 -128v-17h-315v17c42 0 85 4 85 123v77h-229v17l63 96l14 -7c-19 -36 5 -36 23 -36h129v295l101 154l44 -9v-440h104v-70z" />
    <glyph glyph-name="five.oldstyle" unicode="&#xf735;" horiz-adv-x="553" 
d="M491 462l-43 -131h-327l24 131h346zM93 179c329 66 411 -117 411 -215c0 -141 -98 -217 -222 -228v17c111 14 139 101 119 169c-12 42 -79 174 -330 140zM187 -223c-10 -6 -6 -19 32 -24v-17c-67 6 -105 31 -124 45c-20 18 -31 50 -25 79c10 41 52 67 94 57
c41 -10 67 -51 57 -93c-5 -22 -17 -37 -34 -47z" />
    <glyph glyph-name="six.oldstyle" unicode="&#xf736;" horiz-adv-x="592" 
d="M407 680c4 0 -4 8 -27 13v17c60 -9 92 -45 102 -60c12 -19 13 -49 -1 -71c-20 -33 -62 -42 -95 -22c-32 20 -41 63 -21 95c10 15 25 25 42 28zM548 232c0 -144 -93 -228 -217 -240v19c51 14 70 70 70 201s-38 217 -93 217c-31 0 -89 -31 -105 -94c2 -184 16 -295 66 -324
v-19c-149 14 -224 134 -224 321c0 229 127 378 272 397v-17c-60 -15 -113 -83 -114 -316c31 81 112 94 158 94c142 0 187 -129 187 -239z" />
    <glyph glyph-name="seven.oldstyle" unicode="&#xf737;" horiz-adv-x="556" 
d="M457 333h-290c-34 0 -72 -18 -93 -58h-17l24 187h451zM194 -257c0 165 45 334 214 527h17c-87 -190 -89 -373 -89 -527h-142z" />
    <glyph glyph-name="eight.oldstyle" unicode="&#xf738;" horiz-adv-x="574" 
d="M539 202c0 -144 -90 -202 -210 -210v19c47 12 80 51 80 120c0 82 -87 132 -148 164c-17 9 -27 14 -42 23c-25 -13 -65 -60 -65 -160c0 -75 38 -135 112 -148v-19c-131 6 -222 49 -222 161c0 86 81 159 157 177c-93 57 -132 130 -132 194c0 117 80 178 184 188v-21
c-37 -12 -63 -47 -63 -104c0 -63 45 -114 160 -159c40 19 52 62 52 127c0 91 -42 128 -87 138v19c104 -8 178 -58 178 -144c0 -60 -41 -130 -125 -149c94 -47 171 -133 171 -216z" />
    <glyph glyph-name="nine.oldstyle" unicode="&#xf739;" horiz-adv-x="574" 
d="M541 139c0 -233 -92 -386 -272 -403v17c96 10 113 72 114 321c-30 -76 -112 -83 -158 -83c-142 0 -187 125 -187 235c0 161 92 233 216 243v-20c-51 -15 -69 -73 -69 -203c0 -131 38 -213 93 -213c31 0 89 22 105 85c0 169 -16 298 -67 331v20c149 -15 225 -144 225 -330
zM173 -232c-6 0 7 -10 34 -14v-18c-76 8 -105 48 -115 65c-13 21 -14 55 2 79c22 36 68 46 104 24c35 -23 45 -69 23 -105c-11 -17 -29 -28 -48 -31z" />
    <glyph glyph-name="cent.oldstyle" unicode="&#xf7a2;" horiz-adv-x="533" 
d="M317 82v371c-43 -9 -116 -53 -116 -202c0 -103 52 -151 116 -169zM480 129l14 -9c-13 -46 -62 -116 -160 -129v-109h-17v109c-169 0 -242 125 -242 242c0 111 82 230 242 238v122h17v-515c50 -7 124 19 146 51zM465 427c17 -15 27 -43 20 -67c-10 -35 -46 -58 -82 -48
c-36 9 -57 46 -47 81c4 19 16 32 31 40c7 3 -4 13 -26 18v18c55 -6 89 -29 104 -42z" />
    <glyph glyph-name="fi" unicode="&#xfb01;" horiz-adv-x="591" 
d="M512 113c0 -55 5 -96 41 -105v-8h-205v8c38 11 39 54 39 105v250c0 35 -13 82 -50 82h-129v-332c0 -55 6 -95 41 -105v-8h-205v8c38 12 40 54 40 105v332h-64l-2 17h66v23c0 182 83 254 247 259v-17c-42 -5 -123 -35 -123 -216v-49h130h174v-349zM411 698
c18 4 -1 23 -39 28v18c63 -6 108 -38 122 -62c13 -24 17 -58 5 -83c-17 -36 -61 -51 -97 -33s-51 61 -33 97c9 18 24 30 42 35z" />
    <glyph glyph-name="fl" unicode="&#xfb02;" horiz-adv-x="573" 
d="M520 113c0 -55 5 -87 41 -96v-17h-205v17c38 11 39 45 39 96v519c0 20 -3 50 -35 64c-38 16 -161 52 -161 -194v-40h107l-3 -17h-104v-332c0 -55 5 -86 41 -96v-17h-206v17c38 12 40 45 40 96v332h-64l-2 17h66v80c0 135 81 204 175 203c37 0 75 -10 111 -32l160 33v-633
z" />
    <glyph glyph-name="NULL" horiz-adv-x="0" 
 />
    <glyph glyph-name="CR" 
 />
    <glyph glyph-name="two.superior" horiz-adv-x="270" 
d="M207 464h17l-23 -85h-170l104 152c66 112 -56 157 -90 85l-16 3c10 86 92 85 92 85c46 0 78 -34 78 -75c0 -30 -13 -59 -50 -104c-22 -30 -60 -87 -60 -87h77c15 0 31 8 41 26z" />
    <glyph glyph-name="one.superior" horiz-adv-x="232" 
d="M150 435c0 -35 23 -38 40 -38v-17h-147v17c20 0 46 4 46 38v174c0 37 -38 13 -38 13l-12 17l95 65h16v-269z" />
    <glyph glyph-name="a.superior" horiz-adv-x="311" 
d="M156 513v64c-51 -12 -69 -30 -69 -57c0 0 0 -32 35 -32c18 0 29 13 34 25zM247 486c0 0 8 0 10 10l13 -5c-3 -18 -23 -37 -60 -37c0 0 -48 0 -53 37c-7 -20 -39 -37 -76 -37c0 0 -60 0 -60 53c0 58 43 64 135 87v31c0 54 -32 72 -69 56c-14 -6 -16 -12 -13 -12
c9 0 16 -4 20 -11c9 -13 5 -32 -8 -40c-13 -10 -32 -6 -41 7c-7 9 -6 22 -2 31c5 11 14 26 39 39c24 13 53 10 53 10c69 0 87 -43 87 -104v-78s0 -39 25 -37z" />
    <glyph glyph-name="three.superior" horiz-adv-x="276" 
d="M236 485c4 -82 -68 -113 -109 -113c-33 0 -60 10 -80 26c-10 7 -15 22 -12 35c4 19 23 31 42 27c19 -5 31 -24 27 -43c-3 -9 -7 -16 -17 -20c-5 -2 4 -9 40 -9c40 0 59 43 52 76c-3 16 -14 59 -85 68v18c76 23 67 78 40 99c-22 17 -58 15 -75 -21l-17 2c9 74 82 74 82 74
c65 0 123 -69 47 -143c43 -15 63 -49 65 -76z" />
    <glyph glyph-name="o.superior" horiz-adv-x="327" 
d="M146 705c77 0 119 -37 119 -127c0 -95 -42 -124 -119 -124c-76 0 -118 34 -118 124c0 95 42 127 118 127zM146 471c29 0 55 5 55 107c0 104 -29 110 -55 110s-54 -3 -54 -110c0 -104 28 -107 54 -107z" />
    <glyph glyph-name="uni0218" unicode="&#x218;" horiz-adv-x="616" 
d="M357 -240c32 48 69 137 19 187c-32 32 -85 32 -117 0c-32 -33 -32 -86 1 -117c16 -16 36 -22 56 -24c16 -2 3 -67 -54 -111l11 -14c46 25 70 57 84 79zM63 245c21 -57 72 -216 225 -235v-18c-171 6 -242 61 -242 61v192h17zM416 377c132 -87 187 -195 112 -304
c0 0 -41 -71 -177 -81v17c81 25 96 153 -13 233l-154 97c-142 89 -195 189 -112 298c0 0 43 66 175 75v-17c-82 -23 -101 -140 15 -216zM519 497c-18 49 -72 180 -209 197v18c150 -5 226 -47 226 -47v-168h-17z" />
    <glyph glyph-name="uni0219" unicode="&#x219;" horiz-adv-x="444" 
d="M267 -240c32 48 69 137 19 187c-32 32 -85 32 -117 0c-32 -33 -32 -86 1 -117c16 -16 36 -22 56 -24c16 -2 3 -67 -54 -111l11 -14c46 25 70 57 84 79zM356 329c-12 32 -40 112 -126 123v18c99 -3 143 -29 143 -29v-112h-17zM303 259c89 -55 119 -142 69 -214
c0 0 -33 -47 -119 -53v19c52 16 54 92 -14 137l-101 61c-97 59 -123 140 -68 212c0 0 33 43 118 49v-19c-50 -14 -63 -80 14 -129zM68 163c14 -37 43 -141 143 -154v-18c-107 5 -160 46 -160 46v126h17z" />
    <glyph glyph-name="uni021A" unicode="&#x21a;" horiz-adv-x="698" 
d="M377 -240c32 48 69 137 19 187c-32 32 -85 32 -117 0c-32 -33 -32 -86 1 -117c16 -16 36 -22 56 -24c16 -2 3 -67 -54 -111l11 -14c46 25 70 57 84 79zM19 704h658v-201h-17c-8 179 -221 184 -221 184h-19v-566c0 -68 43 -104 85 -104v-17h-315v17c42 0 85 36 85 104v566
h-19s-212 -5 -220 -184h-17v201z" />
    <glyph glyph-name="uni021B" unicode="&#x21b;" horiz-adv-x="354" 
d="M231 -240c32 48 69 137 19 187c-32 32 -85 32 -117 0c-32 -33 -32 -86 1 -117c16 -16 36 -22 56 -24c16 -2 3 -67 -54 -111l11 -14c46 25 70 57 84 79zM269 62c29 0 51 20 60 35l15 -9c-20 -47 -81 -97 -148 -97c-79 0 -126 32 -126 153v301h-50l-3 17h53v134l125 21
v-155h119l-4 -17h-115v-298c0 -56 24 -85 74 -85z" />
    </font>
</defs>
</svg>
