<?xml version="1.0" standalone="no"?>
<!DOCTYPE svg PUBLIC "-//W3C//DTD SVG 1.1//EN" "http://www.w3.org/Graphics/SVG/1.1/DTD/svg11.dtd" >
<svg xmlns="http://www.w3.org/2000/svg" xmlns:xlink="http://www.w3.org/1999/xlink" version="1.1">
<metadata>
Created by FontForge 20170925 at Thu Feb 18 19:04:11 2016
 By Jimmy Wärting
Created by Fabian De Smet
</metadata>
<defs>
<font id="ButlerStencil-Medium" horiz-adv-x="508" >
  <font-face 
    font-family="Butler Stencil"
    font-weight="500"
    font-stretch="normal"
    units-per-em="1000"
    panose-1="2 7 8 3 8 7 6 2 3 3"
    ascent="735"
    descent="-265"
    x-height="462"
    cap-height="704"
    bbox="-146 -292 1072 983"
    underline-thickness="50"
    underline-position="-100"
    stemh="18"
    stemv="138"
    unicode-range="U+0020-FB02"
  />
<missing-glyph horiz-adv-x="507" 
d="M281 352l178 -268v538zM79 657l174 -261l173 261h-347zM-1 704h508v-704h-508v704zM224 352l-178 270v-538zM253 310l-174 -262h347z" />
    <glyph glyph-name="f_i" unicode="fi" horiz-adv-x="557" 
d="M478 101c0 -55 5 -84 41 -93v-8h-186v8c38 11 39 42 39 93v272c0 35 -12 74 -50 74h-133v-348c0 -55 9 -83 45 -91v-8h-190v8c38 10 39 40 39 91v348h-64l-1 15h65v17c0 188 78 258 224 265v-15c-45 -7 -118 -41 -118 -230v-37h134h155v-361zM395 692c19 2 1 29 -42 36
v15c58 -6 103 -36 112 -71c10 -21 11 -51 -1 -71c-18 -30 -57 -39 -86 -21c-30 18 -39 56 -21 85c9 15 23 24 38 27z" />
    <glyph glyph-name="f_l" unicode="fl" horiz-adv-x="542" 
d="M528 15v-15h-186v15c38 11 39 35 39 86v538c0 30 -14 57 -52 67c-43 12 -149 29 -149 -214v-30h107l-3 -15h-104v-348c0 -55 9 -76 45 -84v-15h-191v15c38 10 40 33 40 84v348h-64l-2 15h66v60c0 153 75 223 172 223c39 0 74 -9 106 -29l135 30v-645c0 -55 5 -77 41 -86z
" />
    <glyph glyph-name=".notdef" horiz-adv-x="507" 
d="M281 352l178 -268v538zM79 657l174 -261l173 261h-347zM-1 704h508v-704h-508v704zM224 352l-178 270v-538zM253 310l-174 -262h347z" />
    <glyph glyph-name="space" unicode=" " horiz-adv-x="257" 
 />
    <glyph glyph-name="exclam" unicode="!" horiz-adv-x="318" 
d="M186 206h-57l-27 539h113zM224 59c0 37 -30 67 -67 67s-67 -30 -67 -67c0 -38 30 -68 67 -68s67 30 67 68z" />
    <glyph glyph-name="quotedbl" unicode="&#x22;" horiz-adv-x="519" 
d="M328 378l-31 326h115l-30 -326h-54zM131 378l-30 326h113l-28 -326h-55z" />
    <glyph glyph-name="numbersign" unicode="#" horiz-adv-x="709" 
d="M448 471h-148l-38 -164h148zM662 471h-137l-38 -164h112v-74h-129l-54 -233h-77l54 233h-148l-54 -233h-77l54 233h-124v74h141l38 164h-115v73h131l47 202h77l-46 -202h147l47 202h77l-47 -202h121v-73z" />
    <glyph glyph-name="dollar" unicode="$" horiz-adv-x="568" 
d="M54 243c13 -67 54 -182 141 -229v-15c-103 16 -149 52 -149 52v192h8zM500 498c-12 55 -50 158 -141 193v15c98 -12 150 -40 150 -40v-168h-9zM288 6c164 3 156 168 51 243l-51 32v-275zM397 366c133 -88 172 -197 108 -293c-31 -37 -77 -80 -217 -82v-122h-22v427
l-87 56c-119 76 -191 171 -111 285c0 0 50 76 198 76v122h22v-397zM266 452v246c-108 0 -168 -135 -28 -227z" />
    <glyph glyph-name="percent" unicode="%" horiz-adv-x="992" 
d="M785 201c0 138 -17 168 -60 168c-45 0 -61 -30 -61 -168s17 -163 61 -163c45 0 60 25 60 163zM413 496c0 -92 -26 -176 -135 -176c-110 0 -137 84 -137 176s27 182 137 182c109 0 135 -90 135 -182zM338 496c0 138 -17 169 -60 169c-45 0 -61 -31 -61 -169
s17 -162 61 -162c45 0 60 24 60 162zM244 0l456 704h59l-456 -704h-59zM861 201c0 -93 -27 -176 -136 -176c-110 0 -137 83 -137 176c0 91 27 182 137 182c109 0 136 -91 136 -182z" />
    <glyph glyph-name="ampersand" unicode="&#x26;" horiz-adv-x="810" 
d="M582 288c0 17 -28 12 -54 -18c0 1 -9 12 -9 12c33 49 70 62 91 67c22 5 50 4 68 -11c24 -19 29 -56 6 -82c-20 -24 -57 -27 -82 -6c-12 10 -19 23 -20 38zM665 69c36 0 71 11 79 47h15c-1 -81 -60 -119 -116 -124c0 0 -98 -10 -138 49l-56 83
c-39 -115 -243 -199 -344 -61c-99 138 32 247 111 293l9 -14c-56 -41 -96 -140 -17 -237c54 -66 180 -72 230 33l-226 328c-93 130 -31 255 81 275c68 11 115 -7 145 -42l-14 -11c-28 30 -70 43 -106 30c-52 -19 -77 -100 -29 -171l294 -433c30 -45 82 -45 82 -45z" />
    <glyph glyph-name="quotesingle" unicode="'" horiz-adv-x="258" 
d="M105 376l-30 328h114l-29 -328h-55z" />
    <glyph glyph-name="parenleft" unicode="(" horiz-adv-x="325" 
d="M313 745l13 -12c-144 -169 -141 -403 -141 -482c0 -80 -2 -317 139 -444l-13 -13c-178 100 -232 308 -232 460c0 151 55 366 234 491z" />
    <glyph glyph-name="parenright" unicode=")" horiz-adv-x="329" 
d="M-2 733l13 12c179 -125 234 -340 234 -491c0 -152 -54 -360 -232 -460l-13 13c141 127 139 364 139 444c0 79 3 313 -141 482z" />
    <glyph glyph-name="asterisk" unicode="*" horiz-adv-x="551" 
d="M483 519l-182 -29l131 -129l-75 -55l-83 165l-84 -165l-74 55l131 129l-183 29l29 87l164 -84l-29 182h92l-29 -182l164 84z" />
    <glyph glyph-name="plus" unicode="+" horiz-adv-x="715" 
d="M657 350v-80h-260v-270h-81v270h-260v80h260v269h81v-269h260z" />
    <glyph glyph-name="comma" unicode="," horiz-adv-x="254" 
d="M89 -129l-9 11c62 46 66 109 50 111c-17 2 -34 7 -48 21c-27 27 -28 71 -1 99c28 28 73 28 100 0c43 -42 16 -122 -14 -168c-13 -21 -33 -50 -78 -74z" />
    <glyph glyph-name="hyphen" unicode="-" horiz-adv-x="444" 
d="M379 215h-315v80h315v-80z" />
    <glyph glyph-name="period" unicode="." horiz-adv-x="252" 
d="M127 -5c-40 0 -72 32 -72 72s32 72 72 72c39 0 72 -32 72 -72s-33 -72 -72 -72z" />
    <glyph glyph-name="slash" unicode="/" horiz-adv-x="420" 
d="M403 725l-308 -746h-81l308 746h81z" />
    <glyph glyph-name="zero" unicode="0" horiz-adv-x="619" 
d="M343 711c191 -19 240 -189 240 -365c0 -174 -49 -335 -240 -353v16c70 17 107 97 107 337s-40 328 -107 348v17zM34 346c0 176 48 346 239 365v-17c-69 -19 -106 -108 -106 -348c0 -238 38 -318 106 -336v-17c-191 18 -239 179 -239 353z" />
    <glyph glyph-name="one" unicode="1" horiz-adv-x="405" 
d="M344 15v-15h-273v15c41 0 88 4 88 78v454c0 82 -74 32 -92 17l-9 14l174 135h33v-620c0 -77 44 -78 79 -78z" />
    <glyph glyph-name="two" unicode="2" horiz-adv-x="487" 
d="M436 165h15l-45 -165h-367l73 108h232c34 0 70 17 92 57zM231 713c100 0 171 -76 171 -167c0 -66 -42 -130 -123 -227l-16 12c172 275 -149 372 -207 190l-15 3c16 190 190 189 190 189z" />
    <glyph glyph-name="three" unicode="3" horiz-adv-x="514" 
d="M310 394c95 -37 149 -106 152 -173c8 -156 -103 -216 -197 -228v17c75 16 100 87 92 172c-4 48 -40 151 -191 167v16c160 39 164 181 92 241c-54 46 -166 27 -194 -58l-15 3c17 162 173 162 181 162c151 0 259 -185 80 -319zM135 38c-7 -2 7 -23 60 -30v-15
c-61 5 -106 24 -139 52c-17 14 -25 42 -18 67c10 35 48 55 82 45c35 -11 55 -47 45 -83c-5 -17 -16 -29 -30 -36z" />
    <glyph glyph-name="four" unicode="4" horiz-adv-x="538" 
d="M500 200h-100v-67c0 -116 38 -118 80 -118v-15h-282v15c42 0 80 4 80 113v72h-249v15l58 88l14 -8c-18 -33 0 -34 22 -34h155v329l80 121l42 -7v-443h100v-61z" />
    <glyph glyph-name="five" unicode="5" horiz-adv-x="535" 
d="M149 38c-10 -5 1 -23 45 -30v-15c-72 8 -109 37 -124 51c-17 15 -26 44 -19 68c10 35 47 56 83 46c35 -10 56 -47 46 -83c-5 -18 -18 -31 -31 -37zM465 704l-34 -112h-332l20 112h346zM71 427c318 64 407 -97 412 -195c9 -151 -98 -227 -219 -239v15
c108 16 154 104 128 190c-18 61 -104 168 -340 127z" />
    <glyph glyph-name="six" unicode="6" horiz-adv-x="563" 
d="M393 679c5 1 0 9 -23 15v15c59 -11 86 -46 95 -61c10 -19 10 -48 -5 -68c-20 -31 -61 -37 -91 -17c-29 21 -36 62 -16 91c10 14 23 23 40 25zM337 436c142 0 187 -112 187 -218c0 -141 -82 -214 -201 -225v15c52 13 78 62 78 191c0 141 -48 198 -104 198
c-55 0 -108 -36 -123 -99c2 -173 23 -266 78 -290v-15c-143 17 -209 141 -209 325c0 218 112 375 257 393v-15c-70 -22 -125 -121 -126 -358c29 75 101 98 163 98z" />
    <glyph glyph-name="seven" unicode="7" horiz-adv-x="553" 
d="M188 0c5 159 61 344 216 526h15c-94 -204 -108 -416 -108 -526h-123zM46 538l21 166h451l-63 -108h-300c-40 0 -75 -18 -94 -58h-15z" />
    <glyph glyph-name="eight" unicode="8" horiz-adv-x="552" 
d="M344 408c95 -46 174 -122 174 -212c0 -135 -84 -194 -199 -204v16c49 12 91 53 90 131c0 78 -72 126 -155 169c-17 9 -22 12 -37 21c-30 -15 -88 -61 -88 -168c0 -85 46 -141 119 -153v-16c-128 7 -212 53 -212 164c0 86 86 162 162 184c-95 58 -132 120 -132 191
c0 109 74 168 169 180v-16c-40 -13 -70 -52 -70 -109c0 -75 50 -124 161 -168c38 16 68 64 68 135c-1 93 -43 131 -89 142v16c100 -10 166 -64 166 -149c0 -59 -47 -135 -127 -154z" />
    <glyph glyph-name="nine" unicode="9" horiz-adv-x="555" 
d="M161 27c-5 0 7 -13 37 -19v-16c-75 11 -99 51 -108 67c-10 18 -10 48 5 68c20 30 61 37 91 16c29 -20 36 -61 16 -91c-10 -14 -24 -23 -41 -25zM309 710c143 -16 208 -135 208 -319c0 -234 -82 -380 -249 -398v15c94 17 117 107 117 359c-33 -78 -99 -98 -161 -98
c-142 0 -187 112 -187 218c0 139 82 212 201 223v-15c-52 -13 -78 -64 -78 -189c0 -141 48 -198 104 -198c55 0 105 38 121 101c-2 174 -21 263 -76 286v15z" />
    <glyph glyph-name="colon" unicode=":" horiz-adv-x="252" 
d="M127 304c-41 0 -73 33 -73 73s32 73 73 73c39 0 73 -33 73 -73s-34 -73 -73 -73zM127 16c-41 0 -73 32 -73 72c0 41 32 74 73 74c39 0 73 -33 73 -74c0 -40 -34 -72 -73 -72z" />
    <glyph glyph-name="semicolon" unicode=";" horiz-adv-x="251" 
d="M126 303c-40 0 -72 33 -72 74c0 40 32 73 72 73c41 0 73 -33 73 -73c0 -41 -32 -74 -73 -74zM84 -104c45 24 65 53 78 74c30 46 57 126 14 168c-27 28 -72 28 -100 0c-27 -28 -26 -72 1 -99c14 -14 31 -19 48 -21c16 -2 12 -65 -50 -111z" />
    <glyph glyph-name="less" unicode="&#x3c;" horiz-adv-x="600" 
d="M170 266l383 -201v-81l-507 260v43l507 260v-82z" />
    <glyph glyph-name="equal" unicode="=" horiz-adv-x="613" 
d="M567 344h-511v71h511v-71zM567 119h-511v71h511v-71z" />
    <glyph glyph-name="greater" unicode="&#x3e;" horiz-adv-x="600" 
d="M47 65l383 201l-383 199v82l507 -260v-43l-507 -260v81z" />
    <glyph glyph-name="question" unicode="?" horiz-adv-x="584" 
d="M273 143c42 0 75 -33 75 -74s-33 -74 -75 -74c-41 0 -73 33 -73 74s32 74 73 74zM187 628c19 -28 12 -65 -14 -85c-27 -19 -65 -11 -85 17c-13 19 -12 42 -6 61c5 23 29 64 75 86l5 -16c-27 -15 -25 -38 -12 -39c15 -3 27 -11 37 -24zM224 729c137 30 268 -36 274 -159
c7 -146 -91 -206 -148 -224c-52 -18 -80 -64 -75 -124l-23 -3c-6 39 -12 104 52 158c46 38 77 83 68 189c-9 102 -76 150 -144 148z" />
    <glyph glyph-name="at" unicode="@" horiz-adv-x="880" 
d="M552 253c3 16 17 120 -46 120s-115 -76 -132 -167c-22 -115 26 -157 71 -161c46 -4 70 36 70 36c5 25 27 122 37 172zM827 243c-22 -222 -181 -252 -254 -252c-46 0 -67 30 -62 62c-10 -13 -54 -62 -132 -62c-87 0 -116 97 -107 174c9 83 67 228 217 228
c63 0 83 -39 84 -40c2 12 5 26 5 26l84 -1s-51 -263 -59 -299c-5 -20 -5 -50 28 -50c42 0 141 56 150 218c6 115 -26 294 -246 311c-233 17 -366 -169 -390 -354c0 0 -62 -350 289 -377c118 -9 206 56 206 56l9 -13s-70 -75 -235 -75c-145 0 -389 74 -376 386
c11 278 250 443 487 433c172 -6 326 -136 302 -371z" />
    <glyph glyph-name="A" unicode="A" horiz-adv-x="698" 
d="M600 92c34 -80 56 -75 83 -77v-15h-257v15c66 0 35 82 23 110l-32 80h-248c-14 -40 -66 -196 82 -190v-15h-234v15c30 1 55 0 137 205h258l-133 332l57 152h14c184 -441 250 -612 250 -612z" />
    <glyph glyph-name="B" unicode="B" horiz-adv-x="615" 
d="M568 179c0 -164 -121 -178 -279 -179v15c80 2 150 16 150 169c0 145 -82 163 -150 165v16c54 6 109 38 109 170c0 124 -59 148 -109 153v16c125 -2 232 -14 232 -170c0 -153 -153 -173 -173 -173c65 0 220 -12 220 -182zM37 696v8h182v-704h-182v9c43 0 58 52 58 120v447
c0 62 -14 120 -58 120z" />
    <glyph glyph-name="C" unicode="C" horiz-adv-x="681" 
d="M423 8c93 13 169 89 187 201h15l12 -156c-65 -43 -127 -58 -214 -61v16zM610 496c-38 129 -101 190 -187 200v16c86 -2 159 -15 214 -60l-12 -156h-15zM41 352c0 200 121 344 312 359v-15c-93 -13 -158 -88 -158 -344c0 -257 67 -331 158 -344v-15
c-191 15 -312 161 -312 359z" />
    <glyph glyph-name="D" unicode="D" horiz-adv-x="735" 
d="M307 703c190 -5 382 -73 382 -353c0 -284 -192 -345 -382 -350v15c102 4 234 39 234 335c0 292 -132 334 -234 338v15zM42 704h195v-704h-195v15c42 0 71 46 71 113v448c0 61 -28 113 -71 113v15z" />
    <glyph glyph-name="E" unicode="E" horiz-adv-x="625" 
d="M562 213v-213h-282v16c89 5 242 30 267 197h15zM209 704v-704h-179v15c42 0 55 44 55 112v455c0 62 -11 107 -55 107v15h179zM534 519c-13 143 -166 165 -254 169v16h269v-185h-15zM410 246c-10 83 -83 97 -130 100v19c47 3 120 18 130 101h15v-220h-15z" />
    <glyph glyph-name="F" unicode="F" horiz-adv-x="573" 
d="M207 704v-575c0 -106 38 -114 81 -114v-15h-260v15c42 0 55 44 55 112v455c0 62 -11 107 -55 107v15h179zM415 245c-10 83 -90 98 -137 101v19c47 3 127 17 137 100h15v-220h-15zM278 689v15h277v-185h-15c-21 148 -174 167 -262 170z" />
    <glyph glyph-name="G" unicode="G" horiz-adv-x="730" 
d="M195 352c0 -246 58 -329 151 -343v-16c-194 16 -307 171 -307 359s112 342 305 359v-16c-93 -15 -149 -98 -149 -343zM447 280h258v-15c-57 0 -67 -14 -67 -232c-55 -21 -131 -38 -221 -41v15c88 5 112 30 112 111c0 143 -21 147 -82 147v15zM598 492
c-19 145 -84 196 -184 205v15c94 -2 164 -17 220 -54l-8 -166h-28z" />
    <glyph glyph-name="H" unicode="H" horiz-adv-x="634" 
d="M567 563v-427c0 -82 -5 -107 47 -121v-15h-192v15c27 10 26 35 26 121v192h-258v-192c0 -92 -2 -111 26 -121v-15h-193v15c53 14 48 32 48 121v427c0 84 0 117 -48 126v15h193v-15c-28 -9 -26 -39 -26 -126v-216h258v216c0 87 2 117 -26 126v15h192v-15
c-47 -9 -47 -39 -47 -126z" />
    <glyph glyph-name="I" unicode="I" horiz-adv-x="363" 
d="M47 704h279v-15c-43 0 -78 -22 -78 -84v-491c0 -68 36 -99 78 -99v-15h-279v15c43 0 78 31 78 99v491c0 62 -34 84 -78 84v15z" />
    <glyph glyph-name="J" unicode="J" horiz-adv-x="418" 
d="M90 704h287v-15c-45 0 -83 -28 -83 -92v-415c0 -236 -126 -325 -289 -349l-4 15c86 31 167 111 167 328v299c0 188 -1 214 -78 214v15z" />
    <glyph glyph-name="K" unicode="K" horiz-adv-x="770" 
d="M757 15v-15h-132c-106 0 -129 30 -235 181c-57 82 -106 146 -106 146l132 160c29 33 173 199 9 202v15h303v-15c-70 0 -133 -13 -349 -290c176 -235 242 -324 242 -324c47 -62 116 -60 136 -60zM38 704h273v-15c-44 0 -82 -11 -82 -84v-491c0 -68 28 -99 71 -99v-15h-262
v15c42 0 67 31 67 99v491c0 62 -24 84 -67 84v15z" />
    <glyph glyph-name="L" unicode="L" horiz-adv-x="640" 
d="M578 217v-217h-277v16c93 5 242 33 262 201h15zM231 600v-600h-186v15c43 0 63 41 63 109v478c0 61 -28 87 -71 87v15h277v-15c-43 0 -83 -17 -83 -89z" />
    <glyph glyph-name="M" unicode="M" horiz-adv-x="949" 
d="M174 251c0 -58 8 -236 133 -236v-15h-293v15c136 0 145 180 145 236h15zM845 119c0 -75 41 -104 84 -104v-15h-279v15c42 0 72 29 72 104v585h200v-15c-43 0 -77 -24 -77 -88v-482zM47 704h226l258 -553l-62 -160h-15l-295 631c-38 65 -87 65 -112 67v15z" />
    <glyph glyph-name="N" unicode="N" horiz-adv-x="822" 
d="M184 252c0 -44 -1 -237 134 -237v-15h-297v15c148 0 148 192 148 237h15zM10 704h215l432 -546v-158h-42l-486 616c-64 80 -93 71 -119 73v15zM508 689v15h295v-15c-148 1 -146 -190 -146 -237h-15c0 47 1 238 -134 237z" />
    <glyph glyph-name="O" unicode="O" horiz-adv-x="755" 
d="M184 347c0 -246 58 -325 157 -339v-15c-196 16 -300 166 -300 354c0 187 104 347 300 364v-16c-99 -15 -157 -102 -157 -348zM711 347c0 -188 -103 -339 -300 -354v15c98 14 155 92 155 339s-57 333 -155 348v16c197 -17 300 -177 300 -364z" />
    <glyph glyph-name="P" unicode="P" horiz-adv-x="619" 
d="M444 502c0 160 -68 183 -156 187v14c174 -4 292 -42 292 -201c0 -158 -118 -196 -292 -201v15c89 4 156 28 156 186zM218 704v-567c0 -117 55 -122 108 -122v-15h-296v15c45 0 66 39 66 121v449c0 65 -21 104 -68 104v15h190z" />
    <glyph glyph-name="Q" unicode="Q" horiz-adv-x="751" 
d="M711 347c0 -189 -103 -339 -300 -355v16c98 13 155 91 155 339c0 246 -57 333 -155 348v16c197 -17 300 -177 300 -364zM184 347c0 -247 58 -325 157 -339v-16c-197 17 -300 167 -300 355c0 187 103 346 300 364v-16c-99 -16 -157 -103 -157 -348zM587 -123
c77 -26 121 10 144 26l10 -11l-91 -77c-77 -63 -160 -40 -322 30l-82 34c-70 30 -119 -5 -141 -21l-12 11c163 137 333 64 333 64z" />
    <glyph glyph-name="R" unicode="R" horiz-adv-x="687" 
d="M567 108c20 -76 86 -91 112 -93v-15h-84c-153 1 -132 1 -196 218c-23 78 -82 97 -117 102v17c86 3 148 22 148 176c0 155 -64 173 -148 176v14c175 -3 285 -34 285 -190c0 -129 -77 -172 -190 -182c65 2 142 -23 190 -223zM212 704v-591c0 -69 27 -98 69 -98v-15h-257v15
c43 0 67 28 67 104v487c0 62 -23 83 -67 83v15h188z" />
    <glyph glyph-name="S" unicode="S" horiz-adv-x="586" 
d="M60 242c16 -84 62 -216 206 -234v-16c-154 7 -221 58 -221 58v192h15zM396 365c133 -87 172 -197 108 -292c0 0 -38 -70 -168 -81v15c99 26 110 164 2 242l-160 102c-118 76 -191 171 -111 285c0 0 41 64 163 75v-15c-85 -26 -117 -145 7 -225zM493 497
c-14 70 -58 183 -193 199v16c136 -7 208 -47 208 -47v-168h-15z" />
    <glyph glyph-name="T" unicode="T" horiz-adv-x="676" 
d="M19 704h635v-189h-15c-6 171 -196 174 -203 174h-39v-580c0 -67 37 -94 79 -94v-15h-280v15c42 0 79 27 79 94v580h-39c-15 0 -196 -3 -202 -174h-15v189z" />
    <glyph glyph-name="U" unicode="U" horiz-adv-x="736" 
d="M389 43c89 0 173 67 173 195h15c0 -197 -139 -247 -245 -247c-133 0 -240 89 -240 252v358c0 65 -31 88 -75 88v15h283v-15c-43 0 -86 -13 -86 -88v-366c0 -121 73 -192 175 -192zM435 689v15h280v-15c-141 0 -138 -120 -138 -167h-15c0 47 0 167 -127 167z" />
    <glyph glyph-name="V" unicode="V" horiz-adv-x="761" 
d="M310 689c-82 0 -53 -99 -52 -103l173 -447l-55 -139h-16c-183 441 -249 612 -249 612c-30 75 -64 77 -94 77v15h293v-15zM474 689v15h265v-15c-56 0 -91 0 -187 -239l-14 4c16 47 90 235 -64 235z" />
    <glyph glyph-name="W" unicode="W" horiz-adv-x="1087" 
d="M307 689c-88 0 -54 -98 -53 -101l167 -438l-55 -150h-16l-244 609c-30 77 -63 80 -93 80v15h294v-15zM659 689c-89 0 -53 -98 -53 -101l161 -439l-57 -149h-16l-235 609c-29 77 -64 80 -94 80v15h294v-15zM798 689v15h274v-15c-59 0 -107 -24 -194 -239l-14 4
c14 48 89 235 -66 235z" />
    <glyph glyph-name="X" unicode="X" horiz-adv-x="786" 
d="M301 228l12 -14c-30 -57 -133 -199 17 -199v-15h-279v15c38 0 94 -6 250 213zM647 99c55 -77 87 -83 120 -84v-15h-294v15c68 13 11 98 2 112l-328 476c-59 82 -94 86 -124 86v15h314v-15c-42 0 -66 -37 -13 -115zM478 497c27 49 125 192 -28 192v15h303v-15
c-43 0 -115 1 -263 -206z" />
    <glyph glyph-name="Y" unicode="Y" horiz-adv-x="732" 
d="M426 117c0 -75 39 -102 81 -102v-15h-280v15c42 0 80 27 80 102v165c-147 260 -192 329 -192 329c-44 77 -77 78 -105 79v14h287v-14c-24 0 -91 1 -23 -114l152 -252v-207zM440 689v15h279v-15c-35 0 -109 0 -221 -219l-10 13c17 35 92 206 -48 206z" />
    <glyph glyph-name="Z" unicode="Z" horiz-adv-x="581" 
d="M67 704h297l-10 -15c-150 0 -255 -68 -287 -187h-18zM251 15c160 1 253 125 276 218h17l-24 -233h-277zM555 704l-371 -704h-159l396 704h134z" />
    <glyph glyph-name="bracketleft" unicode="[" horiz-adv-x="321" 
d="M113 735h193v-15c-54 0 -106 -1 -106 -85v-690c0 -73 54 -76 106 -76v-15h-193v881z" />
    <glyph glyph-name="backslash" unicode="\" horiz-adv-x="423" 
d="M325 -19l-311 753h80l311 -753h-80z" />
    <glyph glyph-name="bracketright" unicode="]" horiz-adv-x="320" 
d="M11 735h193v-881h-193v15c52 0 106 3 106 76v690c0 84 -52 85 -106 85v15z" />
    <glyph glyph-name="asciicircum" unicode="^" horiz-adv-x="569" 
d="M293 704l182 -328h-37l-157 181l-154 -181h-38l181 328h23z" />
    <glyph glyph-name="underscore" unicode="_" horiz-adv-x="560" 
d="M0 -73h560v-53h-560v53z" />
    <glyph glyph-name="grave" unicode="`" horiz-adv-x="337" 
d="M100 720l173 -163h-29l-240 134z" />
    <glyph glyph-name="a" unicode="a" 
d="M156 311c-23 -16 -55 -11 -72 12c-11 17 -12 39 -4 55c8 13 20 36 59 61l7 -14c-15 -12 -16 -21 -11 -22c13 -2 25 -8 33 -20c17 -23 11 -55 -12 -72zM452 45c0 0 23 0 29 21l15 -6c-8 -31 -47 -69 -105 -69c0 0 -93 -2 -93 89v162c-107 -25 -149 -70 -149 -126
c0 -15 9 -72 72 -72c15 0 28 3 38 9c1 -2 10 -16 11 -17c-27 -24 -68 -45 -115 -45c0 0 -114 -1 -114 102c0 105 84 121 257 165v60c0 94 -46 148 -111 129l-6 13c37 13 72 11 72 11c120 0 153 -82 153 -200v-160s-1 -66 46 -66z" />
    <glyph glyph-name="b" unicode="b" horiz-adv-x="572" 
d="M322 471c122 0 210 -98 210 -245c0 -149 -92 -226 -217 -234v16c58 11 94 70 94 207c0 158 -45 218 -130 218c-70 0 -109 -54 -109 -128v-139c0 -102 45 -149 99 -158v-16c-49 4 -91 21 -120 49c-31 -29 -84 -52 -84 -36v630c0 34 -10 48 -51 60v15l156 32v-354
c31 57 102 83 152 83z" />
    <glyph glyph-name="c" unicode="c" horiz-adv-x="491" 
d="M366 430c7 2 -9 19 -46 24v15c68 -6 99 -37 110 -51c13 -14 19 -38 11 -58c-12 -28 -44 -44 -73 -32c-29 11 -44 44 -32 72c6 15 17 25 30 30zM444 128l12 -7c-12 -50 -68 -130 -192 -130c-121 0 -219 108 -219 240c0 113 81 227 229 238v-16c-46 -11 -119 -57 -119 -207
c0 -121 67 -173 137 -183c61 -9 132 28 152 65z" />
    <glyph glyph-name="d" unicode="d" horiz-adv-x="566" 
d="M501 87c0 -49 10 -58 51 -60v-15l-129 -20c-28 -5 -28 18 -28 18v58c-31 -55 -101 -77 -150 -77c-123 0 -211 97 -211 246c0 150 92 225 218 233v-17c-58 -11 -95 -67 -95 -204c0 -160 41 -226 125 -226c67 0 113 49 113 119v158c0 97 -46 143 -97 153v16
c38 -4 71 -15 97 -32v200c0 35 -10 46 -51 58v15l157 32v-655z" />
    <glyph glyph-name="e" unicode="e" 
d="M282 59c57 -9 132 20 154 68l14 -7c-13 -50 -70 -129 -196 -129c-128 0 -217 112 -217 237c0 134 82 229 200 241v-15c-50 -18 -89 -103 -89 -199h215c0 113 -36 182 -80 199v15c119 -8 184 -82 184 -229h-319c6 -117 61 -169 134 -181z" />
    <glyph glyph-name="f" unicode="f" horiz-adv-x="315" 
d="M271 743c40 -6 70 -29 78 -43c11 -16 15 -42 6 -61c-12 -27 -45 -39 -72 -27c-27 13 -39 44 -26 72c6 14 17 23 30 26c10 1 3 13 -16 18v15zM77 462c0 207 48 271 148 281v-15c-27 -23 -42 -101 -42 -266h109l-2 -15h-107v-348c0 -54 9 -76 45 -84v-15h-190v15
c38 9 39 34 39 84v348h-64l-1 15h65z" />
    <glyph glyph-name="g" unicode="g" horiz-adv-x="558" 
d="M542 455c18 -21 16 -53 -6 -72c-21 -18 -54 -16 -72 6c-9 11 -13 24 -10 36c1 8 -27 4 -44 -20c24 -25 37 -60 37 -96c0 -75 -62 -142 -167 -151v16c36 9 65 42 65 135c0 92 -30 125 -65 134v17c51 -4 91 -21 119 -45c27 41 69 55 92 58c18 3 38 -3 51 -18zM98 -168
c48 -56 155 -82 244 -43l7 -13c-133 -64 -287 -50 -325 25c-29 57 2 117 47 154l10 -10c-37 -52 18 -114 17 -113zM312 71c69 0 187 -2 169 -143c0 0 -4 -72 -91 -130l-8 15c52 43 46 93 46 93s-6 52 -85 52h-135c-55 0 -153 10 -153 103c0 0 -3 87 92 119
c-51 23 -80 76 -80 129c0 76 61 142 166 150v-15c-38 -8 -64 -41 -64 -135c0 -92 29 -126 64 -135v-16c-28 2 -50 7 -70 15c-39 -11 -93 -102 19 -102h130z" />
    <glyph glyph-name="h" unicode="h" horiz-adv-x="523" 
d="M172 108c0 -55 5 -83 41 -92v-16h-187v16c38 11 40 41 40 92v526c0 35 -10 46 -50 57v15l156 36v-634zM464 108c0 -55 6 -84 41 -93v-15h-186v15c38 11 40 42 40 93v201c0 65 -30 99 -94 99c-20 0 -40 -9 -57 -23l-11 18c32 38 88 68 135 68c81 0 132 -38 132 -158v-205z
" />
    <glyph glyph-name="i" unicode="i" horiz-adv-x="263" 
d="M121 553c-33 0 -59 26 -59 59s26 60 59 60s61 -27 61 -60s-28 -59 -61 -59zM225 15v-15h-186v15c38 12 40 41 40 92v250c0 34 -10 48 -51 65v15l156 34v-364c0 -55 5 -82 41 -92z" />
    <glyph glyph-name="j" unicode="j" horiz-adv-x="261" 
d="M122 553c-32 0 -59 26 -59 59c0 34 27 60 59 60c33 0 61 -26 61 -60c0 -33 -28 -59 -61 -59zM79 27v326c0 34 -8 52 -50 69v15l155 34v-421c0 -189 -77 -253 -176 -278v15c71 20 71 222 71 240z" />
    <glyph glyph-name="k" unicode="k" horiz-adv-x="536" 
d="M523 15v-15h-115c-69 0 -82 18 -152 118c-23 33 -66 90 -66 90l94 100s146 142 14 139v15h234v-15c-32 -1 -112 -8 -259 -179c111 -156 161 -208 161 -208c31 -41 69 -44 89 -45zM207 15v-15h-187v15c38 11 40 41 40 92v527c0 35 -9 50 -50 61v15l156 32v-635
c0 -55 5 -83 41 -92z" />
    <glyph glyph-name="l" unicode="l" horiz-adv-x="246" 
d="M220 15v-15h-187v15c38 11 40 41 40 92v527c0 35 -9 50 -50 61v15l156 32v-635c0 -55 5 -83 41 -92z" />
    <glyph glyph-name="m" unicode="m" horiz-adv-x="778" 
d="M166 106c0 -55 6 -81 41 -91v-15h-187v15c38 11 40 40 40 91v247c0 35 -9 52 -50 69v15l156 34v-365zM714 107c0 -55 5 -83 41 -92v-15h-187v15c38 11 40 41 40 92v205c0 64 -28 98 -82 98c-18 0 -36 -9 -50 -21c-1 1 -12 13 -13 14c29 38 75 68 123 68
c79 0 128 -35 128 -156v-208zM440 107c0 -55 6 -83 41 -92v-15h-187v15c38 11 40 41 40 92v205c0 64 -26 98 -81 98c-18 0 -36 -9 -50 -21l-11 15c30 37 73 67 120 67c105 0 128 -72 128 -160v-204z" />
    <glyph glyph-name="n" unicode="n" horiz-adv-x="519" 
d="M166 106c0 -55 6 -82 41 -91v-15h-187v15c38 11 40 40 40 91v252c0 35 -9 47 -50 64v14l156 35v-365zM457 107c0 -55 5 -84 41 -93v-14h-187v14c38 11 40 42 40 93v205c0 58 -34 98 -92 98c-17 0 -33 -7 -47 -17l-12 18c33 34 81 60 125 60c80 0 132 -35 132 -156v-208z
" />
    <glyph glyph-name="o" unicode="o" horiz-adv-x="548" 
d="M510 231c0 -125 -74 -229 -212 -239v15c59 10 86 62 86 224c0 161 -27 213 -86 223v15c138 -10 212 -113 212 -238zM166 231c0 -162 27 -214 86 -224v-15c-137 10 -211 114 -211 239s74 228 211 238v-15c-59 -10 -86 -62 -86 -223z" />
    <glyph glyph-name="p" unicode="p" horiz-adv-x="579" 
d="M322 471c124 0 212 -97 212 -244c0 -150 -93 -228 -219 -236v17c58 11 95 69 95 207c0 160 -45 222 -129 222c-64 0 -103 -48 -109 -112v-186c7 -83 49 -122 97 -131v-16c-38 4 -71 15 -97 33v-189c0 -56 6 -77 41 -86v-15h-186v15c38 11 40 35 40 86v531
c0 34 -10 43 -50 55v14l155 35v-80c31 56 101 80 150 80z" />
    <glyph glyph-name="q" unicode="q" horiz-adv-x="571" 
d="M501 -164c0 -55 5 -77 41 -86v-15h-187v15c38 11 40 35 40 86v210c-36 -38 -92 -55 -134 -55c-123 0 -211 99 -211 248c0 146 88 221 210 231v-16c-59 -10 -96 -65 -96 -204c0 -160 41 -234 125 -234c66 0 104 48 106 116v172c-2 94 -41 139 -88 150v16
c44 -2 83 -16 112 -37c31 28 82 44 82 28v-625z" />
    <glyph glyph-name="r" unicode="r" horiz-adv-x="397" 
d="M171 471v-364c0 -55 5 -82 41 -92v-15h-188v15c38 12 40 41 40 92v250c0 34 -9 49 -50 65v15zM297 467c19 5 51 1 69 -16c25 -25 25 -66 0 -91s-65 -26 -92 -1c-12 13 -18 28 -17 44c2 9 -23 7 -50 -17l-9 13c39 49 75 61 99 68z" />
    <glyph glyph-name="s" unicode="s" horiz-adv-x="435" 
d="M362 440v-117h-14c-9 43 -36 119 -126 131v16c98 -4 140 -30 140 -30zM289 252c89 -55 119 -140 70 -210c0 0 -31 -42 -111 -50v17c65 16 58 100 -11 145l-101 61c-96 61 -120 132 -73 202c0 0 30 45 113 52v-16c-60 -15 -66 -89 12 -138zM47 33v131h15
c11 -48 36 -144 140 -156v-16c-105 5 -155 41 -155 41z" />
    <glyph glyph-name="t" unicode="t" horiz-adv-x="335" 
d="M311 90l13 -8c-17 -45 -70 -91 -133 -91c-75 0 -121 32 -121 153v303h-50l-3 15h53v138l106 17v-155h119l-4 -15h-115v-300c0 -68 26 -96 75 -96c29 0 52 21 60 39z" />
    <glyph glyph-name="u" unicode="u" horiz-adv-x="543" 
d="M472 88c0 -48 9 -53 51 -58v-15l-131 -23c-26 -4 -27 17 -27 17v353c0 61 3 71 -47 76v15l154 18v-383zM327 71l11 -17c-33 -36 -86 -63 -132 -63c-76 0 -134 30 -134 152v220c0 62 1 69 -56 75v15l161 18v-325c0 -65 35 -93 93 -93c20 0 40 4 57 18z" />
    <glyph glyph-name="v" unicode="v" horiz-adv-x="518" 
d="M323 462h194v-15c-30 0 -68 0 -126 -146l-15 8c9 24 45 138 -53 138v15zM222 447c-61 0 -25 -72 -25 -72l122 -261l-48 -123h-14c-177 384 -188 405 -188 405c-24 51 -51 50 -68 51v15h221v-15z" />
    <glyph glyph-name="w" unicode="w" horiz-adv-x="786" 
d="M233 447c-58 0 -27 -62 -27 -62l120 -268l-46 -126h-14c-171 384 -183 409 -183 409c-22 45 -49 46 -64 47v15h214v-15zM589 462h187v-15c-21 0 -66 -3 -115 -139l-13 12c8 25 34 127 -59 127v15zM502 447c-64 0 -29 -63 -29 -63l120 -267l-48 -126h-13l-182 409
c-22 45 -46 46 -63 47v15h215v-15z" />
    <glyph glyph-name="x" unicode="x" horiz-adv-x="529" 
d="M324 342c11 18 66 105 -38 105v15h220v-15c-23 -1 -77 7 -173 -117zM15 15c21 0 70 -2 159 117l12 -12c-15 -23 -66 -105 43 -105v-15h-214v15zM432 61c32 -46 74 -46 90 -46v-15h-223v15c50 0 -1 70 -1 70l-215 320c-37 45 -54 41 -74 42v15h221v-15
c-25 0 -46 -15 -10 -66z" />
    <glyph glyph-name="y" unicode="y" horiz-adv-x="536" 
d="M326 462h195v-14c-28 0 -68 -5 -129 -158l-11 11c11 31 46 148 -55 147v14zM327 116l-47 -125h-15c-44 96 -189 412 -189 412c-18 42 -51 44 -66 45v14h221v-14c-58 0 -28 -67 -28 -67zM237 -122l-15 1c-14 -40 -37 -49 -41 -36c-4 15 -14 30 -30 37
c-31 14 -67 0 -81 -31c-13 -31 0 -67 31 -81c21 -10 52 -5 68 8c17 14 45 39 68 102z" />
    <glyph glyph-name="z" unicode="z" horiz-adv-x="448" 
d="M57 462h194l-9 -16c-104 -8 -157 -46 -174 -116h-16zM410 462l-253 -462h-127l267 462h113zM212 17c114 13 154 78 166 135h16l-9 -152h-182z" />
    <glyph glyph-name="braceleft" unicode="{" horiz-adv-x="329" 
d="M272 -150v-14c-79 11 -144 52 -144 167v117c0 148 -41 144 -79 153v13c37 11 79 7 79 165v117c0 115 65 156 144 167v-14c-41 -15 -64 -49 -64 -153v-144c0 -110 -62 -144 -122 -144c60 0 122 -24 122 -133v-144c0 -104 23 -139 64 -153z" />
    <glyph glyph-name="bar" unicode="|" horiz-adv-x="214" 
d="M73 -164v899h67v-899h-67z" />
    <glyph glyph-name="braceright" unicode="}" horiz-adv-x="327" 
d="M53 -164v14c41 14 64 49 64 153v144c0 109 62 133 122 133c-60 0 -122 34 -122 144v144c0 104 -23 138 -64 153v14c79 -11 144 -52 144 -167v-117c0 -158 42 -154 79 -165v-13c-38 -9 -79 -5 -79 -153v-117c0 -115 -65 -156 -144 -167z" />
    <glyph glyph-name="asciitilde" unicode="~" horiz-adv-x="589" 
d="M343 204l-117 43c-34 12 -126 10 -152 -46l-13 5c66 163 191 120 191 120l117 -43c34 -13 124 -8 150 47l12 -5c-67 -163 -188 -121 -188 -121z" />
    <glyph glyph-name="uni007F" horiz-adv-x="0" 
 />
    <glyph glyph-name="uni00A0" unicode="&#xa0;" horiz-adv-x="257" 
 />
    <glyph glyph-name="exclamdown" unicode="&#xa1;" horiz-adv-x="302" 
d="M124 356h56l27 -531h-111zM153 569c37 0 66 -30 66 -66c0 -38 -29 -67 -66 -67s-67 29 -67 67c0 36 30 66 67 66z" />
    <glyph glyph-name="cent" unicode="&#xa2;" horiz-adv-x="524" 
d="M308 65v390c-45 -9 -123 -54 -123 -209c0 -114 58 -165 123 -181zM474 128l12 -7c-12 -46 -59 -119 -160 -130v-109h-18v109c-149 1 -233 110 -233 240c0 114 82 231 233 240v122h18v-532c61 -5 128 31 148 67zM395 430c7 2 -5 15 -34 21v17c59 -9 88 -37 99 -50
c12 -14 19 -38 10 -58c-11 -28 -44 -44 -73 -32c-29 11 -43 44 -31 72c5 15 17 25 29 30z" />
    <glyph glyph-name="sterling" unicode="&#xa3;" horiz-adv-x="659" 
d="M597 135l16 -3c1 -109 -96 -138 -106 -138c-55 -13 -118 23 -186 66c-46 -56 -107 -69 -179 -69v15c66 0 114 30 141 77c-36 23 -66 40 -95 53c-95 41 -148 -24 -136 -68l-16 -4c-15 46 24 170 214 105c0 0 38 -14 45 -19c2 39 -15 78 -47 126c-16 25 -39 60 -54 86h-95
v15h88c-127 276 74 392 210 360l-2 -14c-137 21 -221 -89 -72 -346h179v-15h-170l29 -41c43 -68 37 -141 8 -197c16 -11 83 -33 83 -33c68 -23 138 0 145 44zM454 684c13 0 1 13 -15 22l6 12c47 -25 62 -53 71 -76c7 -20 1 -48 -17 -65c-25 -25 -66 -24 -91 1
c-25 26 -24 67 2 91c12 13 28 16 44 15z" />
    <glyph glyph-name="currency" unicode="&#xa4;" horiz-adv-x="588" 
d="M175 460c-31 -30 -48 -71 -48 -115s17 -85 48 -115c30 -30 70 -48 115 -48c44 0 85 18 114 48c30 30 48 71 48 115s-18 85 -47 115c-30 30 -71 48 -115 48c-45 0 -85 -18 -115 -48zM479 205l83 -82l-50 -50l-82 82c-39 -29 -89 -46 -140 -46c-52 0 -101 17 -141 46
l-81 -82l-50 50l82 82c-29 40 -46 88 -46 140s17 101 46 140l-82 82l50 50l81 -82c40 30 89 46 141 46c51 0 101 -16 140 -46l82 82l50 -50l-83 -82c30 -39 46 -88 46 -140s-16 -100 -46 -140z" />
    <glyph glyph-name="yen" unicode="&#xa5;" horiz-adv-x="661" 
d="M240 576l153 -253h168v-16h-168v-70h168v-16h-168v-105c0 -74 38 -101 80 -101v-15h-280v15c42 0 80 27 80 101v105h-189v16h189v45l-15 25h-174v16h166c-129 226 -169 288 -169 288c-44 77 -76 78 -105 79v14h287v-14c-24 0 -91 1 -23 -114zM406 704h279v-15
c-35 0 -109 -1 -221 -220l-9 15c17 35 91 205 -49 205v15z" />
    <glyph glyph-name="brokenbar" unicode="&#xa6;" horiz-adv-x="212" 
d="M141 735v-375h-70v375h70zM141 186v-377h-70v377h70z" />
    <glyph glyph-name="section" unicode="&#xa7;" horiz-adv-x="545" 
d="M181 -218c-7 -1 9 -10 34 -16v-16c-49 9 -83 35 -94 52c-11 16 -13 41 -2 60c15 27 49 37 78 22c27 -16 37 -51 21 -78c-8 -13 -22 -21 -37 -24zM329 658c8 13 16 20 29 23c7 1 -1 11 -26 18v15c48 -8 83 -34 94 -52c10 -17 13 -41 3 -60c-16 -27 -50 -37 -78 -21
c-27 15 -37 50 -22 77zM189 394c-148 -98 -53 -176 22 -226c43 -29 111 -70 120 -76c15 -9 27 -19 35 -26c144 103 45 179 -30 230c-43 29 -113 73 -121 79c-11 7 -21 14 -26 19zM386 394c116 -76 175 -222 -7 -339c45 -41 75 -98 67 -165c-12 -112 -94 -141 -161 -145v15
c43 11 72 45 77 92c6 51 -7 87 -75 135l-126 83c-114 77 -172 214 14 336c-52 47 -75 100 -68 168c12 111 90 140 155 145v-15c-46 -11 -78 -44 -83 -92c-6 -50 13 -90 82 -137z" />
    <glyph glyph-name="dieresis" unicode="&#xa8;" horiz-adv-x="263" 
d="M166 645c0 29 24 53 52 53c30 0 54 -24 54 -53s-24 -52 -54 -52c-28 0 -52 23 -52 52zM-8 645c0 29 24 53 53 53s52 -24 52 -53s-23 -52 -52 -52s-53 23 -53 52z" />
    <glyph glyph-name="copyright" unicode="&#xa9;" horiz-adv-x="808" 
d="M522 276h14l5 -86c-42 -28 -78 -35 -138 -35c-120 0 -196 85 -196 204s76 203 196 203c58 0 103 -6 138 -34l-5 -86h-14c-12 94 -76 106 -119 106c-50 0 -109 -27 -109 -189c0 -164 61 -190 109 -190c45 0 107 13 119 107zM775 368c0 -205 -167 -372 -372 -372
c-207 0 -373 167 -373 372c0 206 166 373 373 373c205 0 372 -167 372 -373zM710 368c0 170 -139 310 -307 310c-170 0 -309 -140 -309 -310c0 -169 139 -309 309 -309c168 0 307 140 307 309z" />
    <glyph glyph-name="ordfeminine" unicode="&#xaa;" horiz-adv-x="300" 
d="M155 579c-55 -13 -78 -32 -78 -61c0 -8 5 -36 39 -36c22 0 34 16 39 28v69zM248 493l11 -4c-3 -17 -21 -36 -54 -36c0 0 -45 0 -49 39c-7 -21 -38 -39 -75 -39c0 0 -60 0 -60 53c0 56 43 65 134 88v30c0 54 -30 76 -69 59c-17 -7 -19 -15 -16 -15c8 0 14 -4 18 -10
c8 -12 4 -28 -7 -37c-12 -8 -28 -6 -37 6c-6 8 -6 20 -2 28c4 10 14 26 39 39c24 12 51 10 51 10c63 0 80 -43 80 -104v-84s0 -36 24 -35c0 0 10 0 12 12z" />
    <glyph glyph-name="guillemotleft" unicode="&#xab;" horiz-adv-x="610" 
d="M522 505v-33l-135 -206l135 -201v-32l-231 233zM318 505v-33l-136 -206l136 -201v-32l-231 233z" />
    <glyph glyph-name="logicalnot" unicode="&#xac;" horiz-adv-x="648" 
d="M41 394h560v-314h-72v243h-488v71z" />
    <glyph glyph-name="uni00AD" unicode="&#xad;" horiz-adv-x="444" 
d="M379 215h-315v80h315v-80z" />
    <glyph glyph-name="registered" unicode="&#xae;" horiz-adv-x="811" 
d="M469 460c0 91 -46 89 -101 89h-17v-181h17c57 0 101 0 101 92zM775 369c0 -205 -167 -372 -372 -372c-206 0 -373 167 -373 372c0 206 167 373 373 373c205 0 372 -167 372 -373zM710 369c0 170 -138 309 -307 309c-170 0 -308 -139 -308 -309c0 -169 138 -307 308 -307
c169 0 307 138 307 307zM604 196v-14h-46c-82 1 -72 1 -105 118c-16 56 -76 54 -76 54h-26v-105c0 -38 14 -53 37 -53v-14h-139v14c24 0 37 15 37 57v257c0 35 -13 39 -37 39v14h119c108 0 175 -12 175 -103c0 -70 -42 -93 -103 -99c35 2 76 -14 103 -122
c10 -41 46 -43 61 -43z" />
    <glyph glyph-name="macron" unicode="&#xaf;" horiz-adv-x="360" 
d="M377 591h-393v60h393v-60z" />
    <glyph glyph-name="degree" unicode="&#xb0;" horiz-adv-x="381" 
d="M93 607c0 -52 42 -94 95 -94c51 0 93 42 93 94c0 51 -42 93 -93 93c-53 0 -95 -42 -95 -93zM57 607c0 72 59 130 130 130s130 -58 130 -130c0 -71 -59 -129 -130 -129s-130 58 -130 129z" />
    <glyph glyph-name="plusminus" unicode="&#xb1;" horiz-adv-x="608" 
d="M335 373h225v-71h-225v-162h-71v162h-223v71h223v162h71v-162zM41 0v71h519v-71h-519z" />
    <glyph glyph-name="twosuperior" unicode="&#xb2;" horiz-adv-x="266" 
d="M206 454h13l-20 -75h-168l103 152c79 125 -64 168 -90 85l-14 3c7 87 89 85 89 85c46 0 79 -34 79 -75c0 -30 -16 -57 -51 -104c-23 -30 -66 -96 -66 -96h83c15 0 32 8 42 25z" />
    <glyph glyph-name="threesuperior" unicode="&#xb3;" horiz-adv-x="271" 
d="M123 373c-35 0 -62 12 -78 26c-8 7 -12 20 -9 31c5 16 22 26 38 21s26 -22 20 -38c-2 -8 -6 -14 -15 -17c-4 -1 7 -10 44 -10c41 0 64 36 58 78c-3 21 -17 63 -86 70v15c73 17 75 79 41 106c-26 21 -70 13 -82 -26l-15 1c7 74 82 74 84 74c70 0 119 -84 38 -146
c46 -13 68 -48 69 -78c4 -81 -67 -107 -107 -107z" />
    <glyph glyph-name="acute" unicode="&#xb4;" horiz-adv-x="360" 
d="M87 558l173 163l96 -29l-240 -134h-29z" />
    <glyph glyph-name="mu" unicode="&#xb5;" horiz-adv-x="539" 
d="M333 57c-33 -49 -103 -71 -161 -58v-162c0 -49 9 -59 51 -63v-15l-130 -23c-27 -5 -26 17 -26 17v610c0 62 1 69 -56 75v14l161 19v-328c1 -63 36 -91 93 -91c20 0 41 6 58 20zM467 88c0 -48 9 -53 51 -58v-15l-131 -23c-26 -4 -27 17 -27 17v353c0 61 3 71 -47 76v14
l154 19v-383z" />
    <glyph glyph-name="paragraph" unicode="&#xb6;" horiz-adv-x="643" 
d="M482 559v-673c0 -78 27 -136 75 -136v-15h-139v969h146v-15c-50 0 -82 -60 -82 -130zM288 704h64v-969h-189v15c48 0 124 17 124 127v423c-136 0 -250 34 -250 200c0 165 130 203 250 204h1z" />
    <glyph glyph-name="periodcentered" unicode="&#xb7;" horiz-adv-x="260" 
d="M132 246c-30 0 -54 24 -54 53s24 53 54 53c29 0 53 -24 53 -53s-24 -53 -53 -53z" />
    <glyph glyph-name="cedilla" unicode="&#xb8;" horiz-adv-x="272" 
d="M94 -68c104 32 149 -29 142 -80c-8 -69 -70 -84 -103 -83c-39 0 -62 16 -69 22c-6 6 -10 18 -8 28c5 15 20 23 35 19c15 -5 23 -19 19 -34c-1 -7 -5 -10 -9 -12c-2 -2 3 -10 32 -9c33 0 55 22 54 56c0 22 -21 84 -101 69z" />
    <glyph glyph-name="onesuperior" unicode="&#xb9;" horiz-adv-x="221" 
d="M177 393v-13h-132v13c20 0 43 4 43 38v190c0 34 -31 16 -39 9l-10 13l84 61h16v-273c0 -35 21 -38 38 -38z" />
    <glyph glyph-name="ordmasculine" unicode="&#xba;" horiz-adv-x="327" 
d="M228 537c0 131 -30 156 -66 156c-38 0 -67 -25 -67 -156c0 -130 30 -150 67 -150c38 0 66 20 66 150zM290 537c0 -86 -25 -164 -128 -164c-104 0 -129 78 -129 164c0 87 25 170 129 170c103 0 128 -83 128 -170z" />
    <glyph glyph-name="guillemotright" unicode="&#xbb;" horiz-adv-x="609" 
d="M84 472v33l231 -239l-231 -233v32l135 201zM288 472v33l231 -239l-231 -233v32l136 201z" />
    <glyph glyph-name="onequarter" unicode="&#xbc;" horiz-adv-x="642" 
d="M453 136v143l-80 -118c-16 -25 -5 -25 7 -25h73zM570 708h58l-557 -672h-57zM222 389v-14h-137v14c21 0 44 2 44 40v227c0 36 -32 15 -42 7l-9 13l88 70h17v-317c0 -40 22 -40 39 -40zM569 105h-52v-30c0 -60 19 -61 41 -61v-14h-146v14c21 0 41 2 41 59v32h-130v8
l170 254l24 -3v-228h52v-31z" />
    <glyph glyph-name="onehalf" unicode="&#xbd;" horiz-adv-x="647" 
d="M593 86h14l-24 -86h-191l116 174c90 143 -72 190 -101 96l-14 4c8 100 99 98 99 98c53 0 89 -40 89 -87c0 -34 -19 -65 -60 -118c-25 -34 -75 -110 -75 -110h96c17 0 40 9 51 29zM570 708h58l-557 -672h-57zM222 389v-14h-137v14c21 0 44 2 44 40v227c0 36 -32 15 -42 7
l-9 13l88 70h17v-317c0 -40 22 -40 39 -40z" />
    <glyph glyph-name="threequarters" unicode="&#xbe;" horiz-adv-x="643" 
d="M453 136v143l-80 -118c-16 -25 -5 -25 7 -25h73zM570 708h58l-557 -672h-57zM147 372c-41 0 -70 13 -89 29c-9 8 -13 23 -10 34c5 19 25 30 42 24c19 -5 31 -25 24 -43c-3 -9 -7 -14 -13 -17c-5 -1 5 -13 46 -13c53 0 70 40 64 89c-3 25 -18 76 -97 83v13
c82 20 85 90 48 120c-29 22 -79 11 -93 -33l-15 5c7 83 90 83 92 83c79 0 135 -96 43 -164c51 -13 77 -55 79 -89c3 -95 -75 -121 -121 -121zM569 105h-52v-30c0 -60 19 -61 41 -61v-14h-146v14c21 0 41 2 41 59v32h-130v8l170 254l24 -3v-228h52v-31z" />
    <glyph glyph-name="questiondown" unicode="&#xbf;" horiz-adv-x="596" 
d="M326 326c-41 0 -75 33 -75 74s34 74 75 74s73 -33 73 -74s-32 -74 -73 -74zM412 -156c-18 27 -11 65 15 84s64 11 84 -17c13 -18 12 -42 6 -61c-5 -22 -28 -62 -72 -84l-6 16c24 14 22 36 11 38c-16 2 -28 10 -38 24zM227 -94c9 -105 78 -151 147 -148l4 -15
c-138 -32 -271 35 -277 159c-7 145 91 204 148 223c53 17 81 63 76 123l23 4c6 -39 11 -105 -53 -158c-46 -39 -77 -83 -68 -188z" />
    <glyph glyph-name="Agrave" unicode="&#xc0;" horiz-adv-x="698" 
d="M600 92c34 -80 56 -75 83 -77v-15h-257v15c66 0 35 82 23 110l-32 80h-248c-14 -40 -66 -196 82 -190v-15h-234v15c30 1 55 0 137 205h258l-133 332l57 152h14c184 -441 250 -612 250 -612zM305 898l173 -163h-29l-240 134z" />
    <glyph glyph-name="Aacute" unicode="&#xc1;" horiz-adv-x="698" 
d="M600 92c34 -80 56 -75 83 -77v-15h-257v15c66 0 35 82 23 110l-32 80h-248c-14 -40 -66 -196 82 -190v-15h-234v15c30 1 55 0 137 205h258l-133 332l57 152h14c184 -441 250 -612 250 -612zM219 735l173 163l96 -29l-240 -134h-29z" />
    <glyph glyph-name="Acircumflex" unicode="&#xc2;" horiz-adv-x="698" 
d="M600 92c34 -80 56 -75 83 -77v-15h-257v15c66 0 35 82 23 110l-32 80h-248c-14 -40 -66 -196 82 -190v-15h-234v15c30 1 55 0 137 205h258l-133 332l57 152h14c184 -441 250 -612 250 -612zM462 735l-118 89l-119 -89h-30l149 187l149 -187h-31z" />
    <glyph glyph-name="Atilde" unicode="&#xc3;" horiz-adv-x="698" 
d="M389 758l-117 44c-34 11 -123 9 -150 -47l-12 5c66 163 188 121 188 121l117 -43c34 -13 125 -6 150 49l12 -7c-66 -163 -188 -122 -188 -122zM600 92c34 -80 56 -75 83 -77v-15h-257v15c66 0 35 82 23 110l-32 80h-248c-14 -40 -66 -196 82 -190v-15h-234v15
c30 1 55 0 137 205h258l-133 332l57 152h14c184 -441 250 -612 250 -612z" />
    <glyph glyph-name="Adieresis" unicode="&#xc4;" horiz-adv-x="698" 
d="M378 830c0 29 23 53 52 53s54 -24 54 -53s-25 -52 -54 -52s-52 23 -52 52zM204 830c0 29 24 53 52 53c30 0 53 -24 53 -53s-23 -52 -53 -52c-28 0 -52 23 -52 52zM600 92c34 -80 56 -75 83 -77v-15h-257v15c66 0 35 82 23 110l-32 80h-248c-14 -40 -66 -196 82 -190v-15
h-234v15c30 1 55 0 137 205h258l-133 332l57 152h14c184 -441 250 -612 250 -612z" />
    <glyph glyph-name="Aring" unicode="&#xc5;" horiz-adv-x="698" 
d="M281 880c0 -34 28 -62 62 -62c35 0 63 28 63 62c0 35 -28 63 -63 63c-34 0 -62 -28 -62 -63zM242 880c0 56 45 103 101 103c57 0 103 -47 103 -103s-46 -102 -103 -102c-56 0 -101 46 -101 102zM600 92c34 -80 56 -75 83 -77v-15h-257v15c66 0 35 82 23 110l-32 80h-248
c-14 -40 -66 -196 82 -190v-15h-234v15c30 1 55 0 137 205h258l-133 332l57 152h14c184 -441 250 -612 250 -612z" />
    <glyph glyph-name="AE" unicode="&#xc6;" horiz-adv-x="970" 
d="M877 518c-13 141 -152 165 -234 170v16h249v-186h-15zM573 704v-704h-194v15c43 0 69 16 69 111v113h-220c-116 -215 -36 -224 24 -224v-15h-242v15c31 1 80 21 206 239h232v334c0 78 -26 101 -81 101v15h206zM906 211v-211h-263v16c84 5 225 32 248 195h15zM754 245
c-6 79 -70 97 -111 102v15c41 4 105 22 111 102h15v-219h-15z" />
    <glyph glyph-name="Ccedilla" unicode="&#xc7;" horiz-adv-x="681" 
d="M423 8c93 13 169 89 187 201h15l12 -156c-65 -43 -127 -58 -214 -61v16zM610 496c-38 129 -101 190 -187 200v16c86 -2 159 -15 214 -60l-12 -156h-15zM41 352c0 200 121 344 312 359v-15c-93 -13 -158 -88 -158 -344c0 -257 67 -331 158 -344v-15
c-191 15 -312 161 -312 359zM352 -68c104 32 149 -29 142 -80c-8 -69 -70 -84 -103 -83c-39 0 -62 16 -69 22c-6 6 -10 18 -8 28c5 15 20 23 35 19c15 -5 23 -19 19 -34c-1 -7 -5 -10 -9 -12c-2 -2 3 -10 32 -9c33 0 55 22 54 56c0 22 -21 84 -101 69z" />
    <glyph glyph-name="Egrave" unicode="&#xc8;" horiz-adv-x="625" 
d="M562 213v-213h-282v16c89 5 242 30 267 197h15zM209 704v-704h-179v15c42 0 55 44 55 112v455c0 62 -11 107 -55 107v15h179zM534 519c-13 143 -166 165 -254 169v16h269v-185h-15zM410 246c-10 83 -83 97 -130 100v19c47 3 120 18 130 101h15v-220h-15zM259 898
l173 -163h-29l-240 134z" />
    <glyph glyph-name="Eacute" unicode="&#xc9;" horiz-adv-x="625" 
d="M562 213v-213h-282v16c89 5 242 30 267 197h15zM209 704v-704h-179v15c42 0 55 44 55 112v455c0 62 -11 107 -55 107v15h179zM534 519c-13 143 -166 165 -254 169v16h269v-185h-15zM410 246c-10 83 -83 97 -130 100v19c47 3 120 18 130 101h15v-220h-15zM148 735l173 163
l96 -29l-240 -134h-29z" />
    <glyph glyph-name="Ecircumflex" unicode="&#xca;" horiz-adv-x="625" 
d="M562 213v-213h-282v16c89 5 242 30 267 197h15zM209 704v-704h-179v15c42 0 55 44 55 112v455c0 62 -11 107 -55 107v15h179zM534 519c-13 143 -166 165 -254 169v16h269v-185h-15zM410 246c-10 83 -83 97 -130 100v19c47 3 120 18 130 101h15v-220h-15zM410 735l-118 89
l-119 -89h-30l149 187l149 -187h-31z" />
    <glyph glyph-name="Edieresis" unicode="&#xcb;" horiz-adv-x="625" 
d="M328 830c0 29 24 53 53 53s53 -24 53 -53s-24 -52 -53 -52s-53 23 -53 52zM154 830c0 29 24 53 53 53s53 -24 53 -53s-24 -52 -53 -52s-53 23 -53 52zM562 213v-213h-282v16c89 5 242 30 267 197h15zM209 704v-704h-179v15c42 0 55 44 55 112v455c0 62 -11 107 -55 107
v15h179zM534 519c-13 143 -166 165 -254 169v16h269v-185h-15zM410 246c-10 83 -83 97 -130 100v19c47 3 120 18 130 101h15v-220h-15z" />
    <glyph glyph-name="Igrave" unicode="&#xcc;" horiz-adv-x="361" 
d="M44 689v15h279v-15c-43 0 -78 -22 -78 -84v-490c0 -69 36 -100 78 -100v-15h-279v15c42 0 78 31 78 100v490c0 62 -34 84 -78 84zM141 898l173 -163h-29l-240 134z" />
    <glyph glyph-name="Iacute" unicode="&#xcd;" horiz-adv-x="361" 
d="M44 689v15h279v-15c-43 0 -78 -22 -78 -84v-490c0 -69 36 -100 78 -100v-15h-279v15c42 0 78 31 78 100v490c0 62 -34 84 -78 84zM46 735l173 163l96 -29l-240 -134h-29z" />
    <glyph glyph-name="Icircumflex" unicode="&#xce;" horiz-adv-x="361" 
d="M44 689v15h279v-15c-43 0 -78 -22 -78 -84v-490c0 -69 36 -100 78 -100v-15h-279v15c42 0 78 31 78 100v490c0 62 -34 84 -78 84zM304 735l-118 89l-119 -89h-30l149 187l149 -187h-31z" />
    <glyph glyph-name="Idieresis" unicode="&#xcf;" horiz-adv-x="361" 
d="M271 778c-29 0 -53 23 -53 52s24 53 53 53s53 -24 53 -53s-24 -52 -53 -52zM150 830c0 -29 -24 -52 -53 -52s-53 23 -53 52s24 53 53 53s53 -24 53 -53zM44 689v15h279v-15c-43 0 -78 -22 -78 -84v-490c0 -69 36 -100 78 -100v-15h-279v15c42 0 78 31 78 100v490
c0 62 -34 84 -78 84z" />
    <glyph glyph-name="Eth" unicode="&#xd0;" horiz-adv-x="732" 
d="M233 342v-342h-196v15c43 0 71 45 71 113v214h-82v19h82v215c0 62 -27 113 -71 113v15h196v-343h144v-19h-144zM685 350c0 -284 -192 -345 -382 -350v15c101 4 234 39 234 335c0 292 -132 334 -234 339v14c190 -5 382 -73 382 -353z" />
    <glyph glyph-name="Ntilde" unicode="&#xd1;" horiz-adv-x="822" 
d="M455 758l-117 44c-33 11 -123 9 -149 -47l-12 5c65 163 187 121 187 121l117 -43c34 -13 125 -6 150 49l12 -7c-66 -163 -188 -122 -188 -122zM184 252c0 -44 -1 -237 134 -237v-15h-297v15c148 0 148 192 148 237h15zM10 704h215l432 -546v-158h-42l-486 616
c-64 80 -93 71 -119 73v15zM508 689v15h295v-15c-148 1 -146 -190 -146 -237h-15c0 47 1 238 -134 237z" />
    <glyph glyph-name="Ograve" unicode="&#xd2;" horiz-adv-x="755" 
d="M184 347c0 -246 58 -325 157 -339v-15c-196 16 -300 166 -300 354c0 187 104 347 300 364v-16c-99 -15 -157 -102 -157 -348zM711 347c0 -188 -103 -339 -300 -354v15c98 14 155 92 155 339s-57 333 -155 348v16c197 -17 300 -177 300 -364zM318 898l173 -163h-29
l-240 134z" />
    <glyph glyph-name="Oacute" unicode="&#xd3;" horiz-adv-x="755" 
d="M184 347c0 -246 58 -325 157 -339v-15c-196 16 -300 166 -300 354c0 187 104 347 300 364v-16c-99 -15 -157 -102 -157 -348zM711 347c0 -188 -103 -339 -300 -354v15c98 14 155 92 155 339s-57 333 -155 348v16c197 -17 300 -177 300 -364zM235 735l173 163l96 -29
l-240 -134h-29z" />
    <glyph glyph-name="Ocircumflex" unicode="&#xd4;" horiz-adv-x="755" 
d="M184 347c0 -246 58 -325 157 -339v-15c-196 16 -300 166 -300 354c0 187 104 347 300 364v-16c-99 -15 -157 -102 -157 -348zM711 347c0 -188 -103 -339 -300 -354v15c98 14 155 92 155 339s-57 333 -155 348v16c197 -17 300 -177 300 -364zM493 735l-118 89l-119 -89
h-30l149 187l149 -187h-31z" />
    <glyph glyph-name="Otilde" unicode="&#xd5;" horiz-adv-x="755" 
d="M309 802c-34 11 -123 9 -150 -47l-12 4c66 164 188 122 188 122l117 -44c34 -12 124 -5 150 50l12 -7c-67 -163 -188 -122 -188 -122zM184 347c0 -246 58 -325 157 -339v-15c-196 16 -300 166 -300 354c0 187 104 347 300 364v-16c-99 -15 -157 -102 -157 -348zM711 347
c0 -188 -103 -339 -300 -354v15c98 14 155 92 155 339s-57 333 -155 348v16c197 -17 300 -177 300 -364z" />
    <glyph glyph-name="Odieresis" unicode="&#xd6;" horiz-adv-x="755" 
d="M411 830c0 29 24 53 53 53s53 -24 53 -53s-24 -53 -53 -53s-53 24 -53 53zM238 830c0 29 23 53 52 53s53 -24 53 -53s-24 -53 -53 -53s-52 24 -52 53zM184 347c0 -246 58 -325 157 -339v-15c-196 16 -300 166 -300 354c0 187 104 347 300 364v-16
c-99 -15 -157 -102 -157 -348zM711 347c0 -188 -103 -339 -300 -354v15c98 14 155 92 155 339s-57 333 -155 348v16c197 -17 300 -177 300 -364z" />
    <glyph glyph-name="multiply" unicode="&#xd7;" horiz-adv-x="600" 
d="M356 254l185 -184l-56 -57l-185 185l-184 -185l-57 57l185 184l-185 185l57 57l184 -185l185 185l56 -57z" />
    <glyph glyph-name="Oslash" unicode="&#xd8;" horiz-adv-x="756" 
d="M712 347c0 -188 -104 -338 -300 -354v16c98 13 155 91 155 338c0 109 -13 187 -35 241l-301 -500c25 -51 62 -73 111 -79v-16c-55 4 -103 19 -143 42l-42 -70h-21l48 79c-94 63 -142 174 -142 303c0 188 103 347 300 364v-15c-99 -16 -157 -102 -157 -349
c0 -111 13 -188 37 -239l302 501c-26 54 -64 79 -112 86v17c56 -5 105 -21 145 -47l49 80h21l-55 -90c92 -66 140 -181 140 -308z" />
    <glyph glyph-name="Ugrave" unicode="&#xd9;" horiz-adv-x="736" 
d="M320 898l173 -163h-29l-240 134zM389 43c89 0 173 67 173 195h15c0 -197 -139 -247 -245 -247c-133 0 -240 89 -240 252v358c0 65 -31 88 -75 88v15h283v-15c-43 0 -86 -13 -86 -88v-366c0 -121 73 -192 175 -192zM435 689v15h280v-15c-141 0 -138 -120 -138 -167h-15
c0 47 0 167 -127 167z" />
    <glyph glyph-name="Uacute" unicode="&#xda;" horiz-adv-x="736" 
d="M389 43c89 0 173 67 173 195h15c0 -197 -139 -247 -245 -247c-133 0 -240 89 -240 252v358c0 65 -31 88 -75 88v15h283v-15c-43 0 -86 -13 -86 -88v-366c0 -121 73 -192 175 -192zM435 689v15h280v-15c-141 0 -138 -120 -138 -167h-15c0 47 0 167 -127 167zM235 735
l173 163l96 -29l-240 -134h-29z" />
    <glyph glyph-name="Ucircumflex" unicode="&#xdb;" horiz-adv-x="736" 
d="M496 735l-118 89l-119 -89h-30l149 187l149 -187h-31zM389 43c89 0 173 67 173 195h15c0 -197 -139 -247 -245 -247c-133 0 -240 89 -240 252v358c0 65 -31 88 -75 88v15h283v-15c-43 0 -86 -13 -86 -88v-366c0 -121 73 -192 175 -192zM435 689v15h280v-15
c-141 0 -138 -120 -138 -167h-15c0 47 0 167 -127 167z" />
    <glyph glyph-name="Udieresis" unicode="&#xdc;" horiz-adv-x="736" 
d="M401 830c0 29 24 53 53 53s53 -24 53 -53s-24 -53 -53 -53s-53 24 -53 53zM228 830c0 29 23 53 52 53s53 -24 53 -53s-24 -53 -53 -53s-52 24 -52 53zM389 43c89 0 173 67 173 195h15c0 -197 -139 -247 -245 -247c-133 0 -240 89 -240 252v358c0 65 -31 88 -75 88v15h283
v-15c-43 0 -86 -13 -86 -88v-366c0 -121 73 -192 175 -192zM435 689v15h280v-15c-141 0 -138 -120 -138 -167h-15c0 47 0 167 -127 167z" />
    <glyph glyph-name="Yacute" unicode="&#xdd;" horiz-adv-x="732" 
d="M426 117c0 -75 39 -102 81 -102v-15h-280v15c42 0 80 27 80 102v165c-147 260 -192 329 -192 329c-44 77 -77 78 -105 79v14h287v-14c-24 0 -91 1 -23 -114l152 -252v-207zM440 689v15h279v-15c-35 0 -109 0 -221 -219l-10 13c17 35 92 206 -48 206zM257 735l173 163
l96 -29l-240 -134h-29z" />
    <glyph glyph-name="Thorn" unicode="&#xde;" horiz-adv-x="628" 
d="M112 119v481c0 62 -31 89 -75 89v15h273v-15c-43 0 -76 -27 -76 -89v-481c0 -68 34 -104 76 -104v-15h-273v15c42 0 75 36 75 104zM460 375c0 160 -67 183 -155 187v14c174 -4 292 -42 292 -201s-118 -194 -292 -198v15c89 3 155 25 155 183z" />
    <glyph glyph-name="germandbls" unicode="&#xdf;" horiz-adv-x="605" 
d="M69 496c0 141 55 236 173 249v-15c-68 -33 -67 -201 -67 -201v-529h-146v15c38 12 40 54 40 105v376zM309 24c-7 -3 -3 -11 16 -15v-16c-42 6 -67 24 -76 39c-11 15 -15 39 -8 58c10 26 40 39 67 28c26 -10 38 -41 28 -67c-5 -13 -16 -23 -27 -27zM581 203
c0 -104 -49 -192 -186 -208v14c54 29 62 121 62 203c-1 141 -114 197 -184 197v15c53 0 112 21 112 156c0 101 -40 139 -73 150v16c90 -8 173 -43 173 -171c0 -125 -114 -155 -134 -155c67 0 230 -50 230 -217z" />
    <glyph glyph-name="agrave" unicode="&#xe0;" 
d="M156 311c-23 -16 -55 -11 -72 12c-11 17 -12 39 -4 55c8 13 20 36 59 61l7 -14c-15 -12 -16 -21 -11 -22c13 -2 25 -8 33 -20c17 -23 11 -55 -12 -72zM452 45c0 0 23 0 29 21l15 -6c-8 -31 -47 -69 -105 -69c0 0 -93 -2 -93 89v162c-107 -25 -149 -70 -149 -126
c0 -15 9 -72 72 -72c15 0 28 3 38 9c1 -2 10 -16 11 -17c-27 -24 -68 -45 -115 -45c0 0 -114 -1 -114 102c0 105 84 121 257 165v60c0 94 -46 148 -111 129l-6 13c37 13 72 11 72 11c120 0 153 -82 153 -200v-160s-1 -66 46 -66zM218 704l173 -163h-29l-240 134z" />
    <glyph glyph-name="aacute" unicode="&#xe1;" 
d="M156 311c-23 -16 -55 -11 -72 12c-11 17 -12 39 -4 55c8 13 20 36 59 61l7 -14c-15 -12 -16 -21 -11 -22c13 -2 25 -8 33 -20c17 -23 11 -55 -12 -72zM452 45c0 0 23 0 29 21l15 -6c-8 -31 -47 -69 -105 -69c0 0 -93 -2 -93 89v162c-107 -25 -149 -70 -149 -126
c0 -15 9 -72 72 -72c15 0 28 3 38 9c1 -2 10 -16 11 -17c-27 -24 -68 -45 -115 -45c0 0 -114 -1 -114 102c0 105 84 121 257 165v60c0 94 -46 148 -111 129l-6 13c37 13 72 11 72 11c120 0 153 -82 153 -200v-160s-1 -66 46 -66zM127 541l173 163l96 -29l-240 -134h-29z" />
    <glyph glyph-name="acircumflex" unicode="&#xe2;" 
d="M156 311c-23 -16 -55 -11 -72 12c-11 17 -12 39 -4 55c8 13 20 36 59 61l7 -14c-15 -12 -16 -21 -11 -22c13 -2 25 -8 33 -20c17 -23 11 -55 -12 -72zM452 45c0 0 23 0 29 21l15 -6c-8 -31 -47 -69 -105 -69c0 0 -93 -2 -93 89v162c-107 -25 -149 -70 -149 -126
c0 -15 9 -72 72 -72c15 0 28 3 38 9c1 -2 10 -16 11 -17c-27 -24 -68 -45 -115 -45c0 0 -114 -1 -114 102c0 105 84 121 257 165v60c0 94 -46 148 -111 129l-6 13c37 13 72 11 72 11c120 0 153 -82 153 -200v-160s-1 -66 46 -66zM381 517l-118 89l-119 -89h-30l149 187
l149 -187h-31z" />
    <glyph glyph-name="atilde" unicode="&#xe3;" 
d="M307 554l-117 43c-34 12 -123 10 -150 -46l-12 4c66 163 188 122 188 122l117 -44c34 -12 124 -5 150 49l12 -6c-67 -163 -188 -122 -188 -122zM156 311c-23 -16 -55 -11 -72 12c-11 17 -12 39 -4 55c8 13 20 36 59 61l7 -14c-15 -12 -16 -21 -11 -22c13 -2 25 -8 33 -20
c17 -23 11 -55 -12 -72zM452 45c0 0 23 0 29 21l15 -6c-8 -31 -47 -69 -105 -69c0 0 -93 -2 -93 89v162c-107 -25 -149 -70 -149 -126c0 -15 9 -72 72 -72c15 0 28 3 38 9c1 -2 10 -16 11 -17c-27 -24 -68 -45 -115 -45c0 0 -114 -1 -114 102c0 105 84 121 257 165v60
c0 94 -46 148 -111 129l-6 13c37 13 72 11 72 11c120 0 153 -82 153 -200v-160s-1 -66 46 -66z" />
    <glyph glyph-name="adieresis" unicode="&#xe4;" 
d="M344 563c-29 0 -52 24 -52 53s23 53 52 53s53 -24 53 -53s-24 -53 -53 -53zM118 616c0 29 23 53 52 53c30 0 53 -24 53 -53s-23 -53 -53 -53c-29 0 -52 24 -52 53zM156 311c-23 -16 -55 -11 -72 12c-11 17 -12 39 -4 55c8 13 20 36 59 61l7 -14c-15 -12 -16 -21 -11 -22
c13 -2 25 -8 33 -20c17 -23 11 -55 -12 -72zM452 45c0 0 23 0 29 21l15 -6c-8 -31 -47 -69 -105 -69c0 0 -93 -2 -93 89v162c-107 -25 -149 -70 -149 -126c0 -15 9 -72 72 -72c15 0 28 3 38 9c1 -2 10 -16 11 -17c-27 -24 -68 -45 -115 -45c0 0 -114 -1 -114 102
c0 105 84 121 257 165v60c0 94 -46 148 -111 129l-6 13c37 13 72 11 72 11c120 0 153 -82 153 -200v-160s-1 -66 46 -66z" />
    <glyph glyph-name="aring" unicode="&#xe5;" 
d="M254 700c-35 0 -63 -28 -63 -62s28 -62 63 -62c34 0 62 28 62 62s-28 62 -62 62zM254 536c-57 0 -102 46 -102 102s45 102 102 102c56 0 101 -46 101 -102s-45 -102 -101 -102zM156 311c-23 -16 -55 -11 -72 12c-11 17 -12 39 -4 55c8 13 20 36 59 61l7 -14
c-15 -12 -16 -21 -11 -22c13 -2 25 -8 33 -20c17 -23 11 -55 -12 -72zM452 45c0 0 23 0 29 21l15 -6c-8 -31 -47 -69 -105 -69c0 0 -93 -2 -93 89v162c-107 -25 -149 -70 -149 -126c0 -15 9 -72 72 -72c15 0 28 3 38 9c1 -2 10 -16 11 -17c-27 -24 -68 -45 -115 -45
c0 0 -114 -1 -114 102c0 105 84 121 257 165v60c0 94 -46 148 -111 129l-6 13c37 13 72 11 72 11c120 0 153 -82 153 -200v-160s-1 -66 46 -66z" />
    <glyph glyph-name="ae" unicode="&#xe6;" horiz-adv-x="724" 
d="M78 378c8 14 20 37 60 62l7 -13c-16 -12 -16 -21 -11 -22c13 -2 24 -10 32 -21c17 -24 11 -56 -12 -73c-23 -16 -55 -11 -72 13c-11 17 -12 38 -4 54zM514 60c59 -8 115 29 136 68l15 -8c-13 -48 -51 -129 -176 -129c-103 0 -194 83 -200 212c-1 19 -1 39 -1 39
c-27 -8 -138 -40 -138 -125c0 -15 6 -73 69 -73c27 0 50 10 64 25l12 -16c-28 -35 -77 -62 -139 -62c0 0 -114 0 -114 103c0 98 78 119 246 165v59c0 93 -38 146 -101 130l-8 13c35 11 63 10 63 10c56 0 93 -28 114 -70c35 37 70 62 116 69v-16c-48 -19 -77 -102 -77 -200
h190c0 117 -24 184 -66 200v16c116 -9 163 -81 163 -231h-287c5 -112 43 -167 119 -179z" />
    <glyph glyph-name="ccedilla" unicode="&#xe7;" horiz-adv-x="491" 
d="M366 430c7 2 -9 19 -46 24v15c68 -6 99 -37 110 -51c13 -14 19 -38 11 -58c-12 -28 -44 -44 -73 -32c-29 11 -44 44 -32 72c6 15 17 25 30 30zM444 128l12 -7c-12 -50 -68 -130 -192 -130c-121 0 -219 108 -219 240c0 113 81 227 229 238v-16c-46 -11 -119 -57 -119 -207
c0 -121 67 -173 137 -183c61 -9 132 28 152 65zM216 -68c104 32 149 -29 142 -80c-8 -69 -70 -84 -103 -83c-39 0 -62 16 -69 22c-6 6 -10 18 -8 28c5 15 20 23 35 19c15 -5 23 -19 19 -34c-1 -7 -5 -10 -9 -12c-2 -2 3 -10 32 -9c33 0 55 22 54 56c0 22 -21 84 -101 69z
" />
    <glyph glyph-name="egrave" unicode="&#xe8;" 
d="M282 59c57 -9 132 20 154 68l14 -7c-13 -50 -70 -129 -196 -129c-128 0 -217 112 -217 237c0 134 82 229 200 241v-15c-50 -18 -89 -103 -89 -199h215c0 113 -36 182 -80 199v15c119 -8 184 -82 184 -229h-319c6 -117 61 -169 134 -181zM220 704l173 -163h-29l-240 134z
" />
    <glyph glyph-name="eacute" unicode="&#xe9;" 
d="M282 59c57 -9 132 20 154 68l14 -7c-13 -50 -70 -129 -196 -129c-128 0 -217 112 -217 237c0 134 82 229 200 241v-15c-50 -18 -89 -103 -89 -199h215c0 113 -36 182 -80 199v15c119 -8 184 -82 184 -229h-319c6 -117 61 -169 134 -181zM121 541l173 163l96 -29
l-240 -134h-29z" />
    <glyph glyph-name="ecircumflex" unicode="&#xea;" 
d="M282 59c57 -9 132 20 154 68l14 -7c-13 -50 -70 -129 -196 -129c-128 0 -217 112 -217 237c0 134 82 229 200 241v-15c-50 -18 -89 -103 -89 -199h215c0 113 -36 182 -80 199v15c119 -8 184 -82 184 -229h-319c6 -117 61 -169 134 -181zM370 517l-118 89l-119 -89h-30
l149 187l149 -187h-31z" />
    <glyph glyph-name="edieresis" unicode="&#xeb;" 
d="M345 563c-30 0 -53 24 -53 53s23 53 53 53c29 0 53 -24 53 -53s-24 -53 -53 -53zM171 563c-29 0 -52 24 -52 53s23 53 52 53s53 -24 53 -53s-24 -53 -53 -53zM282 59c57 -9 132 20 154 68l14 -7c-13 -50 -70 -129 -196 -129c-128 0 -217 112 -217 237
c0 134 82 229 200 241v-15c-50 -18 -89 -103 -89 -199h215c0 113 -36 182 -80 199v15c119 -8 184 -82 184 -229h-319c6 -117 61 -169 134 -181z" />
    <glyph glyph-name="igrave" unicode="&#xec;" horiz-adv-x="264" 
d="M226 15c-36 10 -41 37 -41 92v364l-156 -34v-15c41 -17 50 -31 50 -65v-250c0 -51 -2 -80 -40 -92v-15h187v15zM86 704l173 -163h-29l-240 134z" />
    <glyph glyph-name="iacute" unicode="&#xed;" horiz-adv-x="264" 
d="M226 15v-15h-187v15c38 12 40 41 40 92v250c0 34 -9 48 -50 65v15l156 34v-364c0 -55 5 -82 41 -92zM-1 541l173 163l96 -29l-240 -134h-29z" />
    <glyph glyph-name="icircumflex" unicode="&#xee;" horiz-adv-x="264" 
d="M226 15c-36 10 -41 37 -41 92v364l-156 -34v-15c41 -17 50 -31 50 -65v-250c0 -51 -2 -80 -40 -92v-15h187v15zM245 517l-118 89l-119 -89h-30l149 187l149 -187h-31z" />
    <glyph glyph-name="idieresis" unicode="&#xef;" horiz-adv-x="264" 
d="M214 563c-29 0 -52 24 -52 53s23 53 52 53c30 0 53 -24 53 -53s-23 -53 -53 -53zM41 563c-30 0 -53 24 -53 53s23 53 53 53c29 0 52 -24 52 -53s-23 -53 -52 -53zM226 15v-15h-187v15c38 12 40 41 40 92v250c0 34 -9 48 -50 65v15l156 34v-364c0 -55 5 -82 41 -92z" />
    <glyph glyph-name="eth" unicode="&#xf0;" horiz-adv-x="559" 
d="M397 638c69 -63 122 -173 122 -316c0 -184 -70 -312 -215 -329v16c61 25 83 124 83 322c-24 42 -68 77 -113 77c-66 0 -107 -78 -109 -208c-1 -125 23 -176 69 -191v-16c-109 12 -199 84 -196 222c2 113 58 221 197 221c47 0 117 -12 152 -74c-2 100 -22 189 -52 244
l-164 -83l-14 12l169 88c-37 53 -93 75 -151 75v14c80 0 152 -23 207 -61l102 53l15 -13z" />
    <glyph glyph-name="ntilde" unicode="&#xf1;" horiz-adv-x="519" 
d="M314 554l-117 43c-34 12 -123 10 -150 -46l-12 4c66 163 188 122 188 122l117 -44c34 -12 124 -5 150 49l12 -6c-67 -163 -188 -122 -188 -122zM166 106c0 -55 6 -82 41 -91v-15h-187v15c38 11 40 40 40 91v252c0 35 -9 47 -50 64v14l156 35v-365zM457 107
c0 -55 5 -84 41 -93v-14h-187v14c38 11 40 42 40 93v205c0 58 -34 98 -92 98c-17 0 -33 -7 -47 -17l-12 18c33 34 81 60 125 60c80 0 132 -35 132 -156v-208z" />
    <glyph glyph-name="ograve" unicode="&#xf2;" horiz-adv-x="548" 
d="M510 231c0 -125 -74 -229 -212 -239v15c59 10 86 62 86 224c0 161 -27 213 -86 223v15c138 -10 212 -113 212 -238zM166 231c0 -162 27 -214 86 -224v-15c-137 10 -211 114 -211 239s74 228 211 238v-15c-59 -10 -86 -62 -86 -223zM238 704l173 -163h-29l-240 134z" />
    <glyph glyph-name="oacute" unicode="&#xf3;" horiz-adv-x="548" 
d="M510 231c0 -125 -74 -229 -212 -239v15c59 10 86 62 86 224c0 161 -27 213 -86 223v15c138 -10 212 -113 212 -238zM166 231c0 -162 27 -214 86 -224v-15c-137 10 -211 114 -211 239s74 228 211 238v-15c-59 -10 -86 -62 -86 -223zM136 541l173 163l96 -29l-240 -134h-29
z" />
    <glyph glyph-name="ocircumflex" unicode="&#xf4;" horiz-adv-x="548" 
d="M510 231c0 -125 -74 -229 -212 -239v15c59 10 86 62 86 224c0 161 -27 213 -86 223v15c138 -10 212 -113 212 -238zM166 231c0 -162 27 -214 86 -224v-15c-137 10 -211 114 -211 239s74 228 211 238v-15c-59 -10 -86 -62 -86 -223zM396 517l-118 89l-119 -89h-30l149 187
l149 -187h-31z" />
    <glyph glyph-name="otilde" unicode="&#xf5;" horiz-adv-x="548" 
d="M204 597c-33 12 -123 10 -149 -46l-12 4c65 163 187 122 187 122l117 -44c34 -12 125 -5 150 49l12 -6c-66 -163 -188 -122 -188 -122zM510 231c0 -125 -74 -229 -212 -239v15c59 10 86 62 86 224c0 161 -27 213 -86 223v15c138 -10 212 -113 212 -238zM166 231
c0 -162 27 -214 86 -224v-15c-137 10 -211 114 -211 239s74 228 211 238v-15c-59 -10 -86 -62 -86 -223z" />
    <glyph glyph-name="odieresis" unicode="&#xf6;" horiz-adv-x="548" 
d="M363 563c-30 0 -53 24 -53 53s23 53 53 53c29 0 53 -24 53 -53s-24 -53 -53 -53zM189 563c-29 0 -52 24 -52 53s23 53 52 53s53 -24 53 -53s-24 -53 -53 -53zM510 231c0 -125 -74 -229 -212 -239v15c59 10 86 62 86 224c0 161 -27 213 -86 223v15
c138 -10 212 -113 212 -238zM166 231c0 -162 27 -214 86 -224v-15c-137 10 -211 114 -211 239s74 228 211 238v-15c-59 -10 -86 -62 -86 -223z" />
    <glyph glyph-name="divide" unicode="&#xf7;" horiz-adv-x="625" 
d="M312 432c-33 0 -61 28 -61 61c0 34 28 62 61 62c35 0 62 -28 62 -62c0 -33 -27 -61 -62 -61zM581 237h-536v79h536v-79zM312 -1c-33 0 -61 27 -61 61s28 61 61 61c35 0 62 -27 62 -61s-27 -61 -62 -61z" />
    <glyph glyph-name="oslash" unicode="&#xf8;" horiz-adv-x="548" 
d="M510 230c0 -124 -74 -228 -212 -239v16c59 10 86 62 86 223c0 61 -8 107 -19 139l-177 -298c13 -42 33 -59 64 -64v-16c-37 3 -69 12 -96 26l-52 -85h-16l56 93c-68 42 -103 118 -103 205c0 125 74 229 211 239v-16c-59 -9 -86 -62 -86 -223c0 -63 5 -108 17 -140
l177 298c-12 42 -31 60 -62 65v16c36 -3 69 -12 96 -27l49 82h17l-54 -89c68 -42 104 -118 104 -205z" />
    <glyph glyph-name="ugrave" unicode="&#xf9;" horiz-adv-x="543" 
d="M472 88c0 -48 9 -53 51 -58v-15l-131 -23c-26 -4 -27 17 -27 17v353c0 61 3 71 -47 76v15l154 18v-383zM327 71l11 -17c-33 -36 -86 -63 -132 -63c-76 0 -134 30 -134 152v220c0 62 1 69 -56 75v15l161 18v-325c0 -65 35 -93 93 -93c20 0 40 4 57 18zM238 704l173 -163
h-29l-240 134z" />
    <glyph glyph-name="uacute" unicode="&#xfa;" horiz-adv-x="543" 
d="M472 88c0 -48 9 -53 51 -58v-15l-131 -23c-26 -4 -27 17 -27 17v353c0 61 3 71 -47 76v15l154 18v-383zM327 71l11 -17c-33 -36 -86 -63 -132 -63c-76 0 -134 30 -134 152v220c0 62 1 69 -56 75v15l161 18v-325c0 -65 35 -93 93 -93c20 0 40 4 57 18zM149 541l173 163
l96 -29l-240 -134h-29z" />
    <glyph glyph-name="ucircumflex" unicode="&#xfb;" horiz-adv-x="543" 
d="M472 88c0 -48 9 -53 51 -58v-15l-131 -23c-26 -4 -27 17 -27 17v353c0 61 3 71 -47 76v15l154 18v-383zM327 71l11 -17c-33 -36 -86 -63 -132 -63c-76 0 -134 30 -134 152v220c0 62 1 69 -56 75v15l161 18v-325c0 -65 35 -93 93 -93c20 0 40 4 57 18zM389 517l-118 89
l-119 -89h-30l149 187l149 -187h-31z" />
    <glyph glyph-name="udieresis" unicode="&#xfc;" horiz-adv-x="543" 
d="M353 563c-30 0 -53 24 -53 53s23 53 53 53c29 0 52 -24 52 -53s-23 -53 -52 -53zM179 563c-30 0 -53 24 -53 53s23 53 53 53c29 0 53 -24 53 -53s-24 -53 -53 -53zM472 88c0 -48 9 -53 51 -58v-15l-131 -23c-26 -4 -27 17 -27 17v353c0 61 3 71 -47 76v15l154 18v-383z
M327 71l11 -17c-33 -36 -86 -63 -132 -63c-76 0 -134 30 -134 152v220c0 62 1 69 -56 75v15l161 18v-325c0 -65 35 -93 93 -93c20 0 40 4 57 18z" />
    <glyph glyph-name="yacute" unicode="&#xfd;" horiz-adv-x="536" 
d="M326 462h195v-14c-28 0 -68 -5 -129 -158l-11 11c11 31 46 148 -55 147v14zM327 116l-47 -125h-15c-44 96 -189 412 -189 412c-18 42 -51 44 -66 45v14h221v-14c-58 0 -28 -67 -28 -67zM222 -121l15 -1c-23 -63 -51 -88 -68 -102c-16 -13 -47 -18 -68 -8
c-31 14 -44 50 -31 81c14 31 50 45 81 31c16 -7 26 -22 30 -37c4 -13 27 -4 41 36zM133 541l173 163l96 -29l-240 -134h-29z" />
    <glyph glyph-name="thorn" unicode="&#xfe;" horiz-adv-x="579" 
d="M534 227c0 -149 -92 -227 -218 -235v16c58 12 94 71 94 208c0 159 -45 222 -129 222c-64 0 -103 -48 -109 -113v-185c7 -84 49 -123 98 -132v-15c-38 3 -72 15 -98 33v-189c0 -56 6 -78 41 -87v-15h-186v15c38 11 40 36 40 87v790c0 35 -10 44 -50 55v15l155 34v-339
c31 56 101 79 150 79c124 0 212 -96 212 -244z" />
    <glyph glyph-name="ydieresis" unicode="&#xff;" horiz-adv-x="536" 
d="M354 563c-29 0 -52 24 -52 53s23 53 52 53s53 -24 53 -53s-24 -53 -53 -53zM180 563c-29 0 -52 24 -52 53s23 53 52 53c30 0 53 -24 53 -53s-23 -53 -53 -53zM326 462h195v-14c-28 0 -68 -5 -129 -158l-11 11c11 31 46 148 -55 147v14zM327 116l-47 -125h-15
c-44 96 -189 412 -189 412c-18 42 -51 44 -66 45v14h221v-14c-58 0 -28 -67 -28 -67zM222 -121l15 -1c-23 -63 -51 -88 -68 -102c-16 -13 -47 -18 -68 -8c-31 14 -44 50 -31 81c14 31 50 45 81 31c16 -7 26 -22 30 -37c4 -13 27 -4 41 36z" />
    <glyph glyph-name="Abreve" unicode="&#x102;" horiz-adv-x="698" 
d="M600 92c34 -80 56 -75 83 -77v-15h-257v15c66 0 35 82 23 110l-32 80h-248c-14 -40 -66 -196 82 -190v-15h-234v15c30 1 55 0 137 205h258l-133 332l57 152h14c184 -441 250 -612 250 -612zM462 910h13c0 -76 -35 -144 -130 -144c-97 0 -134 68 -134 144h14
c0 -37 22 -78 120 -78c94 0 117 41 117 78z" />
    <glyph glyph-name="abreve" unicode="&#x103;" 
d="M156 311c-23 -16 -55 -11 -72 12c-11 17 -12 39 -4 55c8 13 20 36 59 61l7 -14c-15 -12 -16 -21 -11 -22c13 -2 25 -8 33 -20c17 -23 11 -55 -12 -72zM452 45c0 0 23 0 29 21l15 -6c-8 -31 -47 -69 -105 -69c0 0 -93 -2 -93 89v162c-107 -25 -149 -70 -149 -126
c0 -15 9 -72 72 -72c15 0 28 3 38 9c1 -2 10 -16 11 -17c-27 -24 -68 -45 -115 -45c0 0 -114 -1 -114 102c0 105 84 121 257 165v60c0 94 -46 148 -111 129l-6 13c37 13 72 11 72 11c120 0 153 -82 153 -200v-160s-1 -66 46 -66zM380 704h13c0 -76 -35 -144 -130 -144
c-97 0 -134 68 -134 144h14c0 -37 22 -78 120 -78c94 0 117 41 117 78z" />
    <glyph glyph-name="Aogonek" unicode="&#x104;" horiz-adv-x="698" 
d="M614 0c-51 -30 -79 -75 -70 -110c11 -46 62 -38 62 -38c22 2 36 22 36 42h14c0 -36 -8 -72 -63 -79c-86 -12 -103 45 -103 45c-19 66 21 110 85 140h-149v15c66 0 35 82 23 110l-32 80h-248c-14 -40 -66 -196 82 -190v-15h-234v15c30 1 55 0 137 205h258l-133 332l57 152
h14c184 -441 250 -612 250 -612c34 -80 56 -75 83 -77v-15h-69z" />
    <glyph glyph-name="aogonek" unicode="&#x105;" 
d="M156 311c-23 -16 -55 -11 -72 12c-11 17 -12 39 -4 55c8 13 20 36 59 61l7 -14c-15 -12 -16 -21 -11 -22c13 -2 25 -8 33 -20c17 -23 11 -55 -12 -72zM412 -7c-44 -30 -66 -70 -57 -102c11 -46 62 -38 62 -38c22 2 36 22 36 42h14c0 -36 -8 -72 -63 -79
c-86 -12 -103 45 -103 45c-18 60 14 102 69 132c-27 6 -72 24 -72 87v162c-107 -25 -149 -70 -149 -126c0 -15 9 -72 72 -72c15 0 28 3 38 9l11 -17c-27 -24 -68 -45 -115 -45c0 0 -114 -1 -114 102c0 105 84 121 257 165v60c0 94 -46 148 -111 129l-6 13c32 11 72 11 72 11
c120 0 153 -82 153 -200v-160s-1 -66 46 -66c0 0 23 0 29 21l15 -6c-7 -27 -38 -59 -84 -67z" />
    <glyph glyph-name="Cacute" unicode="&#x106;" horiz-adv-x="681" 
d="M423 8c93 13 169 89 187 201h15l12 -156c-65 -43 -127 -58 -214 -61v16zM610 496c-38 129 -101 190 -187 200v16c86 -2 159 -15 214 -60l-12 -156h-15zM41 352c0 200 121 344 312 359v-15c-93 -13 -158 -88 -158 -344c0 -257 67 -331 158 -344v-15
c-191 15 -312 161 -312 359zM224 735l173 163l96 -29l-240 -134h-29z" />
    <glyph glyph-name="cacute" unicode="&#x107;" horiz-adv-x="491" 
d="M366 430c7 2 -9 19 -46 24v15c68 -6 99 -37 110 -51c13 -14 19 -38 11 -58c-12 -28 -44 -44 -73 -32c-29 11 -44 44 -32 72c6 15 17 25 30 30zM444 128l12 -7c-12 -50 -68 -130 -192 -130c-121 0 -219 108 -219 240c0 113 81 227 229 238v-16c-46 -11 -119 -57 -119 -207
c0 -121 67 -173 137 -183c61 -9 132 28 152 65zM130 541l173 163l96 -29l-240 -134h-29z" />
    <glyph glyph-name="Ccaron" unicode="&#x10c;" horiz-adv-x="681" 
d="M423 8c93 13 169 89 187 201h15l12 -156c-65 -43 -127 -58 -214 -61v16zM610 496c-38 129 -101 190 -187 200v16c86 -2 159 -15 214 -60l-12 -156h-15zM41 352c0 200 121 344 312 359v-15c-93 -13 -158 -88 -158 -344c0 -257 67 -331 158 -344v-15
c-191 15 -312 161 -312 359zM365 833l118 89h31l-149 -187l-149 187h30z" />
    <glyph glyph-name="ccaron" unicode="&#x10d;" horiz-adv-x="491" 
d="M366 430c7 2 -9 19 -46 24v15c68 -6 99 -37 110 -51c13 -14 19 -38 11 -58c-12 -28 -44 -44 -73 -32c-29 11 -44 44 -32 72c6 15 17 25 30 30zM444 128l12 -7c-12 -50 -68 -130 -192 -130c-121 0 -219 108 -219 240c0 113 81 227 229 238v-16c-46 -11 -119 -57 -119 -207
c0 -121 67 -173 137 -183c61 -9 132 28 152 65zM265 615l118 89h31l-149 -187l-149 187h30z" />
    <glyph glyph-name="Dcaron" unicode="&#x10e;" horiz-adv-x="768" 
d="M307 703c190 -5 382 -73 382 -353c0 -284 -192 -345 -382 -350v15c102 4 234 39 234 335c0 292 -132 334 -234 338v15zM42 704h195v-704h-195v15c42 0 71 46 71 113v448c0 61 -28 113 -71 113v15zM299 833l118 89h31l-149 -187l-149 187h30z" />
    <glyph glyph-name="dcaron" unicode="&#x10f;" horiz-adv-x="695" 
d="M501 87c0 -49 10 -58 51 -60v-15l-129 -20c-28 -5 -28 18 -28 18v58c-31 -55 -101 -77 -150 -77c-123 0 -211 97 -211 246c0 150 92 225 218 233v-17c-58 -11 -95 -67 -95 -204c0 -160 41 -226 125 -226c67 0 113 49 113 119v158c0 97 -46 143 -97 153v16
c38 -4 71 -15 97 -32v200c0 35 -10 46 -51 58v15l157 32v-655zM656 704h-84c0 -149 -46 -187 -46 -187l10 -13s120 69 120 200z" />
    <glyph glyph-name="Dcroat" unicode="&#x110;" horiz-adv-x="739" 
d="M233 342v-342h-196v15c43 0 71 45 71 113v214h-82v19h82v215c0 62 -27 113 -71 113v15h196v-343h144v-19h-144zM685 350c0 -284 -192 -345 -382 -350v15c101 4 234 39 234 335c0 292 -132 334 -234 339v14c190 -5 382 -73 382 -353z" />
    <glyph glyph-name="dcroat" unicode="&#x111;" horiz-adv-x="600" 
d="M286 564v18h109v55c0 35 -10 46 -51 58v15l157 32v-160h100v-18h-100v-477c0 -49 10 -58 51 -60v-15l-129 -20c-28 -5 -28 18 -28 18v58c-31 -55 -101 -77 -150 -77c-123 0 -211 97 -211 246c0 150 92 225 218 233v-17c-58 -11 -95 -67 -95 -204c0 -160 41 -226 125 -226
c67 0 113 49 113 119v158c0 97 -46 143 -97 153v16c38 -4 71 -15 97 -32v127h-109z" />
    <glyph glyph-name="Eogonek" unicode="&#x118;" horiz-adv-x="653" 
d="M534 519c-13 143 -166 165 -254 169v16h269v-185h-15zM410 246c-10 83 -83 97 -130 100v19c47 3 120 18 130 101h15v-220h-15zM556 -108h14c0 -36 -8 -72 -63 -79c-86 -12 -103 45 -103 45c-19 67 22 111 89 142h-213v16c89 5 242 30 267 197h15v-213h-31
c-54 -30 -82 -76 -73 -112c11 -46 62 -38 62 -38c22 2 36 22 36 42zM30 689v15h179v-704h-179v15c42 0 55 44 55 112v455c0 62 -11 107 -55 107z" />
    <glyph glyph-name="eogonek" unicode="&#x119;" 
d="M282 59c57 -9 132 20 154 68l14 -7c-11 -46 -61 -115 -166 -127c-47 -30 -69 -73 -61 -105c11 -46 62 -38 62 -38c22 2 36 22 36 42h14c0 -36 -8 -72 -63 -79c-86 -12 -103 45 -103 45c-18 61 16 104 72 134c-121 8 -204 115 -204 236c0 134 82 229 200 241v-15
c-50 -18 -89 -103 -89 -199h215c0 113 -36 182 -80 199v15c119 -8 184 -82 184 -229h-319c6 -117 61 -169 134 -181z" />
    <glyph glyph-name="Ecaron" unicode="&#x11a;" horiz-adv-x="653" 
d="M562 213v-213h-282v16c89 5 242 30 267 197h15zM209 704v-704h-179v15c42 0 55 44 55 112v455c0 62 -11 107 -55 107v15h179zM534 519c-13 143 -166 165 -254 169v16h269v-185h-15zM410 246c-10 83 -83 97 -130 100v19c47 3 120 18 130 101h15v-220h-15zM311 833l118 89
h31l-149 -187l-149 187h30z" />
    <glyph glyph-name="ecaron" unicode="&#x11b;" 
d="M282 59c57 -9 132 20 154 68l14 -7c-13 -50 -70 -129 -196 -129c-128 0 -217 112 -217 237c0 134 82 229 200 241v-15c-50 -18 -89 -103 -89 -199h215c0 113 -36 182 -80 199v15c119 -8 184 -82 184 -229h-319c6 -117 61 -169 134 -181zM258 615l118 89h31l-149 -187
l-149 187h30z" />
    <glyph glyph-name="dotlessi" unicode="&#x131;" horiz-adv-x="263" 
d="M225 15v-15h-186v15c38 12 40 41 40 92v250c0 34 -10 48 -51 65v15l156 34v-364c0 -55 5 -82 41 -92z" />
    <glyph glyph-name="Lacute" unicode="&#x139;" horiz-adv-x="640" 
d="M578 217v-217h-277v16c93 5 242 33 262 201h15zM231 600v-600h-186v15c43 0 63 41 63 109v478c0 61 -28 87 -71 87v15h277v-15c-43 0 -83 -17 -83 -89zM152 735l173 163l96 -29l-240 -134h-29z" />
    <glyph glyph-name="lacute" unicode="&#x13a;" horiz-adv-x="265" 
d="M220 15v-15h-187v15c38 11 40 41 40 92v527c0 35 -9 50 -50 61v15l156 32v-635c0 -55 5 -83 41 -92zM-16 764l173 163l96 -29l-240 -134h-29z" />
    <glyph glyph-name="Lcaron" unicode="&#x13d;" horiz-adv-x="637" 
d="M349 704h84c0 -131 -119 -200 -119 -200l-11 13s46 38 46 187zM578 217v-217h-277v16c93 5 242 33 262 201h15zM231 600v-600h-186v15c43 0 63 41 63 109v478c0 61 -28 87 -71 87v15h277v-15c-43 0 -83 -17 -83 -89z" />
    <glyph glyph-name="lcaron" unicode="&#x13e;" horiz-adv-x="392" 
d="M220 15v-15h-187v15c38 11 40 41 40 92v527c0 35 -9 50 -50 61v15l156 32v-635c0 -55 5 -83 41 -92zM252 704h84c0 -131 -119 -200 -119 -200l-11 13s46 38 46 187z" />
    <glyph glyph-name="Lslash" unicode="&#x141;" horiz-adv-x="646" 
d="M602 217v-217h-277v15c230 10 262 155 262 202h15zM255 354v-354h-187v15c42 0 63 47 63 115v154l-121 -68v19l121 68v299c0 62 -28 87 -71 87v15h278v-15c-44 0 -83 -16 -83 -89v-227l199 112v-19z" />
    <glyph glyph-name="lslash" unicode="&#x142;" horiz-adv-x="312" 
d="M12 266v19l90 56v295c0 35 -10 49 -50 61v14l156 35v-337l87 55v-19l-87 -55v-283c0 -55 5 -83 40 -92v-15h-186v15c38 11 40 41 40 92v215z" />
    <glyph glyph-name="Nacute" unicode="&#x143;" horiz-adv-x="840" 
d="M184 252c0 -44 -1 -237 134 -237v-15h-297v15c148 0 148 192 148 237h15zM10 704h215l432 -546v-158h-42l-486 616c-64 80 -93 71 -119 73v15zM508 689v15h295v-15c-148 1 -146 -190 -146 -237h-15c0 47 1 238 -134 237zM273 735l173 163l96 -29l-240 -134h-29z" />
    <glyph glyph-name="nacute" unicode="&#x144;" horiz-adv-x="519" 
d="M166 106c0 -55 6 -82 41 -91v-15h-187v15c38 11 40 40 40 91v252c0 35 -9 47 -50 64v14l156 35v-365zM457 107c0 -55 5 -84 41 -93v-14h-187v14c38 11 40 42 40 93v205c0 58 -34 98 -92 98c-17 0 -33 -7 -47 -17l-12 18c33 34 81 60 125 60c80 0 132 -35 132 -156v-208z
M144 541l173 163l96 -29l-240 -134h-29z" />
    <glyph glyph-name="Ncaron" unicode="&#x147;" horiz-adv-x="840" 
d="M184 252c0 -44 -1 -237 134 -237v-15h-297v15c148 0 148 192 148 237h15zM10 704h215l432 -546v-158h-42l-486 616c-64 80 -93 71 -119 73v15zM508 689v15h295v-15c-148 1 -146 -190 -146 -237h-15c0 47 1 238 -134 237zM404 833l118 89h31l-149 -187l-149 187h30z" />
    <glyph glyph-name="ncaron" unicode="&#x148;" horiz-adv-x="519" 
d="M166 106c0 -55 6 -82 41 -91v-15h-187v15c38 11 40 40 40 91v252c0 35 -9 47 -50 64v14l156 35v-365zM457 107c0 -55 5 -84 41 -93v-14h-187v14c38 11 40 42 40 93v205c0 58 -34 98 -92 98c-17 0 -33 -7 -47 -17l-12 18c33 34 81 60 125 60c80 0 132 -35 132 -156v-208z
M262 615l118 89h31l-149 -187l-149 187h30z" />
    <glyph glyph-name="Ohungarumlaut" unicode="&#x150;" horiz-adv-x="775" 
d="M184 347c0 -246 58 -325 157 -339v-15c-196 16 -300 166 -300 354c0 187 104 347 300 364v-16c-99 -15 -157 -102 -157 -348zM711 347c0 -188 -103 -339 -300 -354v15c98 14 155 92 155 339s-57 333 -155 348v16c197 -17 300 -177 300 -364zM380 735l170 164l99 -30
l-240 -134h-29zM205 735l170 164l99 -30l-240 -134h-29z" />
    <glyph glyph-name="ohungarumlaut" unicode="&#x151;" horiz-adv-x="548" 
d="M510 231c0 -125 -74 -229 -212 -239v15c59 10 86 62 86 224c0 161 -27 213 -86 223v15c138 -10 212 -113 212 -238zM166 231c0 -162 27 -214 86 -224v-15c-137 10 -211 114 -211 239s74 228 211 238v-15c-59 -10 -86 -62 -86 -223zM275 541l170 164l99 -30l-240 -134h-29
zM100 541l170 164l99 -30l-240 -134h-29z" />
    <glyph glyph-name="OE" unicode="&#x152;" horiz-adv-x="966" 
d="M185 346c0 -247 42 -325 138 -338v-16c-195 16 -280 166 -280 354s85 348 280 364v-15c-96 -16 -138 -103 -138 -349zM654 16c81 5 211 32 233 197h15v-213h-248v16zM750 245c-5 77 -59 97 -96 102v16c38 5 91 25 96 102h15v-220h-15zM874 519c-20 141 -142 165 -220 169
v16h235v-185h-15zM585 704v-704h-155c-14 -3 -25 -5 -36 -7v15c36 6 67 28 67 110v463c0 86 -31 108 -67 114v15c10 -2 20 -4 33 -6h158z" />
    <glyph glyph-name="oe" unicode="&#x153;" horiz-adv-x="784" 
d="M40 229c0 125 57 230 191 241v-16c-50 -12 -66 -66 -66 -225c0 -158 16 -210 66 -221v-16c-134 11 -191 114 -191 237zM578 61c58 -9 115 31 136 67l16 -8c-14 -48 -50 -129 -171 -129c-64 0 -110 30 -148 76c-33 -43 -72 -70 -134 -75v16c50 10 66 62 66 221
s-17 214 -66 225v16c63 -6 106 -37 135 -79c35 43 75 72 122 79v-16c-47 -19 -72 -105 -72 -203h184c0 117 -26 186 -65 203v16c110 -9 162 -85 162 -234h-281c3 -113 42 -164 116 -175z" />
    <glyph glyph-name="Racute" unicode="&#x154;" horiz-adv-x="687" 
d="M567 108c20 -76 86 -91 112 -93v-15h-84c-153 1 -132 1 -196 218c-23 78 -82 97 -117 102v17c86 3 148 22 148 176c0 155 -64 173 -148 176v14c175 -3 285 -34 285 -190c0 -129 -77 -172 -190 -182c65 2 142 -23 190 -223zM212 704v-591c0 -69 27 -98 69 -98v-15h-257v15
c43 0 67 28 67 104v487c0 62 -23 83 -67 83v15h188zM171 735l173 163l96 -29l-240 -134h-29z" />
    <glyph glyph-name="racute" unicode="&#x155;" horiz-adv-x="425" 
d="M171 471v-364c0 -55 5 -82 41 -92v-15h-188v15c38 12 40 41 40 92v250c0 34 -9 49 -50 65v15zM297 467c19 5 51 1 69 -16c25 -25 25 -66 0 -91s-65 -26 -92 -1c-12 13 -18 28 -17 44c2 9 -23 7 -50 -17l-9 13c39 49 75 61 99 68zM72 541l173 163l96 -29l-240 -134h-29z
" />
    <glyph glyph-name="Rcaron" unicode="&#x158;" horiz-adv-x="687" 
d="M567 108c20 -76 86 -91 112 -93v-15h-84c-153 1 -132 1 -196 218c-23 78 -82 97 -117 102v17c86 3 148 22 148 176c0 155 -64 173 -148 176v14c175 -3 285 -34 285 -190c0 -129 -77 -172 -190 -182c65 2 142 -23 190 -223zM212 704v-591c0 -69 27 -98 69 -98v-15h-257v15
c43 0 67 28 67 104v487c0 62 -23 83 -67 83v15h188zM282 833l118 89h31l-149 -187l-149 187h30z" />
    <glyph glyph-name="rcaron" unicode="&#x159;" horiz-adv-x="397" 
d="M171 471v-364c0 -55 5 -82 41 -92v-15h-188v15c38 12 40 41 40 92v250c0 34 -9 49 -50 65v15zM297 467c19 5 51 1 69 -16c25 -25 25 -66 0 -91s-65 -26 -92 -1c-12 13 -18 28 -17 44c2 9 -23 7 -50 -17l-9 13c39 49 75 61 99 68zM183 616l118 89h31l-149 -187l-149 187
h30z" />
    <glyph glyph-name="Sacute" unicode="&#x15a;" horiz-adv-x="586" 
d="M60 242c16 -84 62 -216 206 -234v-16c-154 7 -221 58 -221 58v192h15zM396 365c133 -87 172 -197 108 -292c0 0 -38 -70 -168 -81v15c99 26 110 164 2 242l-160 102c-118 76 -191 171 -111 285c0 0 41 64 163 75v-15c-85 -26 -117 -145 7 -225zM493 497
c-14 70 -58 183 -193 199v16c136 -7 208 -47 208 -47v-168h-15zM142 735l173 163l96 -29l-240 -134h-29z" />
    <glyph glyph-name="sacute" unicode="&#x15b;" horiz-adv-x="435" 
d="M362 440v-117h-14c-9 43 -36 119 -126 131v16c98 -4 140 -30 140 -30zM289 252c89 -55 119 -140 70 -210c0 0 -31 -42 -111 -50v17c65 16 58 100 -11 145l-101 61c-96 61 -120 132 -73 202c0 0 30 45 113 52v-16c-60 -15 -66 -89 12 -138zM47 33v131h15
c11 -48 36 -144 140 -156v-16c-105 5 -155 41 -155 41zM99 541l173 163l96 -29l-240 -134h-29z" />
    <glyph glyph-name="Scedilla" unicode="&#x15e;" horiz-adv-x="586" 
d="M60 242c16 -84 62 -216 206 -234v-16c-154 7 -221 58 -221 58v192h15zM396 365c133 -87 172 -197 108 -292c0 0 -38 -70 -168 -81v15c99 26 110 164 2 242l-160 102c-118 76 -191 171 -111 285c0 0 41 64 163 75v-15c-85 -26 -117 -145 7 -225zM493 497
c-14 70 -58 183 -193 199v16c136 -7 208 -47 208 -47v-168h-15zM257 -68c104 32 149 -29 142 -80c-8 -69 -70 -84 -103 -83c-39 0 -62 16 -69 22c-6 6 -10 18 -8 28c5 15 20 23 35 19c15 -5 23 -19 19 -34c-1 -7 -5 -10 -9 -12c-2 -2 3 -10 32 -9c33 0 55 22 54 56
c0 22 -21 84 -101 69z" />
    <glyph glyph-name="scedilla" unicode="&#x15f;" horiz-adv-x="435" 
d="M362 440v-117h-14c-9 43 -36 119 -126 131v16c98 -4 140 -30 140 -30zM289 252c89 -55 119 -140 70 -210c0 0 -31 -42 -111 -50v17c65 16 58 100 -11 145l-101 61c-96 61 -120 132 -73 202c0 0 30 45 113 52v-16c-60 -15 -66 -89 12 -138zM47 33v131h15
c11 -48 36 -144 140 -156v-16c-105 5 -155 41 -155 41zM175 -68c104 32 149 -29 142 -80c-8 -69 -70 -84 -103 -83c-39 0 -62 16 -69 22c-6 6 -10 18 -8 28c5 15 20 23 35 19c15 -5 23 -19 19 -34c-1 -7 -5 -10 -9 -12c-2 -2 3 -10 32 -9c33 0 55 22 54 56
c0 22 -21 84 -101 69z" />
    <glyph glyph-name="Scaron" unicode="&#x160;" horiz-adv-x="586" 
d="M60 242c16 -84 62 -216 206 -234v-16c-154 7 -221 58 -221 58v192h15zM396 365c133 -87 172 -197 108 -292c0 0 -38 -70 -168 -81v15c99 26 110 164 2 242l-160 102c-118 76 -191 171 -111 285c0 0 41 64 163 75v-15c-85 -26 -117 -145 7 -225zM493 497
c-14 70 -58 183 -193 199v16c136 -7 208 -47 208 -47v-168h-15zM278 833l118 89h31l-149 -187l-149 187h30z" />
    <glyph glyph-name="scaron" unicode="&#x161;" horiz-adv-x="435" 
d="M205 593l118 89h31l-149 -187l-149 187h30zM362 440v-117h-14c-9 43 -36 119 -126 131v16c98 -4 140 -30 140 -30zM289 252c89 -55 119 -140 70 -210c0 0 -31 -42 -111 -50v17c65 16 58 100 -11 145l-101 61c-96 61 -120 132 -73 202c0 0 30 45 113 52v-16
c-60 -15 -66 -89 12 -138zM47 33v131h15c11 -48 36 -144 140 -156v-16c-105 5 -155 41 -155 41z" />
    <glyph glyph-name="uni0162" unicode="&#x162;" horiz-adv-x="676" 
d="M19 704h635v-189h-15c-6 171 -196 174 -203 174h-39v-580c0 -67 37 -94 79 -94v-15h-280v15c42 0 79 27 79 94v580h-39c-15 0 -196 -3 -202 -174h-15v189zM313 -63c104 32 149 -29 142 -80c-8 -69 -70 -84 -103 -83c-39 0 -62 16 -69 22c-6 6 -10 18 -8 28
c5 15 20 23 35 19c15 -5 23 -19 19 -34c-1 -7 -5 -10 -9 -12c-2 -2 3 -10 32 -9c33 0 55 22 54 56c0 22 -21 84 -101 69z" />
    <glyph glyph-name="uni0163" unicode="&#x163;" horiz-adv-x="335" 
d="M311 90l13 -8c-17 -45 -70 -91 -133 -91c-75 0 -121 32 -121 153v303h-50l-3 15h53v138l106 17v-155h119l-4 -15h-115v-300c0 -68 26 -96 75 -96c29 0 52 21 60 39zM133 -63c104 32 149 -29 142 -80c-8 -69 -70 -84 -103 -83c-39 0 -62 16 -69 22c-6 6 -10 18 -8 28
c5 15 20 23 35 19c15 -5 23 -19 19 -34c-1 -7 -5 -10 -9 -12c-2 -2 3 -10 32 -9c33 0 55 22 54 56c0 22 -21 84 -101 69z" />
    <glyph glyph-name="Tcaron" unicode="&#x164;" horiz-adv-x="676" 
d="M19 704h635v-189h-15c-6 171 -196 174 -203 174h-39v-580c0 -67 37 -94 79 -94v-15h-280v15c42 0 79 27 79 94v580h-39c-15 0 -196 -3 -202 -174h-15v189zM338 833l118 89h31l-149 -187l-149 187h30z" />
    <glyph glyph-name="tcaron" unicode="&#x165;" horiz-adv-x="357" 
d="M311 90l13 -8c-17 -45 -70 -91 -133 -91c-75 0 -121 32 -121 153v303h-50l-3 15h53v138l106 17v-155h119l-4 -15h-115v-300c0 -68 26 -96 75 -96c29 0 52 21 60 39zM248 704h84c0 -131 -120 -200 -120 -200l-11 13s47 38 47 187z" />
    <glyph glyph-name="Uring" unicode="&#x16e;" horiz-adv-x="752" 
d="M389 43c89 0 173 67 173 195h15c0 -197 -139 -247 -245 -247c-133 0 -240 89 -240 252v358c0 65 -31 88 -75 88v15h283v-15c-43 0 -86 -13 -86 -88v-366c0 -121 73 -192 175 -192zM435 689v15h280v-15c-141 0 -138 -120 -138 -167h-15c0 47 0 167 -127 167zM298 880
c0 -32 26 -58 58 -58c33 0 58 26 58 58c0 33 -25 59 -58 59c-32 0 -58 -26 -58 -59zM261 880c0 53 43 95 95 95s95 -42 95 -95c0 -51 -43 -94 -95 -94s-95 43 -95 94z" />
    <glyph glyph-name="uring" unicode="&#x16f;" horiz-adv-x="543" 
d="M472 88c0 -48 9 -53 51 -58v-15l-131 -23c-26 -4 -27 17 -27 17v353c0 61 3 71 -47 76v15l154 18v-383zM327 71l11 -17c-33 -36 -86 -63 -132 -63c-76 0 -134 30 -134 152v220c0 62 1 69 -56 75v15l161 18v-325c0 -65 35 -93 93 -93c20 0 40 4 57 18zM208 615
c0 -32 26 -58 58 -58c33 0 58 26 58 58c0 33 -25 59 -58 59c-32 0 -58 -26 -58 -59zM171 615c0 53 43 95 95 95s95 -42 95 -95c0 -51 -43 -94 -95 -94s-95 43 -95 94z" />
    <glyph glyph-name="Uhungarumlaut" unicode="&#x170;" horiz-adv-x="752" 
d="M389 43c89 0 173 67 173 195h15c0 -197 -139 -247 -245 -247c-133 0 -240 89 -240 252v358c0 65 -31 88 -75 88v15h283v-15c-43 0 -86 -13 -86 -88v-366c0 -121 73 -192 175 -192zM435 689v15h280v-15c-141 0 -138 -120 -138 -167h-15c0 47 0 167 -127 167zM383 735
l170 164l99 -30l-240 -134h-29zM208 735l170 164l99 -30l-240 -134h-29z" />
    <glyph glyph-name="uhungarumlaut" unicode="&#x171;" horiz-adv-x="543" 
d="M472 88c0 -48 9 -53 51 -58v-15l-131 -23c-26 -4 -27 17 -27 17v353c0 61 3 71 -47 76v15l154 18v-383zM327 71l11 -17c-33 -36 -86 -63 -132 -63c-76 0 -134 30 -134 152v220c0 62 1 69 -56 75v15l161 18v-325c0 -65 35 -93 93 -93c20 0 40 4 57 18zM265 541l170 164
l99 -30l-240 -134h-29zM90 541l170 164l99 -30l-240 -134h-29z" />
    <glyph glyph-name="Ydieresis" unicode="&#x178;" horiz-adv-x="732" 
d="M401 830c0 29 24 53 52 53c30 0 54 -24 54 -53s-24 -52 -54 -52c-28 0 -52 23 -52 52zM227 830c0 29 24 53 53 53s52 -24 52 -53s-23 -52 -52 -52s-53 23 -53 52zM426 117c0 -75 39 -102 81 -102v-15h-280v15c42 0 80 27 80 102v165c-147 260 -192 329 -192 329
c-44 77 -77 78 -105 79v14h287v-14c-24 0 -91 1 -23 -114l152 -252v-207zM440 689v15h279v-15c-35 0 -109 0 -221 -219l-10 13c17 35 92 206 -48 206z" />
    <glyph glyph-name="Zacute" unicode="&#x179;" horiz-adv-x="581" 
d="M67 704h297l-10 -15c-150 0 -255 -68 -287 -187h-18zM251 15c160 1 253 125 276 218h17l-24 -233h-277zM555 704l-371 -704h-159l396 704h134zM168 735l173 163l96 -29l-240 -134h-29z" />
    <glyph glyph-name="zacute" unicode="&#x17a;" horiz-adv-x="448" 
d="M57 462h194l-9 -16c-104 -8 -157 -46 -174 -116h-16zM410 462l-253 -462h-127l267 462h113zM212 17c114 13 154 78 166 135h16l-9 -152h-182zM117 541l173 163l96 -29l-240 -134h-29z" />
    <glyph glyph-name="Zdotaccent" unicode="&#x17b;" horiz-adv-x="581" 
d="M67 704h297l-10 -15c-150 0 -255 -68 -287 -187h-18zM251 15c160 1 253 125 276 218h17l-24 -233h-277zM555 704l-371 -704h-159l396 704h134zM315 790c-31 0 -57 25 -57 56s26 56 57 56s56 -25 56 -56s-25 -56 -56 -56z" />
    <glyph glyph-name="zdotaccent" unicode="&#x17c;" horiz-adv-x="448" 
d="M57 462h194l-9 -16c-104 -8 -157 -46 -174 -116h-16zM410 462l-253 -462h-127l267 462h113zM212 17c114 13 154 78 166 135h16l-9 -152h-182zM231 570c-31 0 -57 25 -57 56s26 56 57 56s56 -25 56 -56s-25 -56 -56 -56z" />
    <glyph glyph-name="Zcaron" unicode="&#x17d;" horiz-adv-x="581" 
d="M67 704h297l-10 -15c-150 0 -255 -68 -287 -187h-18zM251 15c160 1 253 125 276 218h17l-24 -233h-277zM555 704l-371 -704h-159l396 704h134zM313 833l118 89h31l-149 -187l-149 187h30z" />
    <glyph glyph-name="zcaron" unicode="&#x17e;" horiz-adv-x="448" 
d="M233 593l118 89h31l-149 -187l-149 187h30zM57 462h194l-9 -16c-104 -8 -157 -46 -174 -116h-16zM410 462l-253 -462h-127l267 462h113zM212 17c114 13 154 78 166 135h16l-9 -152h-182z" />
    <glyph glyph-name="florin" unicode="&#x192;" horiz-adv-x="660" 
d="M287 383c22 181 88 332 205 349v-15c-48 -36 -74 -190 -74 -190l-19 -144h116l-6 -16h-112l-37 -269c-30 -229 -82 -327 -201 -336v15c48 37 74 195 74 195l53 395h-76l2 16h75zM96 -204c-6 -2 -8 -13 17 -18v-15c-45 6 -71 32 -79 46c-10 16 -13 41 -4 60
c14 27 46 38 72 25s37 -45 24 -72c-6 -13 -18 -22 -30 -26zM615 686c10 -16 13 -42 4 -61c-13 -27 -46 -37 -71 -24c-27 13 -38 45 -25 72c6 13 17 22 30 26c5 1 6 13 -14 18v15c40 -8 68 -32 76 -46z" />
    <glyph glyph-name="circumflex" unicode="&#x2c6;" horiz-adv-x="298" 
d="M149 621l-119 -90h-30l149 188l149 -188h-30z" />
    <glyph glyph-name="caron" unicode="&#x2c7;" horiz-adv-x="300" 
d="M149 631l118 89h31l-149 -187l-149 187h30z" />
    <glyph glyph-name="uni02C9" unicode="&#x2c9;" horiz-adv-x="305" 
d="M330 588h-355v66h355v-66z" />
    <glyph glyph-name="breve" unicode="&#x2d8;" horiz-adv-x="262" 
d="M250 704h13c0 -76 -35 -144 -130 -144c-97 0 -134 68 -134 144h14c0 -37 22 -78 120 -78c94 0 117 41 117 78z" />
    <glyph glyph-name="dotaccent" unicode="&#x2d9;" horiz-adv-x="270" 
d="M137 589c-31 0 -57 25 -57 56s26 56 57 56s56 -25 56 -56s-25 -56 -56 -56z" />
    <glyph glyph-name="ring" unicode="&#x2da;" horiz-adv-x="276" 
d="M82 637c0 -32 26 -58 58 -58c33 0 58 26 58 58c0 33 -25 59 -58 59c-32 0 -58 -26 -58 -59zM45 637c0 53 43 95 95 95s95 -42 95 -95c0 -51 -43 -94 -95 -94s-95 43 -95 94z" />
    <glyph glyph-name="ogonek" unicode="&#x2db;" horiz-adv-x="274" 
d="M162 -127c11 -46 62 -38 62 -38c22 2 36 22 36 42h14c0 -36 -8 -72 -63 -79c-86 -12 -103 45 -103 45c-24 81 43 129 135 160v-14c-59 -30 -91 -79 -81 -116z" />
    <glyph glyph-name="tilde" unicode="&#x2dc;" horiz-adv-x="431" 
d="M260 557l-117 43c-34 12 -123 9 -150 -47l-12 5c66 163 188 121 188 121l117 -43c34 -13 124 -6 150 49l12 -7c-67 -163 -188 -121 -188 -121z" />
    <glyph glyph-name="hungarumlaut" unicode="&#x2dd;" horiz-adv-x="533" 
d="M262 557l170 164l99 -30l-240 -134h-29zM87 557l170 164l99 -30l-240 -134h-29z" />
    <glyph glyph-name="uni03A9" unicode="&#x3a9;" horiz-adv-x="711" 
d="M667 156h14l-28 -156h-258c19 101 121 192 121 445c0 214 -61 262 -126 272v16c170 -15 254 -136 254 -283c0 -89 -24 -176 -108 -265c-34 -36 -73 -58 -82 -85h112c39 0 82 9 101 56zM66 450c0 147 84 268 254 283v-16c-64 -10 -126 -58 -126 -272
c0 -253 102 -344 121 -445h-258l-28 156h15c19 -47 61 -56 100 -56h112c-8 27 -47 49 -81 85c-84 89 -109 176 -109 265z" />
    <glyph glyph-name="uni03BC" unicode="&#x3bc;" horiz-adv-x="539" 
d="M333 57c-33 -49 -103 -71 -161 -58v-162c0 -49 9 -59 51 -63v-15l-130 -23c-27 -5 -26 17 -26 17v610c0 62 1 69 -56 75v14l161 19v-328c1 -63 36 -91 93 -91c20 0 41 6 58 20zM467 88c0 -48 9 -53 51 -58v-15l-131 -23c-26 -4 -27 17 -27 17v353c0 61 3 71 -47 76v14
l154 19v-383z" />
    <glyph glyph-name="pi" unicode="&#x3c0;" horiz-adv-x="580" 
d="M516 61l14 -7c-7 -33 -34 -61 -88 -61c-85 0 -85 90 -85 90v301h-121l-12 -207c-6 -132 -155 -218 -155 -218l-8 11c62 48 102 142 106 213l12 201h-5c-38 -2 -109 -13 -152 -70l-13 8s48 137 168 140h252c77 0 116 6 121 63h13c0 -86 -20 -141 -117 -141h-7v-276
c0 -60 34 -67 45 -67c25 0 32 20 32 20z" />
    <glyph glyph-name="uni2010" unicode="&#x2010;" horiz-adv-x="447" 
d="M64 294h315v-78h-315v78z" />
    <glyph glyph-name="endash" unicode="&#x2013;" horiz-adv-x="561" 
d="M0 282h561v-60h-561v60z" />
    <glyph glyph-name="emdash" unicode="&#x2014;" horiz-adv-x="1055" 
d="M0 282h1055v-60h-1055v60z" />
    <glyph glyph-name="quoteleft" unicode="&#x2018;" horiz-adv-x="253" 
d="M175 730l9 -11c-62 -46 -66 -109 -50 -111c17 -2 34 -7 48 -21c27 -27 28 -71 1 -99c-28 -28 -73 -28 -100 0c-43 42 -16 122 14 168c13 21 33 50 78 74z" />
    <glyph glyph-name="quoteright" unicode="&#x2019;" horiz-adv-x="255" 
d="M86 452l-9 11c62 46 66 109 50 111c-17 2 -34 7 -48 21c-27 27 -28 71 -1 99c28 28 73 28 100 0c43 -42 16 -122 -14 -168c-13 -21 -33 -50 -78 -74z" />
    <glyph glyph-name="quotesinglbase" unicode="&#x201a;" horiz-adv-x="256" 
d="M85 -128l-9 11c62 46 66 109 50 111c-17 2 -34 7 -48 21c-27 27 -28 71 -1 99c28 28 73 28 100 0c43 -42 16 -122 -14 -168c-13 -21 -33 -50 -78 -74z" />
    <glyph glyph-name="quotedblleft" unicode="&#x201c;" horiz-adv-x="485" 
d="M393 718l9 -11c-62 -46 -66 -109 -50 -111c17 -2 34 -7 48 -21c27 -27 28 -71 1 -99c-28 -28 -73 -28 -100 0c-43 42 -16 122 14 168c13 21 33 50 78 74zM168 718l9 -11c-62 -46 -66 -109 -50 -111c17 -2 34 -7 48 -21c28 -27 29 -71 1 -99c-27 -28 -73 -28 -100 0
c-42 42 -15 122 14 168c13 21 34 50 78 74z" />
    <glyph glyph-name="quotedblright" unicode="&#x201d;" horiz-adv-x="479" 
d="M86 456l-9 11c62 46 66 109 50 111c-17 2 -34 7 -48 21c-27 27 -28 71 -1 99c28 28 73 28 100 0c43 -42 16 -122 -14 -168c-13 -21 -33 -50 -78 -74zM311 456l-9 11c62 46 66 109 50 111c-17 2 -34 7 -48 21c-28 27 -29 71 -1 99c27 28 73 28 100 0
c42 -42 15 -122 -14 -168c-13 -21 -34 -50 -78 -74z" />
    <glyph glyph-name="quotedblbase" unicode="&#x201e;" horiz-adv-x="475" 
d="M84 -128l-9 11c62 46 66 109 50 111c-17 2 -34 7 -48 21c-27 27 -28 71 -1 99c28 28 73 28 100 0c43 -42 16 -122 -14 -168c-13 -21 -33 -50 -78 -74zM309 -128l-9 11c62 46 66 109 50 111c-17 2 -34 7 -48 21c-28 27 -29 71 -1 99c27 28 73 28 100 0
c42 -42 15 -122 -14 -168c-13 -21 -34 -50 -78 -74z" />
    <glyph glyph-name="dagger" unicode="&#x2020;" horiz-adv-x="407" 
d="M203 645c-26 0 -46 21 -46 46c0 24 20 45 46 45c24 0 45 -21 45 -45c0 -25 -21 -46 -45 -46zM115 451c9 -6 23 -20 36 -41l-4 -4c-20 25 -53 32 -54 25c-1 -9 -3 -19 -11 -26c-15 -16 -39 -16 -55 -1c-15 16 -16 40 0 55c23 25 64 8 88 -8zM211 403c0 0 -2 -54 41 -111
c-46 -249 -45 -542 -45 -557h-8c0 15 0 308 -45 557c42 59 40 111 40 111c0 56 -21 92 -21 142c0 0 -2 61 30 61s29 -61 29 -61c0 -50 -21 -83 -21 -142zM378 459c16 -15 16 -39 0 -55c-15 -15 -40 -15 -55 1c-8 7 -11 17 -12 26c0 7 -33 0 -53 -25l-5 4c13 21 28 34 38 41
c23 16 64 33 87 8z" />
    <glyph glyph-name="daggerdbl" unicode="&#x2021;" 
d="M258 352c0 -25 13 -80 55 -107c-42 -29 -55 -81 -55 -105c0 -66 27 -84 27 -142c0 0 2 -72 -35 -72c-39 0 -36 72 -36 72c0 58 26 73 26 142c0 24 -13 80 -56 105c43 30 56 82 56 107c0 65 -26 83 -26 142c0 0 -3 72 35 72s35 -72 35 -72c0 -59 -26 -74 -26 -142z
M378 412c-1 8 -40 0 -64 -29l-5 3c15 26 32 41 44 49c27 20 76 39 104 10c18 -18 18 -47 0 -65c-19 -18 -48 -18 -66 0c-9 9 -13 21 -13 32zM249 614c-30 0 -54 23 -54 53s24 55 54 55s54 -25 54 -55s-24 -53 -54 -53zM250 -120c29 0 53 -25 53 -54c0 -30 -24 -54 -53 -54
c-31 0 -55 24 -55 54c0 29 24 54 55 54zM107 380c-18 -18 -47 -18 -66 0c-18 18 -18 47 0 65c28 29 77 10 104 -10c12 -8 28 -23 44 -49l-6 -3c-23 29 -62 37 -62 29c-1 -11 -5 -23 -14 -32zM391 115c18 19 47 19 66 0c18 -19 18 -48 0 -66c-28 -28 -77 -8 -104 10
c-12 9 -29 24 -44 50l5 4c24 -30 63 -37 64 -30c0 11 4 23 13 32zM121 83c0 -7 39 0 62 30l6 -4c-16 -26 -32 -41 -44 -50c-27 -18 -76 -38 -104 -10c-18 18 -18 47 0 66s48 19 66 0c9 -9 13 -21 14 -32z" />
    <glyph glyph-name="bullet" unicode="&#x2022;" horiz-adv-x="473" 
d="M231 232c-61 0 -110 49 -110 109c0 62 49 110 110 110s111 -48 111 -110c0 -60 -50 -109 -111 -109z" />
    <glyph glyph-name="ellipsis" unicode="&#x2026;" horiz-adv-x="792" 
d="M701 63c0 -39 -32 -71 -72 -71s-72 32 -72 71c0 41 32 73 72 73s72 -32 72 -73zM465 63c0 -39 -32 -71 -72 -71s-72 32 -72 71c0 41 32 73 72 73s72 -32 72 -73zM230 63c0 -39 -32 -71 -72 -71s-72 32 -72 71c0 41 32 73 72 73s72 -32 72 -73z" />
    <glyph glyph-name="perthousand" unicode="&#x2030;" horiz-adv-x="1100" 
d="M991 201c0 138 -17 168 -60 168c-45 0 -61 -30 -61 -168s17 -163 61 -163c45 0 60 25 60 163zM289 496c0 -92 -26 -176 -135 -176c-110 0 -137 84 -137 176s27 182 137 182c109 0 135 -90 135 -182zM214 496c0 138 -17 169 -60 169c-45 0 -61 -31 -61 -169
s17 -162 61 -162c45 0 60 24 60 162zM120 0l456 704h59l-456 -704h-59zM737 201c0 -93 -27 -176 -136 -176c-110 0 -137 83 -137 176c0 91 27 182 137 182c109 0 136 -91 136 -182zM661 201c0 138 -17 168 -60 168c-45 0 -61 -30 -61 -168s17 -163 61 -163
c45 0 60 25 60 163zM1067 201c0 -93 -27 -176 -136 -176c-110 0 -136 83 -136 176c0 91 26 182 136 182c109 0 136 -91 136 -182z" />
    <glyph glyph-name="guilsinglleft" unicode="&#x2039;" horiz-adv-x="339" 
d="M281 505v-33l-136 -206l136 -201v-32l-231 233z" />
    <glyph glyph-name="guilsinglright" unicode="&#x203a;" horiz-adv-x="339" 
d="M48 472v33l231 -239l-231 -233v32l135 201z" />
    <glyph glyph-name="fraction" unicode="&#x2044;" horiz-adv-x="343" 
d="M458 734h55l-605 -734h-54z" />
    <glyph glyph-name="Euro" unicode="&#x20ac;" horiz-adv-x="609" 
d="M123 418c17 158 82 277 232 293v-16c-71 -16 -104 -90 -112 -277h223l-11 -16h-213v-50v-49h207l-10 -16h-196c7 -189 41 -261 112 -278v-16c-151 16 -216 135 -232 294h-104l11 16h91c-1 16 -2 35 -2 49c0 13 1 32 2 50h-102l11 16h93zM425 712c58 -3 88 -15 126 -45
v-132h-15c0 90 -45 147 -111 160v17zM551 36c-40 -29 -73 -40 -126 -44v17c65 13 111 70 111 160h15v-133z" />
    <glyph glyph-name="afii61289" unicode="&#x2113;" horiz-adv-x="350" 
d="M243 339l-53 -50l-2 -111c-5 -97 24 -144 74 -138c18 4 42 16 55 57l13 -5c-6 -59 -57 -101 -103 -101c-77 0 -142 38 -142 203v31l-63 -48v44l63 50v227c0 241 125 278 190 207l-9 -11c-6 8 -75 84 -75 -176v-183l34 33c55 53 74 129 73 195c6 1 15 2 21 3
c4 -82 -20 -176 -76 -227z" />
    <glyph glyph-name="trademark" unicode="&#x2122;" horiz-adv-x="699" 
d="M673 431v-14h-114v14c17 0 29 11 29 42v190l-97 -249h-13l-108 241v-129c0 -23 -1 -95 49 -95v-14h-118v14c55 0 55 72 55 95v148c-11 16 -33 16 -43 16v14h92l100 -217l83 217h81v-14c-17 0 -31 -8 -31 -36v-181c0 -31 17 -42 35 -42zM13 704h259v-82h-14
c0 69 -72 69 -75 69h-15v-221c0 -28 14 -39 31 -39v-14h-113v14c17 0 31 11 31 39v221h-15c-6 0 -75 0 -75 -69h-14v82z" />
    <glyph glyph-name="Omega" unicode="&#x2126;" horiz-adv-x="711" 
d="M667 156h14l-28 -156h-258c19 101 121 192 121 445c0 214 -61 262 -126 272v16c170 -15 254 -136 254 -283c0 -89 -24 -176 -108 -265c-34 -36 -73 -58 -82 -85h112c39 0 82 9 101 56zM66 450c0 147 84 268 254 283v-16c-64 -10 -126 -58 -126 -272
c0 -253 102 -344 121 -445h-258l-28 156h15c19 -47 61 -56 100 -56h112c-8 27 -47 49 -81 85c-84 89 -109 176 -109 265z" />
    <glyph glyph-name="estimated" unicode="&#x212e;" horiz-adv-x="892" 
d="M176 608v-213h544v208c-70 63 -167 103 -275 103c-105 0 -200 -38 -269 -98zM445 735c228 0 413 -165 413 -368h-682v-240c69 -60 164 -98 269 -98c112 0 213 43 283 111h41c-76 -85 -192 -140 -324 -140c-228 0 -413 164 -413 367s185 368 413 368z" />
    <glyph glyph-name="partialdiff" unicode="&#x2202;" horiz-adv-x="538" 
d="M64 660c29 42 87 72 156 81v-19c-63 -20 -115 -90 -109 -153l-16 -5zM291 741c144 -22 223 -175 205 -408c-14 -182 -82 -318 -217 -339v19c48 33 79 143 95 320c-14 48 -61 83 -95 83c-55 0 -109 -63 -123 -208c-12 -134 7 -184 52 -198v-17c-113 13 -179 91 -167 232
c10 115 69 233 195 233c42 0 122 -24 141 -95c20 247 -18 339 -86 360v18z" />
    <glyph glyph-name="Delta" unicode="&#x2206;" horiz-adv-x="714" 
d="M79 40h452l-226 527zM375 738l294 -706l-15 -32h-616l-6 26l1 2l287 692z" />
    <glyph glyph-name="product" unicode="&#x220f;" horiz-adv-x="781" 
d="M654 590v-543c0 -77 36 -117 84 -117v-15h-304v15c48 0 84 40 84 117v540c0 70 -35 101 -84 101h-95c-48 0 -81 -31 -81 -101v-540c0 -77 34 -117 81 -117v-15h-301v15c48 0 84 40 84 117v543c0 69 -34 99 -84 99v15h700v-15c-49 0 -84 -30 -84 -99z" />
    <glyph glyph-name="summation" unicode="&#x2211;" horiz-adv-x="668" 
d="M147 -98h-71l196 338l-251 464h163l215 -376zM624 155h16l-27 -253h-399c3 5 5 10 8 15h31c289 0 346 151 371 238zM257 689c-3 5 -6 10 -8 15h352l21 -218h-17c-36 125 -179 203 -326 203h-22z" />
    <glyph glyph-name="minus" unicode="&#x2212;" horiz-adv-x="626" 
d="M581 216h-533v78h533v-78z" />
    <glyph glyph-name="uni2215" unicode="&#x2215;" horiz-adv-x="345" 
d="M458 734h57l-605 -734h-56z" />
    <glyph glyph-name="uni2219" unicode="&#x2219;" horiz-adv-x="266" 
d="M134 243c-32 0 -56 25 -56 55c0 32 24 56 56 56c31 0 56 -24 56 -56c0 -30 -25 -55 -56 -55z" />
    <glyph glyph-name="radical" unicode="&#x221a;" horiz-adv-x="565" 
d="M355 36l143 829l44 -12l-180 -1031l-18 -7l-195 456c-22 52 -61 82 -99 67l-5 13l148 63z" />
    <glyph glyph-name="infinity" unicode="&#x221e;" horiz-adv-x="783" 
d="M673 408c63 -64 63 -169 0 -233c-31 -31 -72 -49 -116 -49s-84 17 -116 49c-1 1 -57 60 -57 60s-57 -59 -58 -60c-31 -31 -72 -49 -116 -49s-86 18 -117 49c-62 63 -59 169 0 234c31 31 73 48 117 48s85 -17 116 -49c1 -1 58 -60 58 -60s56 59 57 60c32 32 72 49 116 49
s85 -17 116 -49zM150 353c-16 -16 -25 -38 -25 -62c1 -23 9 -45 25 -61s38 -26 60 -26s43 10 60 25c2 2 59 63 59 63s-59 61 -60 63c-15 15 -36 23 -59 23s-44 -8 -60 -25zM617 230c16 16 25 38 25 61c0 24 -9 46 -25 62c-16 17 -37 25 -60 25s-45 -8 -60 -25
c-1 -1 -58 -62 -58 -62s57 -59 58 -61c16 -16 37 -26 60 -26c22 0 43 10 60 26z" />
    <glyph glyph-name="integral" unicode="&#x222b;" horiz-adv-x="383" 
d="M88 -181c-5 -2 0 -8 8 -12v-16c-32 6 -56 22 -64 33c-10 15 -15 37 -8 54c9 25 37 37 61 27c25 -10 37 -38 28 -62c-5 -12 -15 -21 -25 -24zM130 445c-20 235 17 362 112 378v-17c-18 -16 -38 -66 -27 -196l35 -441c20 -235 -16 -362 -113 -378v16c19 16 40 67 28 198z
M348 790c11 -14 14 -38 7 -54c-9 -25 -37 -37 -61 -27c-25 10 -37 37 -28 62c6 12 15 22 27 25c2 1 -1 6 -10 10v17c32 -6 56 -22 65 -33z" />
    <glyph glyph-name="approxequal" unicode="&#x2248;" horiz-adv-x="518" 
d="M306 311l-117 43c-34 12 -123 10 -150 -47l-12 5c66 163 188 122 188 122l117 -44c34 -12 124 -5 150 49l12 -6c-67 -164 -188 -122 -188 -122zM306 131l-117 43c-34 12 -123 9 -150 -47l-12 5c66 163 188 121 188 121l117 -43c34 -13 124 -6 150 49l12 -7
c-67 -163 -188 -121 -188 -121z" />
    <glyph glyph-name="notequal" unicode="&#x2260;" horiz-adv-x="527" 
d="M480 346h-148l-59 -129h207v-63h-238l-58 -126l-58 26l46 100h-126v63h156l59 129h-215v64h246l63 136l57 -27l-50 -109h118v-64z" />
    <glyph glyph-name="lessequal" unicode="&#x2264;" horiz-adv-x="532" 
d="M191 344l288 -150v-89l-423 217v46l423 217v-90zM47 58h432v-73h-432v73z" />
    <glyph glyph-name="greaterequal" unicode="&#x2265;" horiz-adv-x="532" 
d="M55 194l288 150l-288 151v90l423 -217v-46l-423 -217v89zM55 58h432v-73h-432v73z" />
    <glyph glyph-name="lozenge" unicode="&#x25ca;" horiz-adv-x="559" 
d="M428 327l-150 291l-151 -291l151 -291zM301 733l208 -406l-208 -406h-45l-208 406l208 406h45z" />
    <glyph glyph-name="zero.taboldstyle" unicode="&#xf643;" horiz-adv-x="564" 
d="M181 229c0 -154 19 -206 71 -219v-17c-124 13 -196 90 -196 236c0 143 72 227 196 240v-17c-52 -13 -71 -66 -71 -223zM520 229c0 -148 -71 -224 -197 -236v17c52 13 71 65 71 219c0 157 -19 210 -71 223v17c126 -12 197 -90 197 -240z" />
    <glyph glyph-name="one.taboldstyle" unicode="&#xf644;" horiz-adv-x="491" 
d="M204 93v271c0 51 -23 57 -80 43l-1 14l180 50h7v-378c0 -77 44 -78 79 -78v-15h-273v15c40 0 88 3 88 78z" />
    <glyph glyph-name="two.taboldstyle" unicode="&#xf645;" 
d="M83 374c3 12 13 37 54 66l5 -13c-19 -12 -18 -20 -14 -20c12 1 26 -2 36 -12c21 -18 21 -50 3 -69c-19 -20 -51 -21 -71 -2c-14 13 -18 33 -13 50zM420 153h15l-43 -153h-320l103 111c117 111 139 184 123 248c-12 52 -56 89 -99 92l-5 14c73 16 200 9 215 -96
c20 -146 -151 -195 -225 -273l153 4c34 0 62 13 83 53z" />
    <glyph glyph-name="three.taboldstyle" unicode="&#xf646;" horiz-adv-x="539" 
d="M166 -217c-8 -3 10 -23 60 -31v-16c-64 5 -105 23 -134 52c-16 16 -25 43 -18 68c10 35 47 55 82 44c35 -10 54 -47 43 -82c-5 -18 -18 -28 -33 -35zM498 -25c7 -157 -114 -226 -201 -238v16c78 15 104 97 96 183c-5 48 -40 146 -192 162v16c160 39 165 190 93 250
c-54 45 -167 23 -194 -62l-16 3c17 165 171 165 180 165c151 0 261 -191 82 -325c97 -31 149 -103 152 -170z" />
    <glyph glyph-name="four.taboldstyle" unicode="&#xf647;" horiz-adv-x="577" 
d="M522 -48h-101v-84c0 -116 38 -118 80 -118v-15h-282v15c42 0 80 4 80 113v89h-249v16l57 87l12 -8c-18 -33 0 -33 21 -33h159v330l83 125l39 -7v-448h101v-62z" />
    <glyph glyph-name="five.taboldstyle" unicode="&#xf648;" horiz-adv-x="553" 
d="M485 462l-34 -111h-332l20 111h346zM90 175c300 69 408 -89 413 -197c8 -151 -98 -228 -219 -241v16c108 16 154 105 128 191c-18 61 -104 171 -340 130zM168 -218c-10 -5 2 -23 46 -29v-16c-70 8 -109 37 -124 51c-17 15 -26 44 -19 69c10 35 47 55 83 45
c35 -9 56 -47 46 -82c-5 -19 -17 -31 -32 -38z" />
    <glyph glyph-name="six.taboldstyle" unicode="&#xf649;" horiz-adv-x="571" 
d="M399 680c5 0 -3 10 -30 15v15c62 -10 87 -46 95 -60c10 -17 9 -44 -4 -63c-19 -28 -57 -34 -85 -15c-27 19 -33 57 -14 85c10 12 23 21 38 23zM526 235c0 -142 -82 -228 -201 -241v16c52 17 78 77 78 206c0 141 -48 217 -104 217c-55 0 -107 -53 -123 -116
c2 -174 23 -279 78 -307v-16c-143 16 -209 136 -209 321c0 216 111 375 254 396v-15c-68 -20 -122 -102 -123 -337c29 81 101 112 163 112c142 0 187 -130 187 -236z" />
    <glyph glyph-name="seven.taboldstyle" unicode="&#xf64a;" horiz-adv-x="551" 
d="M466 354h-305c-41 0 -70 -17 -89 -58h-15l21 166h451zM199 -258c4 191 53 351 215 542h15c-94 -194 -107 -367 -107 -542h-123z" />
    <glyph glyph-name="eight.taboldstyle" unicode="&#xf64b;" horiz-adv-x="559" 
d="M526 195c0 -135 -85 -194 -200 -203v17c50 12 92 51 91 129c0 78 -72 125 -155 169c-17 9 -25 13 -40 22c-30 -15 -85 -62 -85 -169c0 -84 46 -139 119 -152v-17c-128 8 -212 54 -212 164c0 86 80 160 163 183c-97 58 -133 121 -133 192c0 109 74 169 170 180v-18
c-40 -13 -71 -49 -71 -107c0 -75 49 -122 160 -166c38 16 69 62 69 133c-1 93 -42 130 -88 141v17c100 -10 165 -63 165 -149c0 -59 -49 -132 -129 -151c96 -48 176 -125 176 -215z" />
    <glyph glyph-name="nine.taboldstyle" unicode="&#xf64c;" horiz-adv-x="553" 
d="M519 141c0 -235 -83 -386 -250 -404v15c94 14 118 90 119 343c-29 -77 -101 -104 -163 -104c-142 0 -187 128 -187 234c0 155 81 231 200 244v-18c-52 -17 -77 -79 -77 -207c0 -141 48 -214 104 -214c55 0 107 46 123 109c0 164 -23 281 -79 312v18
c144 -17 210 -143 210 -328zM160 -227c-5 0 8 -14 38 -20v-16c-74 11 -98 52 -107 68c-10 19 -10 48 5 68c20 30 61 37 91 17c29 -21 36 -62 16 -91c-10 -14 -26 -24 -43 -26z" />
    <glyph glyph-name="dollar.taboldstyle" unicode="&#xf653;" horiz-adv-x="568" 
d="M54 243c13 -67 54 -182 141 -229v-15c-103 16 -149 52 -149 52v192h8zM500 498c-12 55 -50 158 -141 193v15c98 -12 150 -40 150 -40v-168h-9zM288 6c164 3 156 168 51 243l-51 32v-275zM397 366c133 -88 172 -197 108 -293c-31 -37 -77 -80 -217 -82v-122h-22v427
l-87 56c-119 76 -191 171 -111 285c0 0 50 76 198 76v122h22v-397zM266 452v246c-108 0 -168 -135 -28 -227z" />
    <glyph glyph-name="cent.taboldstyle" unicode="&#xf654;" horiz-adv-x="524" 
d="M308 65v390c-45 -9 -123 -54 -123 -209c0 -114 58 -165 123 -181zM474 128l12 -7c-12 -46 -59 -119 -160 -130v-109h-18v109c-149 1 -233 110 -233 240c0 114 82 231 233 240v122h18v-532c61 -5 128 31 148 67zM395 430c7 2 -5 15 -34 21v17c59 -9 88 -37 99 -50
c12 -14 19 -38 10 -58c-11 -28 -44 -44 -73 -32c-29 11 -43 44 -31 72c5 15 17 25 29 30z" />
    <glyph glyph-name="dollar.oldstyle" unicode="&#xf724;" horiz-adv-x="568" 
d="M54 243c13 -67 54 -182 141 -229v-15c-103 16 -149 52 -149 52v192h8zM500 498c-12 55 -50 158 -141 193v15c98 -12 150 -40 150 -40v-168h-9zM288 6c164 3 156 168 51 243l-51 32v-275zM397 366c133 -88 172 -197 108 -293c-31 -37 -77 -80 -217 -82v-122h-22v427
l-87 56c-119 76 -191 171 -111 285c0 0 50 76 198 76v122h22v-397zM266 452v246c-108 0 -168 -135 -28 -227z" />
    <glyph glyph-name="zero.oldstyle" unicode="&#xf730;" horiz-adv-x="564" 
d="M181 229c0 -154 19 -206 71 -219v-17c-124 13 -196 90 -196 236c0 143 72 227 196 240v-17c-52 -13 -71 -66 -71 -223zM520 229c0 -148 -71 -224 -197 -236v17c52 13 71 65 71 219c0 157 -19 210 -71 223v17c126 -12 197 -90 197 -240z" />
    <glyph glyph-name="one.oldstyle" unicode="&#xf731;" horiz-adv-x="491" 
d="M204 93v271c0 51 -23 57 -80 43l-1 14l180 50h7v-378c0 -77 44 -78 79 -78v-15h-273v15c40 0 88 3 88 78z" />
    <glyph glyph-name="two.oldstyle" unicode="&#xf732;" 
d="M83 374c3 12 13 37 54 66l5 -13c-19 -12 -18 -20 -14 -20c12 1 26 -2 36 -12c21 -18 21 -50 3 -69c-19 -20 -51 -21 -71 -2c-14 13 -18 33 -13 50zM420 153h15l-43 -153h-320l103 111c117 111 139 184 123 248c-12 52 -56 89 -99 92l-5 14c73 16 200 9 215 -96
c20 -146 -151 -195 -225 -273l153 4c34 0 62 13 83 53z" />
    <glyph glyph-name="three.oldstyle" unicode="&#xf733;" horiz-adv-x="539" 
d="M166 -217c-8 -3 10 -23 60 -31v-16c-64 5 -105 23 -134 52c-16 16 -25 43 -18 68c10 35 47 55 82 44c35 -10 54 -47 43 -82c-5 -18 -18 -28 -33 -35zM498 -25c7 -157 -114 -226 -201 -238v16c78 15 104 97 96 183c-5 48 -40 146 -192 162v16c160 39 165 190 93 250
c-54 45 -167 23 -194 -62l-16 3c17 165 171 165 180 165c151 0 261 -191 82 -325c97 -31 149 -103 152 -170z" />
    <glyph glyph-name="four.oldstyle" unicode="&#xf734;" horiz-adv-x="577" 
d="M522 -48h-101v-84c0 -116 38 -118 80 -118v-15h-282v15c42 0 80 4 80 113v89h-249v16l57 87l12 -8c-18 -33 0 -33 21 -33h159v330l83 125l39 -7v-448h101v-62z" />
    <glyph glyph-name="five.oldstyle" unicode="&#xf735;" horiz-adv-x="553" 
d="M485 462l-34 -111h-332l20 111h346zM90 175c300 69 408 -89 413 -197c8 -151 -98 -228 -219 -241v16c108 16 154 105 128 191c-18 61 -104 171 -340 130zM168 -218c-10 -5 2 -23 46 -29v-16c-70 8 -109 37 -124 51c-17 15 -26 44 -19 69c10 35 47 55 83 45
c35 -9 56 -47 46 -82c-5 -19 -17 -31 -32 -38z" />
    <glyph glyph-name="six.oldstyle" unicode="&#xf736;" horiz-adv-x="571" 
d="M399 680c5 0 -3 10 -30 15v15c62 -10 87 -46 95 -60c10 -17 9 -44 -4 -63c-19 -28 -57 -34 -85 -15c-27 19 -33 57 -14 85c10 12 23 21 38 23zM526 235c0 -142 -82 -228 -201 -241v16c52 17 78 77 78 206c0 141 -48 217 -104 217c-55 0 -107 -53 -123 -116
c2 -174 23 -279 78 -307v-16c-143 16 -209 136 -209 321c0 216 111 375 254 396v-15c-68 -20 -122 -102 -123 -337c29 81 101 112 163 112c142 0 187 -130 187 -236z" />
    <glyph glyph-name="seven.oldstyle" unicode="&#xf737;" horiz-adv-x="551" 
d="M466 354h-305c-41 0 -70 -17 -89 -58h-15l21 166h451zM199 -258c4 191 53 351 215 542h15c-94 -194 -107 -367 -107 -542h-123z" />
    <glyph glyph-name="eight.oldstyle" unicode="&#xf738;" horiz-adv-x="559" 
d="M526 195c0 -135 -85 -194 -200 -203v17c50 12 92 51 91 129c0 78 -72 125 -155 169c-17 9 -25 13 -40 22c-30 -15 -85 -62 -85 -169c0 -84 46 -139 119 -152v-17c-128 8 -212 54 -212 164c0 86 80 160 163 183c-97 58 -133 121 -133 192c0 109 74 169 170 180v-18
c-40 -13 -71 -49 -71 -107c0 -75 49 -122 160 -166c38 16 69 62 69 133c-1 93 -42 130 -88 141v17c100 -10 165 -63 165 -149c0 -59 -49 -132 -129 -151c96 -48 176 -125 176 -215z" />
    <glyph glyph-name="nine.oldstyle" unicode="&#xf739;" horiz-adv-x="553" 
d="M519 141c0 -235 -83 -386 -250 -404v15c94 14 118 90 119 343c-29 -77 -101 -104 -163 -104c-142 0 -187 128 -187 234c0 155 81 231 200 244v-18c-52 -17 -77 -79 -77 -207c0 -141 48 -214 104 -214c55 0 107 46 123 109c0 164 -23 281 -79 312v18
c144 -17 210 -143 210 -328zM160 -227c-5 0 8 -14 38 -20v-16c-74 11 -98 52 -107 68c-10 19 -10 48 5 68c20 30 61 37 91 17c29 -21 36 -62 16 -91c-10 -14 -26 -24 -43 -26z" />
    <glyph glyph-name="cent.oldstyle" unicode="&#xf7a2;" horiz-adv-x="524" 
d="M308 65v390c-45 -9 -123 -54 -123 -209c0 -114 58 -165 123 -181zM474 128l12 -7c-12 -46 -59 -119 -160 -130v-109h-18v109c-149 1 -233 110 -233 240c0 114 82 231 233 240v122h18v-532c61 -5 128 31 148 67zM395 430c7 2 -5 15 -34 21v17c59 -9 88 -37 99 -50
c12 -14 19 -38 10 -58c-11 -28 -44 -44 -73 -32c-29 11 -43 44 -31 72c5 15 17 25 29 30z" />
    <glyph glyph-name="fi" unicode="&#xfb01;" horiz-adv-x="557" 
d="M478 101c0 -55 5 -84 41 -93v-8h-186v8c38 11 39 42 39 93v272c0 35 -12 74 -50 74h-133v-348c0 -55 9 -83 45 -91v-8h-190v8c38 10 39 40 39 91v348h-64l-1 15h65v17c0 188 78 258 224 265v-15c-45 -7 -118 -41 -118 -230v-37h134h155v-361zM395 692c19 2 1 29 -42 36
v15c58 -6 103 -36 112 -71c10 -21 11 -51 -1 -71c-18 -30 -57 -39 -86 -21c-30 18 -39 56 -21 85c9 15 23 24 38 27z" />
    <glyph glyph-name="fl" unicode="&#xfb02;" horiz-adv-x="542" 
d="M528 15v-15h-186v15c38 11 39 35 39 86v538c0 30 -14 57 -52 67c-43 12 -149 29 -149 -214v-30h107l-3 -15h-104v-348c0 -55 9 -76 45 -84v-15h-191v15c38 10 40 33 40 84v348h-64l-2 15h66v60c0 153 75 223 172 223c39 0 74 -9 106 -29l135 30v-645c0 -55 5 -77 41 -86z
" />
    <glyph glyph-name="NULL" horiz-adv-x="0" 
 />
    <glyph glyph-name="CR" horiz-adv-x="278" 
 />
    <glyph glyph-name="two.superior" horiz-adv-x="266" 
d="M206 454h13l-20 -75h-168l103 152c79 125 -64 168 -90 85l-14 3c7 87 89 85 89 85c46 0 79 -34 79 -75c0 -30 -16 -57 -51 -104c-23 -30 -66 -96 -66 -96h83c15 0 32 8 42 25z" />
    <glyph glyph-name="one.superior" horiz-adv-x="221" 
d="M177 393v-13h-132v13c20 0 43 4 43 38v190c0 34 -31 16 -39 9l-10 13l84 61h16v-273c0 -35 21 -38 38 -38z" />
    <glyph glyph-name="a.superior" horiz-adv-x="300" 
d="M155 579c-55 -13 -78 -32 -78 -61c0 -8 5 -36 39 -36c22 0 34 16 39 28v69zM248 493l11 -4c-3 -17 -21 -36 -54 -36c0 0 -45 0 -49 39c-7 -21 -38 -39 -75 -39c0 0 -60 0 -60 53c0 56 43 65 134 88v30c0 54 -30 76 -69 59c-17 -7 -19 -15 -16 -15c8 0 14 -4 18 -10
c8 -12 4 -28 -7 -37c-12 -8 -28 -6 -37 6c-6 8 -6 20 -2 28c4 10 14 26 39 39c24 12 51 10 51 10c63 0 80 -43 80 -104v-84s0 -36 24 -35c0 0 10 0 12 12z" />
    <glyph glyph-name="three.superior" horiz-adv-x="271" 
d="M123 373c-35 0 -62 12 -78 26c-8 7 -12 20 -9 31c5 16 22 26 38 21s26 -22 20 -38c-2 -8 -6 -14 -15 -17c-4 -1 7 -10 44 -10c41 0 64 36 58 78c-3 21 -17 63 -86 70v15c73 17 75 79 41 106c-26 21 -70 13 -82 -26l-15 1c7 74 82 74 84 74c70 0 119 -84 38 -146
c46 -13 68 -48 69 -78c4 -81 -67 -107 -107 -107z" />
    <glyph glyph-name="o.superior" horiz-adv-x="320" 
d="M204 577c0 108 -33 114 -61 114c-29 0 -61 -4 -61 -114c0 -106 33 -110 61 -110c31 0 61 5 61 110zM258 577c0 -85 -35 -123 -115 -123c-79 0 -115 42 -115 123c0 87 36 128 115 128c80 0 115 -45 115 -128z" />
    <glyph glyph-name="uni0218" unicode="&#x218;" horiz-adv-x="586" 
d="M256 -292c45 24 65 53 78 74c30 46 57 126 14 168c-27 28 -72 28 -100 0c-27 -28 -26 -72 1 -99c14 -14 31 -19 48 -21c16 -2 12 -65 -50 -111zM60 242c16 -84 62 -216 206 -234v-16c-154 7 -221 58 -221 58v192h15zM396 365c133 -87 172 -197 108 -292
c0 0 -38 -70 -168 -81v15c99 26 110 164 2 242l-160 102c-118 76 -191 171 -111 285c0 0 41 64 163 75v-15c-85 -26 -117 -145 7 -225zM493 497c-14 70 -58 183 -193 199v16c136 -7 208 -47 208 -47v-168h-15z" />
    <glyph glyph-name="uni0219" unicode="&#x219;" horiz-adv-x="435" 
d="M180 -292c45 24 65 53 78 74c30 46 57 126 14 168c-27 28 -72 28 -100 0c-27 -28 -26 -72 1 -99c14 -14 31 -19 48 -21c16 -2 12 -65 -50 -111zM362 440v-117h-14c-9 43 -36 119 -126 131v16c98 -4 140 -30 140 -30zM289 252c89 -55 119 -140 70 -210
c0 0 -31 -42 -111 -50v17c65 16 58 100 -11 145l-101 61c-96 61 -120 132 -73 202c0 0 30 45 113 52v-16c-60 -15 -66 -89 12 -138zM47 33v131h15c11 -48 36 -144 140 -156v-16c-105 5 -155 41 -155 41z" />
    <glyph glyph-name="uni021B" unicode="&#x21b;" horiz-adv-x="335" 
d="M140 -292l-9 11c62 46 66 109 50 111c-17 2 -34 7 -48 21c-27 27 -28 71 -1 99c28 28 73 28 100 0c43 -42 16 -122 -14 -168c-13 -21 -33 -50 -78 -74zM311 90l13 -8c-17 -45 -70 -91 -133 -91c-75 0 -121 32 -121 153v303h-50l-3 15h53v138l106 17v-155h119l-4 -15h-115
v-300c0 -68 26 -96 75 -96c29 0 52 21 60 39z" />
    <glyph glyph-name="uni021A" unicode="&#x21a;" horiz-adv-x="676" 
d="M288 -292l-9 11c62 46 66 109 50 111c-17 2 -34 7 -48 21c-27 27 -28 71 -1 99c28 28 73 28 100 0c43 -42 16 -122 -14 -168c-13 -21 -33 -50 -78 -74zM19 704h635v-189h-15c-6 171 -196 174 -203 174h-39v-580c0 -67 37 -94 79 -94v-15h-280v15c42 0 79 27 79 94v580
h-39c-15 0 -196 -3 -202 -174h-15v189z" />
    </font>
</defs>
</svg>
